G04 #@! TF.GenerationSoftware,KiCad,Pcbnew,5.1.9+dfsg1-1*
G04 #@! TF.CreationDate,2021-06-07T17:46:29+02:00*
G04 #@! TF.ProjectId,modbus_climate_control,6d6f6462-7573-45f6-936c-696d6174655f,rev?*
G04 #@! TF.SameCoordinates,PXe88b40PYe88b40*
G04 #@! TF.FileFunction,Copper,L1,Top*
G04 #@! TF.FilePolarity,Positive*
%FSLAX46Y46*%
G04 Gerber Fmt 4.6, Leading zero omitted, Abs format (unit mm)*
G04 Created by KiCad (PCBNEW 5.1.9+dfsg1-1) date 2021-06-07 17:46:29*
%MOMM*%
%LPD*%
G01*
G04 APERTURE LIST*
G04 #@! TA.AperFunction,ComponentPad*
%ADD10O,1.600000X2.000000*%
G04 #@! TD*
G04 #@! TA.AperFunction,ComponentPad*
%ADD11R,2.000000X2.000000*%
G04 #@! TD*
G04 #@! TA.AperFunction,ComponentPad*
%ADD12R,1.700000X1.700000*%
G04 #@! TD*
G04 #@! TA.AperFunction,ComponentPad*
%ADD13O,1.700000X1.700000*%
G04 #@! TD*
G04 #@! TA.AperFunction,Conductor*
%ADD14C,1.000000*%
G04 #@! TD*
G04 APERTURE END LIST*
D10*
G04 #@! TO.P,REF\u002A\u002A,16*
G04 #@! TO.N,N/C*
X27940000Y0D03*
G04 #@! TO.P,REF\u002A\u002A,15*
X25400000Y0D03*
G04 #@! TO.P,REF\u002A\u002A,14*
X22860000Y0D03*
G04 #@! TO.P,REF\u002A\u002A,13*
X20320000Y0D03*
G04 #@! TO.P,REF\u002A\u002A,12*
X17780000Y0D03*
G04 #@! TO.P,REF\u002A\u002A,11*
X15240000Y0D03*
G04 #@! TO.P,REF\u002A\u002A,10*
X12700000Y0D03*
G04 #@! TO.P,REF\u002A\u002A,9*
X10160000Y0D03*
G04 #@! TO.P,REF\u002A\u002A,8*
X10160000Y-22860000D03*
G04 #@! TO.P,REF\u002A\u002A,7*
X12700000Y-22860000D03*
G04 #@! TO.P,REF\u002A\u002A,6*
X15240000Y-22860000D03*
G04 #@! TO.P,REF\u002A\u002A,5*
X17780000Y-22860000D03*
G04 #@! TO.P,REF\u002A\u002A,4*
X20320000Y-22860000D03*
G04 #@! TO.P,REF\u002A\u002A,3*
X22860000Y-22860000D03*
D11*
G04 #@! TO.P,REF\u002A\u002A,1*
X27940000Y-22860000D03*
D10*
G04 #@! TO.P,REF\u002A\u002A,2*
X25400000Y-22860000D03*
G04 #@! TD*
D12*
G04 #@! TO.P,REF\u002A\u002A,1*
G04 #@! TO.N,N/C*
X40640000Y-35560000D03*
D13*
G04 #@! TO.P,REF\u002A\u002A,2*
X40640000Y-33020000D03*
G04 #@! TO.P,REF\u002A\u002A,3*
X40640000Y-30480000D03*
G04 #@! TO.P,REF\u002A\u002A,4*
X40640000Y-27940000D03*
G04 #@! TD*
G04 #@! TO.P,REF\u002A\u002A,4*
G04 #@! TO.N,N/C*
X0Y-27940000D03*
G04 #@! TO.P,REF\u002A\u002A,3*
X0Y-30480000D03*
G04 #@! TO.P,REF\u002A\u002A,2*
X0Y-33020000D03*
D12*
G04 #@! TO.P,REF\u002A\u002A,1*
X0Y-35560000D03*
G04 #@! TD*
D14*
G04 #@! TO.N,*
X27940000Y-22860000D02*
X27940000Y-30480000D01*
X33020000Y-35560000D02*
X40640000Y-35560000D01*
X27940000Y-30480000D02*
X33020000Y-35560000D01*
X33020000Y-20320000D02*
X40640000Y-27940000D01*
X25400000Y-20320000D02*
X33020000Y-20320000D01*
X25400000Y-22860000D02*
X25400000Y-20320000D01*
X15240000Y-22860000D02*
X10160000Y-27940000D01*
X10160000Y-27940000D02*
X0Y-27940000D01*
X17780000Y-22860000D02*
X17780000Y-25400000D01*
X12700000Y-30480000D02*
X0Y-30480000D01*
X17780000Y-25400000D02*
X12700000Y-30480000D01*
X20320000Y-22860000D02*
X20320000Y-27940000D01*
X20320000Y-27940000D02*
X15240000Y-33020000D01*
X15240000Y-33020000D02*
X0Y-33020000D01*
X22860000Y-22860000D02*
X22860000Y-30480000D01*
X17780000Y-35560000D02*
X0Y-35560000D01*
X22860000Y-30480000D02*
X17780000Y-35560000D01*
G04 #@! TD*
M02*
