<?xml version="1.0" standalone="no"?>
<!DOCTYPE svg PUBLIC "-//W3C//DTD SVG 1.1//EN"
"http://www.w3.org/Graphics/SVG/1.1/DTD/svg11.dtd">
<svg width="157.38" height="138.18" viewBox="0 0 3278.74 2878.74" version="1.1"
xmlns="http://www.w3.org/2000/svg"
xmlns:xlink="http://www.w3.org/1999/xlink">
<circle cx="839.37" cy="39.3701" r="39.3701" style=""/>
<circle cx="1039.37" cy="39.3701" r="39.3701" style=""/>
<circle cx="1239.37" cy="39.3701" r="39.3701" style=""/>
<circle cx="1439.37" cy="39.3701" r="39.3701" style=""/>
<circle cx="1639.37" cy="39.3701" r="39.3701" style=""/>
<circle cx="1839.37" cy="39.3701" r="39.3701" style=""/>
<circle cx="2039.37" cy="39.3701" r="39.3701" style=""/>
<circle cx="2239.37" cy="39.3701" r="39.3701" style=""/>
<circle cx="3239.37" cy="2239.37" r="39.3701" style=""/>
<circle cx="3239.37" cy="2439.37" r="39.3701" style=""/>
<circle cx="3239.37" cy="2639.37" r="39.3701" style=""/>
<circle cx="3239.37" cy="2839.37" r="39.3701" style=""/>
<circle cx="2239.37" cy="1839.37" r="39.3701" style=""/>
<circle cx="2039.37" cy="1839.37" r="39.3701" style=""/>
<circle cx="1839.37" cy="1839.37" r="39.3701" style=""/>
<circle cx="1639.37" cy="1839.37" r="39.3701" style=""/>
<circle cx="1439.37" cy="1839.37" r="39.3701" style=""/>
<circle cx="1239.37" cy="1839.37" r="39.3701" style=""/>
<circle cx="1039.37" cy="1839.37" r="39.3701" style=""/>
<circle cx="839.37" cy="1839.37" r="39.3701" style=""/>
<circle cx="39.3701" cy="2239.37" r="39.3701" style=""/>
<circle cx="39.3701" cy="2439.37" r="39.3701" style=""/>
<circle cx="39.3701" cy="2639.37" r="39.3701" style=""/>
<circle cx="39.3701" cy="2839.37" r="39.3701" style=""/>
</svg>
