<?xml version="1.0" standalone="no"?>
<!DOCTYPE svg PUBLIC "-//W3C//DTD SVG 1.1//EN"
"http://www.w3.org/Graphics/SVG/1.1/DTD/svg11.dtd">
<svg width="160.025" height="141.392" viewBox="0 0 3333.86 2945.67" version="1.1"
xmlns="http://www.w3.org/2000/svg"
xmlns:xlink="http://www.w3.org/1999/xlink">
<circle cx="66.9291" cy="66.9291" r="39.3701" style=""/>
<circle cx="66.9291" cy="266.929" r="39.3701" style=""/>
<circle cx="66.9291" cy="466.929" r="39.3701" style=""/>
<circle cx="66.9291" cy="666.929" r="39.3701" style=""/>
<circle cx="866.929" cy="1066.93" r="39.3701" style=""/>
<circle cx="1066.93" cy="1066.93" r="39.3701" style=""/>
<circle cx="1266.93" cy="1066.93" r="39.3701" style=""/>
<circle cx="1466.93" cy="1066.93" r="39.3701" style=""/>
<circle cx="1666.93" cy="1066.93" r="39.3701" style=""/>
<circle cx="1866.93" cy="1066.93" r="39.3701" style=""/>
<circle cx="2066.93" cy="1066.93" r="39.3701" style=""/>
<circle cx="2266.93" cy="1066.93" r="39.3701" style=""/>
<circle cx="3266.93" cy="66.9291" r="39.3701" style=""/>
<circle cx="3266.93" cy="266.929" r="39.3701" style=""/>
<circle cx="3266.93" cy="466.929" r="39.3701" style=""/>
<circle cx="3266.93" cy="666.929" r="39.3701" style=""/>
<circle cx="1066.93" cy="2866.93" r="39.3701" style=""/>
<circle cx="866.929" cy="2866.93" r="39.3701" style=""/>
<circle cx="1266.93" cy="2866.93" r="39.3701" style=""/>
<circle cx="1466.93" cy="2866.93" r="39.3701" style=""/>
<circle cx="1666.93" cy="2866.93" r="39.3701" style=""/>
<circle cx="1866.93" cy="2866.93" r="39.3701" style=""/>
<circle cx="2066.93" cy="2866.93" r="39.3701" style=""/>
<circle cx="2266.93" cy="2866.93" r="39.3701" style=""/>
</svg>
