<?xml version="1.0" standalone="no"?>
<!DOCTYPE svg PUBLIC "-//W3C//DTD SVG 1.1//EN"
"http://www.w3.org/Graphics/SVG/1.1/DTD/svg11.dtd">
<svg width="163.049" height="144.416" viewBox="0 0 3396.85 3008.66" version="1.1"
xmlns="http://www.w3.org/2000/svg"
xmlns:xlink="http://www.w3.org/1999/xlink">
<g fill-rule="evenodd"><path d="M 31.4961,2977.17 L 31.4961,2843.31 L 165.354,2843.31 L 165.354,2870.87 L 1482.12,2870.87 L 1859.06,2493.93 L 1859.06,1974.82 L 1856.28,1972.8 L 1847.46,1963.01 L 1840.88,1951.61 L 1836.81,1939.08 L 1835.43,1925.98 L 1835.43,1894.49 L 1836.81,1881.39 L 1840.88,1868.87 L 1847.46,1857.46 L 1856.28,1847.68 L 1866.93,1839.94 L 1878.96,1834.58 L 1891.84,1831.84 L 1905.01,1831.84 L 1917.89,1834.58 L 1929.92,1839.94 L 1940.58,1847.68 L 1949.39,1857.46 L 1955.97,1868.87 L 1960.04,1881.39 L 1961.42,1894.49 L 1961.42,1925.98 L 1960.04,1939.08 L 1955.97,1951.61 L 1949.39,1963.01 L 1940.58,1972.8 L 1937.8,1974.82 L 1937.8,2510.24 L 1937.04,2517.92 L 1934.8,2525.3 L 1931.16,2532.11 L 1926.26,2538.08 L 1526.26,2938.08 L 1520.3,2942.97 L 1513.49,2946.61 L 1506.11,2948.85 L 1498.43,2949.61 L 165.354,2949.61 L 165.354,2977.17 L 31.4961,2977.17 z " style="fill-opacity:1.000000;fill:rgb(103,198,105);stroke:rgb(0,0,0);stroke-width:2"/></g>
<g fill-rule="evenodd"><path d="M 31.4961,2710.24 L 32.9586,2696.32 L 37.2824,2683.01 L 44.2784,2670.9 L 53.6409,2660.5 L 64.9606,2652.27 L 77.743,2646.58 L 91.4292,2643.67 L 105.421,2643.67 L 119.107,2646.58 L 131.89,2652.27 L 143.21,2660.5 L 152.545,2670.87 L 1282.12,2670.87 L 1659.06,2293.93 L 1659.06,1974.82 L 1656.28,1972.8 L 1647.46,1963.01 L 1640.88,1951.61 L 1636.81,1939.08 L 1635.43,1925.98 L 1635.43,1894.49 L 1636.81,1881.39 L 1640.88,1868.87 L 1647.46,1857.46 L 1656.28,1847.68 L 1666.93,1839.94 L 1678.96,1834.58 L 1691.84,1831.84 L 1705.01,1831.84 L 1717.89,1834.58 L 1729.92,1839.94 L 1740.58,1847.68 L 1749.39,1857.46 L 1755.97,1868.87 L 1760.04,1881.39 L 1761.42,1894.49 L 1761.42,1925.98 L 1760.04,1939.08 L 1755.97,1951.61 L 1749.39,1963.01 L 1740.58,1972.8 L 1737.8,1974.82 L 1737.8,2310.24 L 1737.04,2317.92 L 1734.8,2325.3 L 1731.16,2332.11 L 1726.26,2338.08 L 1326.26,2738.08 L 1320.3,2742.97 L 1313.49,2746.61 L 1306.11,2748.85 L 1298.43,2749.61 L 152.545,2749.61 L 143.21,2759.97 L 131.89,2768.2 L 119.107,2773.89 L 105.421,2776.8 L 91.4292,2776.8 L 77.743,2773.89 L 64.9606,2768.2 L 53.6409,2759.97 L 44.2784,2749.58 L 37.2824,2737.46 L 32.9586,2724.15 L 31.4961,2710.24 z " style="fill-opacity:1.000000;fill:rgb(115,81,255);stroke:rgb(0,0,0);stroke-width:2"/></g>
<g fill-rule="evenodd"><path d="M 31.4961,2510.24 L 32.9586,2496.32 L 37.2824,2483.01 L 44.2784,2470.9 L 53.6409,2460.5 L 64.9606,2452.27 L 77.743,2446.58 L 91.4292,2443.67 L 105.421,2443.67 L 119.107,2446.58 L 131.89,2452.27 L 143.21,2460.5 L 152.545,2470.87 L 1082.12,2470.87 L 1459.06,2093.93 L 1459.06,1974.82 L 1456.28,1972.8 L 1447.46,1963.01 L 1440.88,1951.61 L 1436.81,1939.08 L 1435.43,1925.98 L 1435.43,1894.49 L 1436.81,1881.39 L 1440.88,1868.87 L 1447.46,1857.46 L 1456.28,1847.68 L 1466.93,1839.94 L 1478.96,1834.58 L 1491.84,1831.84 L 1505.01,1831.84 L 1517.89,1834.58 L 1529.92,1839.94 L 1540.58,1847.68 L 1549.39,1857.46 L 1555.97,1868.87 L 1560.04,1881.39 L 1561.42,1894.49 L 1561.42,1925.98 L 1560.04,1939.08 L 1555.97,1951.61 L 1549.39,1963.01 L 1540.58,1972.8 L 1537.8,1974.82 L 1537.8,2110.24 L 1537.04,2117.92 L 1534.8,2125.3 L 1531.16,2132.11 L 1526.26,2138.08 L 1126.26,2538.08 L 1120.3,2542.97 L 1113.49,2546.61 L 1106.11,2548.85 L 1098.43,2549.61 L 152.545,2549.61 L 143.21,2559.97 L 131.89,2568.2 L 119.107,2573.89 L 105.421,2576.8 L 91.4292,2576.8 L 77.743,2573.89 L 64.9606,2568.2 L 53.6409,2559.97 L 44.2784,2549.58 L 37.2824,2537.46 L 32.9586,2524.15 L 31.4961,2510.24 z " style="fill-opacity:1.000000;fill:rgb(74,236,41);stroke:rgb(0,0,0);stroke-width:2"/></g>
<g fill-rule="evenodd"><path d="M 31.4961,2310.24 L 32.9586,2296.32 L 37.2824,2283.01 L 44.2784,2270.9 L 53.6409,2260.5 L 64.9606,2252.27 L 77.743,2246.58 L 91.4292,2243.67 L 105.421,2243.67 L 119.107,2246.58 L 131.89,2252.27 L 143.21,2260.5 L 152.545,2270.87 L 882.118,2270.87 L 1235.43,1917.55 L 1235.43,1894.49 L 1236.81,1881.39 L 1240.88,1868.87 L 1247.46,1857.46 L 1256.28,1847.68 L 1266.93,1839.94 L 1278.96,1834.58 L 1291.84,1831.84 L 1305.01,1831.84 L 1317.89,1834.58 L 1329.92,1839.94 L 1340.58,1847.68 L 1349.39,1857.46 L 1355.97,1868.87 L 1360.04,1881.39 L 1361.42,1894.49 L 1361.42,1925.98 L 1360.04,1939.08 L 1355.97,1951.61 L 1349.39,1963.01 L 1340.58,1972.8 L 1329.92,1980.54 L 1317.89,1985.89 L 1305.01,1988.63 L 1291.84,1988.63 L 1278.6,1985.74 L 926.264,2338.08 L 920.298,2342.97 L 913.491,2346.61 L 906.106,2348.85 L 898.425,2349.61 L 152.545,2349.61 L 143.21,2359.97 L 131.89,2368.2 L 119.107,2373.89 L 105.421,2376.8 L 91.4292,2376.8 L 77.743,2373.89 L 64.9606,2368.2 L 53.6409,2359.97 L 44.2784,2349.58 L 37.2824,2337.46 L 32.9586,2324.15 L 31.4961,2310.24 z " style="fill-opacity:1.000000;fill:rgb(205,186,171);stroke:rgb(0,0,0);stroke-width:2"/></g>
<g fill-rule="evenodd"><path d="M 835.433,1925.98 L 835.433,1894.49 L 836.81,1881.39 L 840.879,1868.87 L 847.463,1857.46 L 856.275,1847.68 L 866.929,1839.94 L 878.96,1834.58 L 891.841,1831.84 L 905.01,1831.84 L 917.891,1834.58 L 929.921,1839.94 L 940.575,1847.68 L 949.387,1857.46 L 955.971,1868.87 L 960.041,1881.39 L 961.417,1894.49 L 961.417,1925.98 L 960.041,1939.08 L 955.971,1951.61 L 949.387,1963.01 L 940.575,1972.8 L 929.921,1980.54 L 917.891,1985.89 L 905.01,1988.63 L 891.841,1988.63 L 878.96,1985.89 L 866.929,1980.54 L 856.275,1972.8 L 847.463,1963.01 L 840.879,1951.61 L 836.81,1939.08 L 835.433,1925.98 z " style="fill-opacity:1.000000;fill:rgb(242,251,227);stroke:rgb(0,0,0);stroke-width:2"/></g>
<g fill-rule="evenodd"><path d="M 835.433,125.984 L 835.433,94.4882 L 836.81,81.3914 L 840.879,68.867 L 847.463,57.4623 L 856.275,47.6759 L 866.929,39.9354 L 878.96,34.5791 L 891.841,31.8411 L 905.01,31.8411 L 917.891,34.5791 L 929.921,39.9354 L 940.575,47.6759 L 949.387,57.4623 L 955.971,68.867 L 960.041,81.3914 L 961.417,94.4882 L 961.417,125.984 L 960.041,139.081 L 955.971,151.605 L 949.387,163.01 L 940.575,172.797 L 929.921,180.537 L 917.891,185.893 L 905.01,188.631 L 891.841,188.631 L 878.96,185.893 L 866.929,180.537 L 856.275,172.797 L 847.463,163.01 L 840.879,151.605 L 836.81,139.081 L 835.433,125.984 z " style="fill-opacity:1.000000;fill:rgb(70,124,194);stroke:rgb(0,0,0);stroke-width:2"/></g>
<g fill-rule="evenodd"><path d="M 1035.43,1925.98 L 1035.43,1894.49 L 1036.81,1881.39 L 1040.88,1868.87 L 1047.46,1857.46 L 1056.28,1847.68 L 1066.93,1839.94 L 1078.96,1834.58 L 1091.84,1831.84 L 1105.01,1831.84 L 1117.89,1834.58 L 1129.92,1839.94 L 1140.58,1847.68 L 1149.39,1857.46 L 1155.97,1868.87 L 1160.04,1881.39 L 1161.42,1894.49 L 1161.42,1925.98 L 1160.04,1939.08 L 1155.97,1951.61 L 1149.39,1963.01 L 1140.58,1972.8 L 1129.92,1980.54 L 1117.89,1985.89 L 1105.01,1988.63 L 1091.84,1988.63 L 1078.96,1985.89 L 1066.93,1980.54 L 1056.28,1972.8 L 1047.46,1963.01 L 1040.88,1951.61 L 1036.81,1939.08 L 1035.43,1925.98 z " style="fill-opacity:1.000000;fill:rgb(84,248,27);stroke:rgb(0,0,0);stroke-width:2"/></g>
<g fill-rule="evenodd"><path d="M 1035.43,125.984 L 1035.43,94.4882 L 1036.81,81.3914 L 1040.88,68.867 L 1047.46,57.4623 L 1056.28,47.6759 L 1066.93,39.9354 L 1078.96,34.5791 L 1091.84,31.8411 L 1105.01,31.8411 L 1117.89,34.5791 L 1129.92,39.9354 L 1140.58,47.6759 L 1149.39,57.4623 L 1155.97,68.867 L 1160.04,81.3914 L 1161.42,94.4882 L 1161.42,125.984 L 1160.04,139.081 L 1155.97,151.605 L 1149.39,163.01 L 1140.58,172.797 L 1129.92,180.537 L 1117.89,185.893 L 1105.01,188.631 L 1091.84,188.631 L 1078.96,185.893 L 1066.93,180.537 L 1056.28,172.797 L 1047.46,163.01 L 1040.88,151.605 L 1036.81,139.081 L 1035.43,125.984 z " style="fill-opacity:1.000000;fill:rgb(232,231,141);stroke:rgb(0,0,0);stroke-width:2"/></g>
<g fill-rule="evenodd"><path d="M 1235.43,125.984 L 1235.43,94.4882 L 1236.81,81.3914 L 1240.88,68.867 L 1247.46,57.4623 L 1256.28,47.6759 L 1266.93,39.9354 L 1278.96,34.5791 L 1291.84,31.8411 L 1305.01,31.8411 L 1317.89,34.5791 L 1329.92,39.9354 L 1340.58,47.6759 L 1349.39,57.4623 L 1355.97,68.867 L 1360.04,81.3914 L 1361.42,94.4882 L 1361.42,125.984 L 1360.04,139.081 L 1355.97,151.605 L 1349.39,163.01 L 1340.58,172.797 L 1329.92,180.537 L 1317.89,185.893 L 1305.01,188.631 L 1291.84,188.631 L 1278.96,185.893 L 1266.93,180.537 L 1256.28,172.797 L 1247.46,163.01 L 1240.88,151.605 L 1236.81,139.081 L 1235.43,125.984 z " style="fill-opacity:1.000000;fill:rgb(118,90,46);stroke:rgb(0,0,0);stroke-width:2"/></g>
<g fill-rule="evenodd"><path d="M 1435.43,125.984 L 1435.43,94.4882 L 1436.81,81.3914 L 1440.88,68.867 L 1447.46,57.4623 L 1456.28,47.6759 L 1466.93,39.9354 L 1478.96,34.5791 L 1491.84,31.8411 L 1505.01,31.8411 L 1517.89,34.5791 L 1529.92,39.9354 L 1540.58,47.6759 L 1549.39,57.4623 L 1555.97,68.867 L 1560.04,81.3914 L 1561.42,94.4882 L 1561.42,125.984 L 1560.04,139.081 L 1555.97,151.605 L 1549.39,163.01 L 1540.58,172.797 L 1529.92,180.537 L 1517.89,185.893 L 1505.01,188.631 L 1491.84,188.631 L 1478.96,185.893 L 1466.93,180.537 L 1456.28,172.797 L 1447.46,163.01 L 1440.88,151.605 L 1436.81,139.081 L 1435.43,125.984 z " style="fill-opacity:1.000000;fill:rgb(99,51,159);stroke:rgb(0,0,0);stroke-width:2"/></g>
<g fill-rule="evenodd"><path d="M 1635.43,125.984 L 1635.43,94.4882 L 1636.81,81.3914 L 1640.88,68.867 L 1647.46,57.4623 L 1656.28,47.6759 L 1666.93,39.9354 L 1678.96,34.5791 L 1691.84,31.8411 L 1705.01,31.8411 L 1717.89,34.5791 L 1729.92,39.9354 L 1740.58,47.6759 L 1749.39,57.4623 L 1755.97,68.867 L 1760.04,81.3914 L 1761.42,94.4882 L 1761.42,125.984 L 1760.04,139.081 L 1755.97,151.605 L 1749.39,163.01 L 1740.58,172.797 L 1729.92,180.537 L 1717.89,185.893 L 1705.01,188.631 L 1691.84,188.631 L 1678.96,185.893 L 1666.93,180.537 L 1656.28,172.797 L 1647.46,163.01 L 1640.88,151.605 L 1636.81,139.081 L 1635.43,125.984 z " style="fill-opacity:1.000000;fill:rgb(201,154,102);stroke:rgb(0,0,0);stroke-width:2"/></g>
<g fill-rule="evenodd"><path d="M 1835.43,125.984 L 1835.43,94.4882 L 1836.81,81.3914 L 1840.88,68.867 L 1847.46,57.4623 L 1856.28,47.6759 L 1866.93,39.9354 L 1878.96,34.5791 L 1891.84,31.8411 L 1905.01,31.8411 L 1917.89,34.5791 L 1929.92,39.9354 L 1940.58,47.6759 L 1949.39,57.4623 L 1955.97,68.867 L 1960.04,81.3914 L 1961.42,94.4882 L 1961.42,125.984 L 1960.04,139.081 L 1955.97,151.605 L 1949.39,163.01 L 1940.58,172.797 L 1929.92,180.537 L 1917.89,185.893 L 1905.01,188.631 L 1891.84,188.631 L 1878.96,185.893 L 1866.93,180.537 L 1856.28,172.797 L 1847.46,163.01 L 1840.88,151.605 L 1836.81,139.081 L 1835.43,125.984 z " style="fill-opacity:1.000000;fill:rgb(50,13,183);stroke:rgb(0,0,0);stroke-width:2"/></g>
<g fill-rule="evenodd"><path d="M 2035.43,1925.98 L 2035.43,1894.49 L 2036.81,1881.39 L 2040.88,1868.87 L 2047.46,1857.46 L 2056.28,1847.68 L 2059.06,1845.66 L 2059.06,1710.24 L 2059.81,1702.56 L 2062.05,1695.17 L 2065.69,1688.36 L 2070.59,1682.4 L 2076.55,1677.5 L 2083.36,1673.86 L 2090.74,1671.62 L 2098.43,1670.87 L 2698.43,1670.87 L 2706.11,1671.62 L 2713.49,1673.86 L 2720.3,1677.5 L 2726.26,1682.4 L 3288.22,2244.36 L 3291.43,2243.67 L 3305.42,2243.67 L 3319.11,2246.58 L 3331.89,2252.27 L 3343.21,2260.5 L 3352.57,2270.9 L 3359.57,2283.01 L 3363.89,2296.32 L 3365.35,2310.24 L 3363.89,2324.15 L 3359.57,2337.46 L 3352.57,2349.58 L 3343.21,2359.97 L 3331.89,2368.2 L 3319.11,2373.89 L 3305.42,2376.8 L 3291.43,2376.8 L 3277.74,2373.89 L 3264.96,2368.2 L 3253.64,2359.97 L 3244.28,2349.58 L 3237.28,2337.46 L 3232.96,2324.15 L 3231.5,2310.24 L 3232.57,2300.06 L 2682.12,1749.61 L 2137.8,1749.61 L 2137.8,1845.66 L 2140.58,1847.68 L 2149.39,1857.46 L 2155.97,1868.87 L 2160.04,1881.39 L 2161.42,1894.49 L 2161.42,1925.98 L 2160.04,1939.08 L 2155.97,1951.61 L 2149.39,1963.01 L 2140.58,1972.8 L 2129.92,1980.54 L 2117.89,1985.89 L 2105.01,1988.63 L 2091.84,1988.63 L 2078.96,1985.89 L 2066.93,1980.54 L 2056.28,1972.8 L 2047.46,1963.01 L 2040.88,1951.61 L 2036.81,1939.08 L 2035.43,1925.98 z " style="fill-opacity:1.000000;fill:rgb(49,88,163);stroke:rgb(0,0,0);stroke-width:2"/></g>
<g fill-rule="evenodd"><path d="M 2035.43,125.984 L 2035.43,94.4882 L 2036.81,81.3914 L 2040.88,68.867 L 2047.46,57.4623 L 2056.28,47.6759 L 2066.93,39.9354 L 2078.96,34.5791 L 2091.84,31.8411 L 2105.01,31.8411 L 2117.89,34.5791 L 2129.92,39.9354 L 2140.58,47.6759 L 2149.39,57.4623 L 2155.97,68.867 L 2160.04,81.3914 L 2161.42,94.4882 L 2161.42,125.984 L 2160.04,139.081 L 2155.97,151.605 L 2149.39,163.01 L 2140.58,172.797 L 2129.92,180.537 L 2117.89,185.893 L 2105.01,188.631 L 2091.84,188.631 L 2078.96,185.893 L 2066.93,180.537 L 2056.28,172.797 L 2047.46,163.01 L 2040.88,151.605 L 2036.81,139.081 L 2035.43,125.984 z " style="fill-opacity:1.000000;fill:rgb(90,37,93);stroke:rgb(0,0,0);stroke-width:2"/></g>
<g fill-rule="evenodd"><path d="M 2219.69,1988.98 L 2219.69,1831.5 L 2377.17,1831.5 L 2377.17,1988.98 L 2337.8,1988.98 L 2337.8,2493.93 L 2714.73,2870.87 L 3231.5,2870.87 L 3231.5,2843.31 L 3365.35,2843.31 L 3365.35,2977.17 L 3231.5,2977.17 L 3231.5,2949.61 L 2698.43,2949.61 L 2690.74,2948.85 L 2683.36,2946.61 L 2676.55,2942.97 L 2670.59,2938.08 L 2270.59,2538.08 L 2265.69,2532.11 L 2262.05,2525.3 L 2259.81,2517.92 L 2259.06,2510.24 L 2259.06,1988.98 L 2219.69,1988.98 z " style="fill-opacity:1.000000;fill:rgb(5,23,88);stroke:rgb(0,0,0);stroke-width:2"/></g>
<g fill-rule="evenodd"><path d="M 2235.43,125.984 L 2235.43,94.4882 L 2236.81,81.3914 L 2240.88,68.867 L 2247.46,57.4623 L 2256.28,47.6759 L 2266.93,39.9354 L 2278.96,34.5791 L 2291.84,31.8411 L 2305.01,31.8411 L 2317.89,34.5791 L 2329.92,39.9354 L 2340.58,47.6759 L 2349.39,57.4623 L 2355.97,68.867 L 2360.04,81.3914 L 2361.42,94.4882 L 2361.42,125.984 L 2360.04,139.081 L 2355.97,151.605 L 2349.39,163.01 L 2340.58,172.797 L 2329.92,180.537 L 2317.89,185.893 L 2305.01,188.631 L 2291.84,188.631 L 2278.96,185.893 L 2266.93,180.537 L 2256.28,172.797 L 2247.46,163.01 L 2240.88,151.605 L 2236.81,139.081 L 2235.43,125.984 z " style="fill-opacity:1.000000;fill:rgb(233,94,212);stroke:rgb(0,0,0);stroke-width:2"/></g>
<g fill-rule="evenodd"><path d="M 3231.5,2710.24 L 3232.96,2696.32 L 3237.28,2683.01 L 3244.28,2670.9 L 3253.64,2660.5 L 3264.96,2652.27 L 3277.74,2646.58 L 3291.43,2643.67 L 3305.42,2643.67 L 3319.11,2646.58 L 3331.89,2652.27 L 3343.21,2660.5 L 3352.57,2670.9 L 3359.57,2683.01 L 3363.89,2696.32 L 3365.35,2710.24 L 3363.89,2724.15 L 3359.57,2737.46 L 3352.57,2749.58 L 3343.21,2759.97 L 3331.89,2768.2 L 3319.11,2773.89 L 3305.42,2776.8 L 3291.43,2776.8 L 3277.74,2773.89 L 3264.96,2768.2 L 3253.64,2759.97 L 3244.28,2749.58 L 3237.28,2737.46 L 3232.96,2724.15 L 3231.5,2710.24 z " style="fill-opacity:1.000000;fill:rgb(171,178,205);stroke:rgb(0,0,0);stroke-width:2"/></g>
<g fill-rule="evenodd"><path d="M 3231.5,2510.24 L 3232.96,2496.32 L 3237.28,2483.01 L 3244.28,2470.9 L 3253.64,2460.5 L 3264.96,2452.27 L 3277.74,2446.58 L 3291.43,2443.67 L 3305.42,2443.67 L 3319.11,2446.58 L 3331.89,2452.27 L 3343.21,2460.5 L 3352.57,2470.9 L 3359.57,2483.01 L 3363.89,2496.32 L 3365.35,2510.24 L 3363.89,2524.15 L 3359.57,2537.46 L 3352.57,2549.58 L 3343.21,2559.97 L 3331.89,2568.2 L 3319.11,2573.89 L 3305.42,2576.8 L 3291.43,2576.8 L 3277.74,2573.89 L 3264.96,2568.2 L 3253.64,2559.97 L 3244.28,2549.58 L 3237.28,2537.46 L 3232.96,2524.15 L 3231.5,2510.24 z " style="fill-opacity:1.000000;fill:rgb(198,155,180);stroke:rgb(0,0,0);stroke-width:2"/></g>
</svg>
