<?xml version="1.0" standalone="no"?>
<!DOCTYPE svg PUBLIC "-//W3C//DTD SVG 1.1//EN"
"http://www.w3.org/Graphics/SVG/1.1/DTD/svg11.dtd">
<svg width="163.049" height="144.416" viewBox="0 0 3396.85 3008.66" version="1.1"
xmlns="http://www.w3.org/2000/svg"
xmlns:xlink="http://www.w3.org/1999/xlink">
<g fill-rule="evenodd"><path d="M -0.000119854,2791.38 L 15.3813,2794.42 L 26.4774,2797.36 L 31.4972,2798.84 L 40.5582,2801.79 L 48.9988,2804.06 L 62.9901,2807.03 L 70.4458,2808.21 L 84.4397,2809.68 L 91.4312,2810.05 L 105.419,2810.05 L 112.411,2809.68 L 126.405,2808.21 L 133.86,2807.03 L 147.852,2804.06 L 156.292,2801.79 L 165.353,2798.84 L 170.373,2797.36 L 172.704,2796.74 L 194.436,2800.97 L 216.168,2810.24 L 1298.43,2810.24 L 1304.39,2810.09 L 1312.11,2809.71 L 1324.2,2808.52 L 1331.92,2807.37 L 1344.62,2804.84 L 1352.33,2802.91 L 1366.06,2798.73 L 1373.78,2795.97 L 1381.27,2793.08 L 1439.85,2768.81 L 1757,2451.66 L 1781.27,2393.08 L 1784.16,2385.59 L 1786.92,2377.87 L 1791.09,2364.15 L 1793.03,2356.43 L 1795.56,2343.73 L 1796.7,2336.01 L 1797.9,2323.92 L 1798.28,2316.21 L 1798.43,2310.24 L 1798.42,1998.66 L 1798.42,1991.33 L 1798.42,1976.12 L 1798.42,1965.39 L 1798.42,1951.55 L 1798.42,1943.12 L 1798.42,1929.88 L 1798.42,1925.98 L 1798.42,1894.49 L 1798.42,1890.59 L 1798.42,1877.35 L 1798.42,1868.92 L 1798.42,1855.08 L 1798.42,1844.35 L 1798.42,1829.14 L 1798.42,1813.31 L 1798.42,1795.59 L 1798.42,1768.06 L 1798.42,1745.66 L 1798.42,1686.05 L 1798.42,1653.66 L 1798.42,1539.39 L 1806.66,1549.9 L 1818.17,1564.81 L 1822.94,1571.08 L 1841.44,1594.74 L 1877.02,1639.05 L 1885.34,1649.64 L 1891.84,1658.08 L 1905.01,1674.52 L 1916.62,1688.43 L 1923.47,1696.86 L 1931.53,1707.07 L 1934.07,1710.24 L 1942.19,1720.27 L 1958.7,1742.9 L 1967.25,1756.07 L 1977.73,1774.14 L 1984.44,1787.31 L 1991.09,1802.2 L 1996.14,1815.37 L 1998.42,1821.81 L 1998.42,1829.14 L 1998.42,1844.35 L 1998.42,1855.08 L 1998.42,1868.92 L 1998.42,1877.35 L 1998.42,1890.59 L 1998.42,1894.49 L 1998.42,1925.98 L 1998.42,1929.88 L 1998.42,1943.12 L 1998.42,1951.55 L 1998.42,1965.39 L 1998.42,1976.12 L 1998.42,1991.33 L 1998.42,1998.66 L 2000.71,2005.1 L 2005.76,2018.27 L 2012.41,2033.16 L 2019.12,2046.33 L 2029.59,2064.4 L 2038.15,2077.57 L 2054.66,2100.2 L 2065.32,2113.37 L 2091.84,2142.67 L 2098.42,2149.26 L 2098.42,2510.24 L 2098.42,3008.66 L -9.9476e-14,3008.66 L -0.000119854,2791.38 z " style="fill-opacity:0.200000;fill:rgb(103,198,105);"/></g>
<g fill-rule="evenodd"><path d="M 0.000138191,1131.59 L 91.4312,1310.58 L 105.419,1337.7 L 173.296,1468.12 L 184.445,1489.77 L 241.779,1602.27 L 251.913,1621.89 L 285.795,1686.64 L 287.627,1689.16 L 300.795,1707.28 L 352.498,1775.01 L 404.202,1835.87 L 417.37,1850.5 L 459.052,1894.49 L 490.55,1925.98 L 524.936,1958.66 L 538.104,1970.51 L 566.917,1995.2 L 595.73,2017.39 L 608.898,2026.95 L 656.579,2058.04 L 669.748,2065.64 L 710.385,2086.42 L 723.555,2092.28 L 759.418,2106.09 L 772.585,2110.37 L 805.226,2119.14 L 818.397,2121.94 L 820.624,2122.41 L 851.533,2114.91 L 865.899,2110.66 L 891.839,2101.51 L 905.009,2096.05 L 925.747,2086.19 L 937.816,2079.63 L 954.951,2069.15 L 965.99,2061.56 L 980.637,2050.33 L 990.68,2041.75 L 998.424,2034.72 L 1011.74,2034.09 L 1029,2032.73 L 1044.59,2030.71 L 1060.3,2027.8 L 1070.57,2025.36 L 1084.94,2021.1 L 1091.84,2018.67 L 1105.01,2013.21 L 1109.75,2010.95 L 1121.82,2004.4 L 1125.21,2002.33 L 1136.25,1994.74 L 1138.81,1992.77 L 1148.86,1984.2 L 1150.99,1982.17 L 1160.06,1972.62 L 1162.03,1970.31 L 1170.11,1959.77 L 1172.12,1956.85 L 1179.2,1945.3 L 1181.35,1941.32 L 1187.37,1928.71 L 1188.58,1925.98 L 1198.42,1902.22 L 1198.42,1894.49 L 1198.42,1890.59 L 1198.42,1877.35 L 1198.42,1868.92 L 1198.42,1855.08 L 1198.42,1844.35 L 1198.42,1829.14 L 1198.42,1813.31 L 1198.42,1795.59 L 1198.42,1768.06 L 1198.42,1745.66 L 1198.42,1686.05 L 1198.42,1653.66 L 1198.42,1455.73 L 1198.42,1392.4 L 1198.42,1010.24 L 1291.84,1010.24 L 1305.01,1010.24 L 1398.42,1010.24 L 1398.42,1392.4 L 1398.42,1455.73 L 1398.42,1653.66 L 1398.42,1686.05 L 1398.42,1745.66 L 1398.42,1768.06 L 1398.42,1795.59 L 1398.42,1813.31 L 1398.42,1829.14 L 1398.42,1844.35 L 1398.42,1855.08 L 1398.42,1868.92 L 1398.42,1877.35 L 1398.42,1890.59 L 1398.42,1894.49 L 1398.42,1925.98 L 1398.42,1929.88 L 1398.42,1943.12 L 1398.42,1951.55 L 1398.42,1965.39 L 1398.42,1976.12 L 1398.42,1991.33 L 1398.42,1998.66 L 1396.14,2005.1 L 1391.09,2018.27 L 1384.44,2033.16 L 1377.73,2046.33 L 1371.46,2057.65 L 1365.99,2061.56 L 1354.95,2069.15 L 1337.82,2079.63 L 1325.75,2086.19 L 1318.93,2089.73 L 1039.85,2368.81 L 981.267,2393.08 L 973.775,2395.97 L 966.057,2398.73 L 952.334,2402.9 L 944.617,2404.84 L 931.919,2407.37 L 924.201,2408.51 L 912.112,2409.71 L 904.395,2410.09 L 898.425,2410.24 L 177.182,2410.23 L 177.179,2410.24 L 0.000207636,2410.24 L 0.000138191,1131.59 z " style="fill-opacity:0.200000;fill:rgb(115,81,255);"/></g>
<g fill-rule="evenodd"><path d="M 0.000130713,2610.24 L 17.1265,2610.24 L 34.4212,2610.24 L 46.2481,2610.24 L 61.5631,2610.24 L 70.016,2610.24 L 84.3227,2610.24 L 91.4312,2610.24 L 105.419,2610.24 L 112.528,2610.24 L 126.834,2610.24 L 135.287,2610.24 L 150.602,2610.24 L 162.429,2610.24 L 177.179,2610.24 L 1098.43,2610.24 L 1104.39,2610.09 L 1112.11,2609.71 L 1124.2,2608.51 L 1131.92,2607.37 L 1144.62,2604.84 L 1152.33,2602.9 L 1166.06,2598.73 L 1173.77,2595.97 L 1181.27,2593.08 L 1239.85,2568.81 L 1557,2251.66 L 1581.27,2193.08 L 1584.16,2185.59 L 1586.92,2177.87 L 1591.09,2164.14 L 1593.03,2156.43 L 1595.56,2143.73 L 1596.7,2136.01 L 1597.9,2123.92 L 1598.28,2116.21 L 1598.42,2110.24 L 1598.42,1998.66 L 1598.42,1991.33 L 1598.42,1976.12 L 1598.42,1965.39 L 1598.42,1951.55 L 1598.42,1943.12 L 1598.42,1929.88 L 1598.42,1925.98 L 1598.42,1894.49 L 1598.42,1890.59 L 1598.42,1877.35 L 1598.42,1868.92 L 1598.42,1855.08 L 1598.42,1844.35 L 1598.42,1829.14 L 1598.42,1813.31 L 1598.42,1795.59 L 1598.42,1768.06 L 1598.42,1745.66 L 1598.42,1686.05 L 1598.42,1653.66 L 1598.42,1455.73 L 1598.42,1392.4 L 1598.42,1042.35 L 1639.65,1145.12 L 1649.05,1168.74 L 1691.84,1277.18 L 1705.01,1309.97 L 1749.55,1418.94 L 1755.57,1433.87 L 1777.76,1489.63 L 1786.61,1511.29 L 1798.42,1539.39 L 1798.42,1653.66 L 1798.42,1686.05 L 1798.42,1745.66 L 1798.42,1768.06 L 1798.42,1795.59 L 1798.42,1813.31 L 1798.42,1829.14 L 1798.42,1844.35 L 1798.42,1855.08 L 1798.42,1868.92 L 1798.42,1877.35 L 1798.42,1890.59 L 1798.42,1894.49 L 1798.42,1925.98 L 1798.42,1929.88 L 1798.42,1943.12 L 1798.42,1951.55 L 1798.42,1965.39 L 1798.42,1976.12 L 1798.42,1991.33 L 1798.42,1998.66 L 1798.42,1998.66 L 1798.43,2310.24 L 1798.28,2316.21 L 1797.9,2323.92 L 1796.7,2336.01 L 1795.56,2343.73 L 1793.03,2356.43 L 1791.09,2364.15 L 1786.92,2377.87 L 1784.16,2385.59 L 1781.27,2393.08 L 1757,2451.66 L 1439.85,2768.81 L 1381.27,2793.08 L 1373.78,2795.97 L 1366.06,2798.73 L 1352.33,2802.91 L 1344.62,2804.84 L 1331.92,2807.37 L 1324.2,2808.52 L 1312.11,2809.71 L 1304.39,2810.09 L 1298.43,2810.24 L 216.168,2810.24 L 194.436,2800.97 L 172.704,2796.74 L 170.373,2797.36 L 165.353,2798.84 L 156.292,2801.79 L 147.852,2804.06 L 133.86,2807.03 L 126.405,2808.21 L 112.411,2809.68 L 105.419,2810.05 L 91.4312,2810.05 L 84.4397,2809.68 L 70.4458,2808.21 L 62.9901,2807.03 L 48.9988,2804.06 L 40.5582,2801.79 L 31.4972,2798.84 L 26.4774,2797.36 L 15.3813,2794.42 L -0.000189958,2791.38 L 0.000130713,2610.24 z " style="fill-opacity:0.200000;fill:rgb(74,236,41);"/></g>
<g fill-rule="evenodd"><path d="M 5.37941e-05,2410.24 L 17.1265,2410.24 L 34.4212,2410.24 L 46.2481,2410.24 L 61.5631,2410.24 L 70.016,2410.24 L 84.3227,2410.24 L 91.4312,2410.24 L 105.419,2410.24 L 112.528,2410.24 L 126.834,2410.24 L 135.287,2410.24 L 150.602,2410.24 L 162.429,2410.24 L 177.179,2410.24 L 177.182,2410.23 L 898.425,2410.24 L 904.395,2410.09 L 912.112,2409.71 L 924.201,2408.51 L 931.919,2407.37 L 944.617,2404.84 L 952.334,2402.9 L 966.057,2398.73 L 973.775,2395.97 L 981.267,2393.08 L 1039.85,2368.81 L 1318.93,2089.73 L 1325.75,2086.19 L 1337.82,2079.63 L 1354.95,2069.15 L 1365.99,2061.56 L 1371.46,2057.65 L 1377.73,2046.33 L 1384.44,2033.16 L 1391.09,2018.27 L 1396.14,2005.1 L 1398.42,1998.66 L 1398.42,1991.33 L 1398.42,1976.12 L 1398.42,1965.39 L 1398.42,1951.55 L 1398.42,1943.12 L 1398.42,1929.88 L 1398.42,1925.98 L 1398.42,1894.49 L 1398.42,1890.59 L 1398.42,1877.35 L 1398.42,1868.92 L 1398.42,1855.08 L 1398.42,1844.35 L 1398.42,1829.14 L 1398.42,1813.31 L 1398.42,1795.59 L 1398.42,1768.06 L 1398.42,1745.66 L 1398.42,1686.05 L 1398.42,1653.66 L 1398.42,1455.73 L 1398.42,1392.4 L 1398.42,1010.24 L 1491.84,1010.24 L 1505.01,1010.24 L 1589.75,1010.24 L 1598.42,1042.35 L 1598.42,1392.4 L 1598.42,1455.73 L 1598.42,1653.66 L 1598.42,1686.05 L 1598.42,1745.66 L 1598.42,1768.06 L 1598.42,1795.59 L 1598.42,1813.31 L 1598.42,1829.14 L 1598.42,1844.35 L 1598.42,1855.08 L 1598.42,1868.92 L 1598.42,1877.35 L 1598.42,1890.59 L 1598.42,1894.49 L 1598.42,1925.98 L 1598.42,1929.88 L 1598.42,1943.12 L 1598.42,1951.55 L 1598.42,1965.39 L 1598.42,1976.12 L 1598.42,1991.33 L 1598.42,1998.66 L 1598.42,2110.24 L 1598.28,2116.21 L 1597.9,2123.92 L 1596.7,2136.01 L 1595.56,2143.73 L 1593.03,2156.43 L 1591.09,2164.14 L 1586.92,2177.87 L 1584.16,2185.59 L 1581.27,2193.08 L 1557,2251.66 L 1239.85,2568.81 L 1181.27,2593.08 L 1173.77,2595.97 L 1166.06,2598.73 L 1152.33,2602.9 L 1144.62,2604.84 L 1131.92,2607.37 L 1124.2,2608.51 L 1112.11,2609.71 L 1104.39,2610.09 L 1098.43,2610.24 L 5.37941e-05,2610.24 L 5.37941e-05,2410.24 z " style="fill-opacity:0.200000;fill:rgb(205,186,171);"/></g>
<g fill-rule="evenodd"><path d="M 998.424,0.00035711 L 998.424,13.3151 L 998.424,29.1434 L 998.424,44.3509 L 998.424,55.0788 L 998.424,68.9241 L 998.424,77.3532 L 998.424,90.5942 L 998.424,94.4882 L 998.424,125.984 L 998.424,129.878 L 998.424,143.119 L 998.424,151.548 L 998.424,165.394 L 998.424,176.122 L 998.424,191.329 L 998.424,207.157 L 998.424,224.879 L 998.424,252.412 L 998.424,274.812 L 998.424,334.425 L 998.424,366.81 L 998.424,564.742 L 998.424,628.07 L 998.424,1010.24 L -0.000435603,1010.24 L -9.9476e-14,-5.68434e-14 L 998.424,0.00035711 z " style="fill-opacity:0.200000;fill:rgb(242,251,227);"/></g>
<g fill-rule="evenodd"><path d="M -0.000140872,1010.24 L 247.772,1010.24 L 264.048,1010.24 L 497.59,1010.24 L 512.006,1010.24 L 703.722,1010.24 L 717.184,1010.24 L 891.839,1010.24 L 905.009,1010.24 L 998.424,1010.24 L 998.424,1392.4 L 998.424,1455.73 L 998.424,1653.66 L 998.424,1686.05 L 998.424,1745.66 L 998.424,1768.06 L 998.424,1795.59 L 998.424,1813.31 L 998.424,1829.14 L 998.424,1844.35 L 998.424,1855.08 L 998.424,1868.92 L 998.424,1877.35 L 998.424,1890.59 L 998.424,1894.49 L 998.424,1925.98 L 998.424,1929.88 L 998.424,1943.12 L 998.424,1951.55 L 998.424,1965.39 L 998.424,1976.12 L 998.424,1991.33 L 998.424,2007.16 L 998.424,2024.88 L 998.424,2034.72 L 990.68,2041.75 L 980.637,2050.33 L 965.99,2061.56 L 954.951,2069.15 L 937.816,2079.63 L 925.747,2086.19 L 905.009,2096.05 L 891.839,2101.51 L 865.899,2110.66 L 851.533,2114.91 L 820.624,2122.41 L 818.397,2121.94 L 805.226,2119.14 L 772.585,2110.37 L 759.418,2106.09 L 723.555,2092.28 L 710.385,2086.42 L 669.748,2065.64 L 656.579,2058.04 L 608.898,2026.95 L 595.73,2017.39 L 566.917,1995.2 L 538.104,1970.51 L 524.936,1958.66 L 490.55,1925.98 L 459.052,1894.49 L 417.37,1850.5 L 404.202,1835.87 L 352.498,1775.01 L 300.795,1707.28 L 287.627,1689.16 L 285.795,1686.64 L 251.913,1621.89 L 241.779,1602.27 L 184.445,1489.77 L 173.296,1468.12 L 105.419,1337.7 L 91.4312,1310.58 L -0.000116311,1131.59 L -0.000140872,1010.24 z " style="fill-opacity:0.200000;fill:rgb(70,124,194);"/></g>
<g fill-rule="evenodd"><path d="M 998.424,1455.73 L 998.424,1392.4 L 998.424,1010.24 L 1091.84,1010.24 L 1105.01,1010.24 L 1198.42,1010.24 L 1198.42,1392.4 L 1198.42,1455.73 L 1198.42,1653.66 L 1198.42,1686.05 L 1198.42,1745.66 L 1198.42,1768.06 L 1198.42,1795.59 L 1198.42,1813.31 L 1198.42,1829.14 L 1198.42,1844.35 L 1198.42,1855.08 L 1198.42,1868.92 L 1198.42,1877.35 L 1198.42,1890.59 L 1198.42,1894.49 L 1198.42,1902.22 L 1188.58,1925.98 L 1187.37,1928.71 L 1181.35,1941.32 L 1179.2,1945.3 L 1172.12,1956.85 L 1170.11,1959.77 L 1162.03,1970.31 L 1160.06,1972.62 L 1150.99,1982.17 L 1148.86,1984.2 L 1138.81,1992.77 L 1136.25,1994.74 L 1125.21,2002.33 L 1121.82,2004.4 L 1109.75,2010.95 L 1105.01,2013.21 L 1091.84,2018.67 L 1084.94,2021.1 L 1070.57,2025.36 L 1060.3,2027.8 L 1044.59,2030.71 L 1029,2032.73 L 1011.74,2034.09 L 998.424,2034.72 L 998.424,2024.88 L 998.424,2007.16 L 998.424,1991.33 L 998.424,1976.12 L 998.424,1965.39 L 998.424,1951.55 L 998.424,1943.12 L 998.424,1929.88 L 998.424,1925.98 L 998.424,1894.49 L 998.424,1890.59 L 998.424,1877.35 L 998.424,1868.92 L 998.424,1855.08 L 998.424,1844.35 L 998.424,1829.14 L 998.424,1813.31 L 998.424,1795.59 L 998.424,1768.06 L 998.424,1745.66 L 998.424,1686.05 L 998.424,1653.66 L 998.424,1455.73 z " style="fill-opacity:0.200000;fill:rgb(84,248,27);"/></g>
<g fill-rule="evenodd"><path d="M 998.424,9.54272e-05 L 1198.42,9.54272e-05 L 1198.42,13.3151 L 1198.42,29.1434 L 1198.42,44.3509 L 1198.42,55.0788 L 1198.42,68.9241 L 1198.42,77.3532 L 1198.42,90.5942 L 1198.42,94.4882 L 1198.42,125.984 L 1198.42,129.878 L 1198.42,143.119 L 1198.42,151.548 L 1198.42,165.394 L 1198.42,176.122 L 1198.42,191.329 L 1198.42,207.157 L 1198.42,224.879 L 1198.42,252.412 L 1198.42,274.812 L 1198.42,334.425 L 1198.42,366.81 L 1198.42,564.742 L 1198.42,628.07 L 1198.42,1010.24 L 1105.01,1010.24 L 1091.84,1010.24 L 998.424,1010.24 L 998.424,9.54272e-05 z " style="fill-opacity:0.200000;fill:rgb(232,231,141);"/></g>
<g fill-rule="evenodd"><path d="M 1198.42,9.54272e-05 L 1398.42,9.54272e-05 L 1398.42,13.3151 L 1398.42,29.1434 L 1398.42,44.3509 L 1398.42,55.0788 L 1398.42,68.9241 L 1398.42,77.3532 L 1398.42,90.5942 L 1398.42,94.4882 L 1398.42,125.984 L 1398.42,129.878 L 1398.42,143.119 L 1398.42,151.548 L 1398.42,165.394 L 1398.42,176.122 L 1398.42,191.329 L 1398.42,207.157 L 1398.42,224.879 L 1398.42,252.412 L 1398.42,274.812 L 1398.42,334.425 L 1398.42,366.81 L 1398.42,564.742 L 1398.42,628.07 L 1398.42,1010.24 L 1305.01,1010.24 L 1291.84,1010.24 L 1198.42,1010.24 L 1198.42,9.54272e-05 z " style="fill-opacity:0.200000;fill:rgb(118,90,46);"/></g>
<g fill-rule="evenodd"><path d="M 1398.42,9.54272e-05 L 1598.42,9.54272e-05 L 1598.42,13.3151 L 1598.42,29.1434 L 1598.42,44.3509 L 1598.42,55.0788 L 1598.42,68.9241 L 1598.42,77.3532 L 1598.42,90.5942 L 1598.42,94.4882 L 1598.42,125.984 L 1598.42,129.878 L 1598.42,143.119 L 1598.42,151.548 L 1598.42,165.394 L 1598.42,176.122 L 1598.42,191.329 L 1598.42,207.157 L 1598.42,224.879 L 1598.42,252.412 L 1598.42,274.812 L 1598.42,334.425 L 1598.42,366.81 L 1598.42,564.742 L 1598.42,628.07 L 1598.42,1006.91 L 1589.75,1010.24 L 1505.01,1010.24 L 1491.84,1010.24 L 1398.42,1010.24 L 1398.42,9.54272e-05 z " style="fill-opacity:0.200000;fill:rgb(99,51,159);"/></g>
<g fill-rule="evenodd"><path d="M 3396.85,709.523 L 3396.85,2410.24 L 3379.72,2410.24 L 3362.43,2410.24 L 3350.6,2410.24 L 3335.29,2410.24 L 3326.83,2410.24 L 3312.53,2410.24 L 3305.42,2410.24 L 3291.43,2410.24 L 3284.32,2410.24 L 3270.01,2410.24 L 3261.56,2410.24 L 3246.25,2410.24 L 3234.42,2410.24 L 3217.12,2410.24 L 3197.81,2410.24 L 3176.89,2410.24 L 3139.22,2410.24 L 3111.24,2410.24 L 3023.87,2410.24 L 3017.75,2411.68 L 2991.71,2417.93 L 2929.16,2434.96 L 2861.32,2457.28 L 2849.61,2461.42 L 2722.69,2334.5 L 2641.51,2138.53 L 2634.85,2098.08 L 2626.15,2059.67 L 2615.41,2023.31 L 2602.63,1988.98 L 2592.8,1965.24 L 2459.05,1831.49 L 2438.58,1813.58 L 2418.11,1800.79 L 2397.64,1793.11 L 2377.17,1790.55 L 2219.68,1790.55 L 2202.72,1792.31 L 2185.76,1797.58 L 2180.78,1813.21 L 2178.78,1828.85 L 2179.36,1830.48 L 2179.74,1831.49 L 2182.01,1838.62 L 2185.54,1851.79 L 2187.03,1858.78 L 2189.11,1871.95 L 2189.78,1878.26 L 2190.47,1891.43 L 2190.55,1894.49 L 2190.55,1925.98 L 2190.47,1929.04 L 2189.78,1942.21 L 2189.11,1948.52 L 2187.03,1961.69 L 2185.54,1968.68 L 2182.01,1981.85 L 2179.74,1988.98 L 2179.36,1990 L 2175.37,2004.13 L 2172.73,2017.05 L 2170.01,2035.71 L 2167.32,2064.3 L 2167.25,2064.4 L 2158.7,2077.57 L 2142.19,2100.2 L 2131.53,2113.37 L 2105.01,2142.68 L 2098.42,2149.26 L 2091.84,2142.67 L 2065.32,2113.37 L 2054.66,2100.2 L 2038.15,2077.57 L 2029.59,2064.4 L 2019.12,2046.33 L 2012.41,2033.16 L 2005.76,2018.27 L 2000.71,2005.1 L 1998.42,1998.66 L 1998.42,1991.33 L 1998.42,1976.12 L 1998.42,1965.39 L 1998.42,1951.55 L 1998.42,1943.12 L 1998.42,1929.88 L 1998.42,1925.98 L 1998.42,1894.49 L 1998.42,1890.59 L 1998.42,1877.35 L 1998.42,1868.92 L 1998.42,1855.08 L 1998.42,1844.35 L 1998.42,1829.14 L 1998.42,1821.81 L 1996.14,1815.37 L 1991.09,1802.2 L 1984.44,1787.31 L 1977.73,1774.14 L 1967.25,1756.07 L 1958.7,1742.9 L 1942.19,1720.27 L 1934.07,1710.24 L 1931.53,1707.07 L 1923.47,1696.86 L 1916.62,1688.43 L 1905.01,1674.52 L 1891.84,1658.08 L 1885.34,1649.64 L 1877.02,1639.05 L 1841.44,1594.74 L 1822.94,1571.08 L 1818.17,1564.81 L 1806.66,1549.9 L 1798.42,1539.39 L 1786.61,1511.29 L 1777.76,1489.63 L 1755.57,1433.87 L 1749.55,1418.94 L 1705.01,1309.97 L 1691.84,1277.18 L 1649.05,1168.74 L 1639.65,1145.12 L 1598.42,1042.35 L 1589.75,1010.24 L 1598.42,1006.91 L 1691.84,982.768 L 1703.6,979.776 L 1705.01,979.423 L 1711.31,977.832 L 1798.42,955.64 L 1863.01,947.311 L 1870.77,946.291 L 1891.84,943.465 L 1905.01,941.757 L 1998.42,930.058 L 2017.57,930.072 L 2025.33,930.057 L 2091.84,929.762 L 2098.43,929.747 L 2105.01,929.747 L 2198.42,926.804 L 2291.84,929.747 L 2305.01,929.747 L 2382.91,927.7 L 2460.81,921.559 L 2473.98,920.174 L 2553.73,909.65 L 2633.48,894.844 L 2646.65,892.045 L 2698.43,880.141 L 2778.42,860.362 L 2786.37,858.376 L 2816.87,850.682 L 2830.66,847.261 L 2966.13,814.221 L 2974.85,812.075 L 3034.26,797.315 L 3049.74,793.528 L 3203.92,756.373 L 3213.97,753.929 L 3325.36,726.65 L 3343.92,722.161 L 3396.85,709.523 z " style="fill-opacity:0.200000;fill:rgb(201,154,102);"/></g>
<g fill-rule="evenodd"><path d="M 1598.42,9.54272e-05 L 1798.42,9.54272e-05 L 1798.42,13.3151 L 1798.42,29.1434 L 1798.42,44.3509 L 1798.42,55.0788 L 1798.42,68.9241 L 1798.42,77.3532 L 1798.42,90.5942 L 1798.42,94.4882 L 1798.42,125.984 L 1798.42,129.878 L 1798.42,143.119 L 1798.42,151.548 L 1798.42,165.394 L 1798.42,176.122 L 1798.42,191.329 L 1798.42,207.157 L 1798.42,224.879 L 1798.42,252.412 L 1798.42,274.812 L 1798.42,334.425 L 1798.42,366.81 L 1798.42,564.742 L 1798.42,628.07 L 1798.42,955.64 L 1711.31,977.832 L 1705.01,979.423 L 1703.6,979.776 L 1691.84,982.768 L 1598.42,1006.91 L 1598.42,9.54272e-05 z " style="fill-opacity:0.200000;fill:rgb(50,13,183);"/></g>
<g fill-rule="evenodd"><path d="M 1798.42,9.54272e-05 L 1998.42,9.54272e-05 L 1998.42,13.3151 L 1998.42,29.1434 L 1998.42,44.3509 L 1998.42,55.0788 L 1998.42,68.9241 L 1998.42,77.3532 L 1998.42,90.5942 L 1998.42,94.4882 L 1998.42,125.984 L 1998.42,129.878 L 1998.42,143.119 L 1998.42,151.548 L 1998.42,165.394 L 1998.42,176.122 L 1998.42,191.329 L 1998.42,207.157 L 1998.42,224.879 L 1998.42,252.412 L 1998.42,274.812 L 1998.42,334.425 L 1998.42,366.81 L 1998.42,564.742 L 1998.42,628.07 L 1998.42,930.058 L 1905.01,941.757 L 1891.84,943.465 L 1870.77,946.291 L 1863.01,947.311 L 1798.42,955.64 L 1798.42,9.54272e-05 z " style="fill-opacity:0.200000;fill:rgb(49,88,163);"/></g>
<g fill-rule="evenodd"><path d="M 1998.42,9.54272e-05 L 2198.42,9.54272e-05 L 2198.42,13.3151 L 2198.42,29.1434 L 2198.42,44.3509 L 2198.42,55.0788 L 2198.42,68.9241 L 2198.42,77.3532 L 2198.42,90.5942 L 2198.42,94.4882 L 2198.42,125.984 L 2198.42,129.878 L 2198.42,143.119 L 2198.42,151.548 L 2198.42,165.394 L 2198.42,176.122 L 2198.42,191.329 L 2198.42,207.157 L 2198.42,224.879 L 2198.42,252.412 L 2198.42,274.812 L 2198.42,334.425 L 2198.42,366.81 L 2198.42,564.742 L 2198.42,628.07 L 2198.42,926.804 L 2105.01,929.747 L 2098.43,929.747 L 2091.84,929.762 L 2025.33,930.057 L 2017.57,930.072 L 1998.42,930.058 L 1998.42,9.54272e-05 z " style="fill-opacity:0.200000;fill:rgb(90,37,93);"/></g>
<g fill-rule="evenodd"><path d="M 3396.85,2791.38 L 3396.85,3008.66 L 2098.42,3008.66 L 2098.42,2710.24 L 2098.42,2679.36 L 2098.42,2669.37 L 2098.42,2621.52 L 2098.42,2612.77 L 2098.42,2574.93 L 2098.42,2566.86 L 2098.42,2533.84 L 2098.42,2526.09 L 2098.42,2510.24 L 2098.42,2510.24 L 2098.42,2149.26 L 2105.01,2142.68 L 2131.53,2113.37 L 2142.19,2100.2 L 2158.7,2077.57 L 2167.25,2064.4 L 2167.32,2064.3 L 2170.01,2035.71 L 2172.73,2017.05 L 2175.37,2004.13 L 2179.36,1990 L 2179.74,1988.98 L 2182.01,1981.85 L 2185.54,1968.68 L 2187.03,1961.69 L 2189.11,1948.52 L 2189.78,1942.21 L 2190.47,1929.04 L 2190.55,1925.98 L 2190.55,1894.49 L 2190.47,1891.43 L 2189.78,1878.26 L 2189.11,1871.95 L 2187.03,1858.78 L 2185.54,1851.79 L 2182.01,1838.62 L 2179.74,1831.49 L 2179.36,1830.48 L 2178.78,1828.85 L 2180.78,1813.21 L 2185.76,1797.58 L 2202.72,1792.31 L 2219.68,1790.55 L 2377.17,1790.55 L 2397.64,1793.11 L 2418.11,1800.79 L 2438.58,1813.58 L 2459.05,1831.49 L 2592.8,1965.24 L 2602.63,1988.98 L 2615.41,2023.31 L 2626.15,2059.67 L 2634.85,2098.08 L 2641.51,2138.53 L 2722.69,2334.5 L 2849.61,2461.42 L 2852.81,2470.45 L 2866.1,2505.44 L 2906.77,2544.36 L 2920.76,2556.95 L 2950.91,2582.79 L 2981.05,2606 L 2986.89,2610.24 L 2992.72,2618.26 L 3015.92,2648.65 L 3039.11,2675.96 L 3053.11,2691.49 L 3086.86,2725.43 L 3100.85,2738.03 L 3126.36,2758.78 L 3140.35,2768.95 L 3160.26,2781.93 L 3169.44,2787.23 L 3177.4,2788.19 L 3198.22,2791.03 L 3215.38,2794.42 L 3226.48,2797.36 L 3231.5,2798.84 L 3240.56,2801.79 L 3249,2804.06 L 3262.99,2807.03 L 3270.44,2808.21 L 3284.44,2809.68 L 3291.43,2810.05 L 3305.42,2810.05 L 3312.41,2809.68 L 3326.4,2808.21 L 3333.86,2807.03 L 3347.85,2804.06 L 3356.29,2801.79 L 3365.35,2798.84 L 3370.37,2797.36 L 3381.47,2794.42 L 3396.85,2791.38 z " style="fill-opacity:0.200000;fill:rgb(5,23,88);"/></g>
<g fill-rule="evenodd"><path d="M 2198.42,-8.66322e-06 L 3396.85,-5.68434e-14 L 3396.85,709.523 L 3343.92,722.161 L 3325.36,726.65 L 3213.97,753.929 L 3203.92,756.373 L 3049.74,793.528 L 3034.26,797.315 L 2974.85,812.075 L 2966.13,814.221 L 2830.66,847.261 L 2816.87,850.682 L 2786.37,858.376 L 2778.42,860.362 L 2698.43,880.141 L 2646.65,892.045 L 2633.48,894.844 L 2553.73,909.65 L 2473.98,920.174 L 2460.81,921.559 L 2382.91,927.7 L 2305.01,929.747 L 2291.84,929.747 L 2198.42,926.804 L 2198.42,-8.66322e-06 z " style="fill-opacity:0.200000;fill:rgb(233,94,212);"/></g>
<g fill-rule="evenodd"><path d="M 3396.85,2410.24 L 3396.85,2610.24 L 3379.72,2610.24 L 3362.43,2610.24 L 3350.6,2610.24 L 3335.29,2610.24 L 3326.83,2610.24 L 3312.53,2610.24 L 3305.42,2610.24 L 3291.43,2610.24 L 3284.32,2610.24 L 3270.01,2610.24 L 3261.56,2610.24 L 3246.25,2610.24 L 3234.42,2610.24 L 3217.12,2610.24 L 3197.81,2610.24 L 3176.89,2610.24 L 3139.22,2610.24 L 3111.24,2610.24 L 3013.29,2610.24 L 2986.89,2610.24 L 2981.05,2606 L 2950.91,2582.79 L 2920.76,2556.95 L 2906.77,2544.36 L 2866.1,2505.44 L 2852.81,2470.45 L 2849.61,2461.42 L 2861.32,2457.28 L 2929.16,2434.96 L 2991.71,2417.93 L 3017.75,2411.68 L 3023.87,2410.24 L 3396.85,2410.24 z " style="fill-opacity:0.200000;fill:rgb(171,178,205);"/></g>
<g fill-rule="evenodd"><path d="M 3396.85,2610.24 L 3396.85,2791.38 L 3381.47,2794.42 L 3370.37,2797.36 L 3365.35,2798.84 L 3356.29,2801.79 L 3347.85,2804.06 L 3333.86,2807.03 L 3326.4,2808.21 L 3312.41,2809.68 L 3305.42,2810.05 L 3291.43,2810.05 L 3284.44,2809.68 L 3270.44,2808.21 L 3262.99,2807.03 L 3249,2804.06 L 3240.56,2801.79 L 3231.5,2798.84 L 3226.48,2797.36 L 3215.38,2794.42 L 3198.22,2791.03 L 3177.4,2788.19 L 3169.44,2787.23 L 3160.26,2781.93 L 3140.35,2768.95 L 3126.36,2758.78 L 3100.85,2738.03 L 3086.86,2725.43 L 3053.11,2691.49 L 3039.11,2675.96 L 3015.92,2648.65 L 2992.72,2618.26 L 2986.89,2610.24 L 3396.85,2610.24 z " style="fill-opacity:0.200000;fill:rgb(198,155,180);"/></g>
<polyline points="819.683,125.984 819.683,94.4882 821.147,79.7462 821.831,76.5262 826.491,62.4622 834.721,48.2062 845.737,35.9742 859.053,26.2982 872.553,20.1942 875.685,19.1762 888.565,16.4382 891.839,16.0942 906.655,16.1802 921.163,19.1762 924.295,20.1942 937.795,26.2982 951.111,35.9742 962.127,48.2062 970.357,62.4622 975.443,78.1182 977.165,94.4882 977.077,127.63 975.443,142.354 970.947,156.47 969.609,159.478 962.127,172.266 951.111,184.498 937.795,194.174 924.295,200.278 921.163,201.296 906.655,204.292 890.193,204.292 874.091,200.87 860.523,194.922 857.671,193.276 845.737,184.498 835.759,173.546 833.825,170.882 827.239,159.478 825.901,156.47 821.405,142.354 819.683,125.984" style="stroke:rgb(103,198,105);stroke-width:31.496063;fill:none;stroke-opacity:0.5;stroke-linecap:round;stroke-linejoin:round;;fill:none"/>
<polyline points="819.683,125.984 819.683,94.4882 821.147,79.7462 821.831,76.5262 826.491,62.4622 834.721,48.2062 845.737,35.9742 859.053,26.2982 872.553,20.1942 875.685,19.1762 888.565,16.4382 891.839,16.0942 906.655,16.1802 921.163,19.1762 924.295,20.1942 937.795,26.2982 951.111,35.9742 962.127,48.2062 970.357,62.4622 975.443,78.1182 977.165,94.4882 977.077,127.63 975.443,142.354 970.947,156.47 969.609,159.478 962.127,172.266 951.111,184.498 937.795,194.174 924.295,200.278 921.163,201.296 906.655,204.292 890.193,204.292 874.091,200.87 860.523,194.922 857.671,193.276 845.737,184.498 835.759,173.546 833.825,170.882 827.239,159.478 825.901,156.47 821.405,142.354 819.683,125.984" style="stroke:rgb(0,0,0);stroke-width:1px;fill:none;stroke-opacity:1;stroke-linecap:round;stroke-linejoin:round;;fill:none"/>
<polyline points="1019.68,125.984 1019.68,94.4882 1021.15,79.7462 1021.83,76.5262 1026.49,62.4622 1034.72,48.2062 1045.74,35.9742 1059.05,26.2982 1072.55,20.1942 1075.69,19.1762 1088.57,16.4382 1091.84,16.0942 1106.66,16.1802 1121.16,19.1762 1124.3,20.1942 1137.79,26.2982 1151.11,35.9742 1162.13,48.2062 1170.36,62.4622 1175.44,78.1182 1177.17,94.4882 1177.08,127.63 1175.44,142.354 1170.95,156.47 1169.61,159.478 1162.13,172.266 1151.11,184.498 1137.79,194.174 1124.3,200.278 1121.16,201.296 1106.66,204.292 1090.19,204.292 1074.09,200.87 1060.52,194.922 1057.67,193.276 1045.74,184.498 1035.76,173.546 1033.83,170.882 1027.24,159.478 1025.9,156.47 1021.41,142.354 1019.68,125.984" style="stroke:rgb(103,198,105);stroke-width:31.496063;fill:none;stroke-opacity:0.5;stroke-linecap:round;stroke-linejoin:round;;fill:none"/>
<polyline points="1019.68,125.984 1019.68,94.4882 1021.15,79.7462 1021.83,76.5262 1026.49,62.4622 1034.72,48.2062 1045.74,35.9742 1059.05,26.2982 1072.55,20.1942 1075.69,19.1762 1088.57,16.4382 1091.84,16.0942 1106.66,16.1802 1121.16,19.1762 1124.3,20.1942 1137.79,26.2982 1151.11,35.9742 1162.13,48.2062 1170.36,62.4622 1175.44,78.1182 1177.17,94.4882 1177.08,127.63 1175.44,142.354 1170.95,156.47 1169.61,159.478 1162.13,172.266 1151.11,184.498 1137.79,194.174 1124.3,200.278 1121.16,201.296 1106.66,204.292 1090.19,204.292 1074.09,200.87 1060.52,194.922 1057.67,193.276 1045.74,184.498 1035.76,173.546 1033.83,170.882 1027.24,159.478 1025.9,156.47 1021.41,142.354 1019.68,125.984" style="stroke:rgb(0,0,0);stroke-width:1px;fill:none;stroke-opacity:1;stroke-linecap:round;stroke-linejoin:round;;fill:none"/>
<polyline points="1219.68,125.984 1219.68,94.4882 1221.15,79.7462 1221.83,76.5262 1226.49,62.4622 1234.72,48.2062 1245.74,35.9742 1259.05,26.2982 1272.55,20.1942 1275.69,19.1762 1288.57,16.4382 1291.84,16.0942 1306.66,16.1802 1321.16,19.1762 1324.3,20.1942 1337.8,26.2982 1351.11,35.9742 1362.13,48.2062 1370.36,62.4622 1375.44,78.1182 1377.17,94.4882 1377.08,127.63 1375.44,142.354 1370.95,156.47 1369.61,159.478 1362.13,172.266 1351.11,184.498 1337.8,194.174 1324.3,200.278 1321.16,201.296 1306.66,204.292 1290.19,204.292 1274.09,200.87 1260.52,194.922 1257.67,193.276 1245.74,184.498 1235.76,173.546 1233.83,170.882 1227.24,159.478 1225.9,156.47 1221.41,142.354 1219.68,125.984" style="stroke:rgb(103,198,105);stroke-width:31.496063;fill:none;stroke-opacity:0.5;stroke-linecap:round;stroke-linejoin:round;;fill:none"/>
<polyline points="1219.68,125.984 1219.68,94.4882 1221.15,79.7462 1221.83,76.5262 1226.49,62.4622 1234.72,48.2062 1245.74,35.9742 1259.05,26.2982 1272.55,20.1942 1275.69,19.1762 1288.57,16.4382 1291.84,16.0942 1306.66,16.1802 1321.16,19.1762 1324.3,20.1942 1337.8,26.2982 1351.11,35.9742 1362.13,48.2062 1370.36,62.4622 1375.44,78.1182 1377.17,94.4882 1377.08,127.63 1375.44,142.354 1370.95,156.47 1369.61,159.478 1362.13,172.266 1351.11,184.498 1337.8,194.174 1324.3,200.278 1321.16,201.296 1306.66,204.292 1290.19,204.292 1274.09,200.87 1260.52,194.922 1257.67,193.276 1245.74,184.498 1235.76,173.546 1233.83,170.882 1227.24,159.478 1225.9,156.47 1221.41,142.354 1219.68,125.984" style="stroke:rgb(0,0,0);stroke-width:1px;fill:none;stroke-opacity:1;stroke-linecap:round;stroke-linejoin:round;;fill:none"/>
<polyline points="1419.68,125.984 1419.68,94.4882 1421.15,79.7462 1421.83,76.5262 1426.49,62.4622 1434.72,48.2062 1445.74,35.9742 1459.05,26.2982 1472.55,20.1942 1475.69,19.1762 1488.57,16.4382 1491.84,16.0942 1506.66,16.1802 1521.16,19.1762 1524.3,20.1942 1537.8,26.2982 1551.11,35.9742 1562.13,48.2062 1570.36,62.4622 1575.44,78.1182 1577.17,94.4882 1577.08,127.63 1575.44,142.354 1570.95,156.47 1569.61,159.478 1562.13,172.266 1551.11,184.498 1537.8,194.174 1524.3,200.278 1521.16,201.296 1506.66,204.292 1490.19,204.292 1474.09,200.87 1460.52,194.922 1457.67,193.276 1445.74,184.498 1435.76,173.546 1433.83,170.882 1427.24,159.478 1425.9,156.47 1421.41,142.354 1419.68,125.984" style="stroke:rgb(103,198,105);stroke-width:31.496063;fill:none;stroke-opacity:0.5;stroke-linecap:round;stroke-linejoin:round;;fill:none"/>
<polyline points="1419.68,125.984 1419.68,94.4882 1421.15,79.7462 1421.83,76.5262 1426.49,62.4622 1434.72,48.2062 1445.74,35.9742 1459.05,26.2982 1472.55,20.1942 1475.69,19.1762 1488.57,16.4382 1491.84,16.0942 1506.66,16.1802 1521.16,19.1762 1524.3,20.1942 1537.8,26.2982 1551.11,35.9742 1562.13,48.2062 1570.36,62.4622 1575.44,78.1182 1577.17,94.4882 1577.08,127.63 1575.44,142.354 1570.95,156.47 1569.61,159.478 1562.13,172.266 1551.11,184.498 1537.8,194.174 1524.3,200.278 1521.16,201.296 1506.66,204.292 1490.19,204.292 1474.09,200.87 1460.52,194.922 1457.67,193.276 1445.74,184.498 1435.76,173.546 1433.83,170.882 1427.24,159.478 1425.9,156.47 1421.41,142.354 1419.68,125.984" style="stroke:rgb(0,0,0);stroke-width:1px;fill:none;stroke-opacity:1;stroke-linecap:round;stroke-linejoin:round;;fill:none"/>
<polyline points="1619.68,125.984 1619.68,94.4882 1621.15,79.7462 1621.83,76.5262 1626.49,62.4622 1634.72,48.2062 1645.74,35.9742 1659.05,26.2982 1672.55,20.1942 1675.69,19.1762 1688.57,16.4382 1691.84,16.0942 1706.66,16.1802 1721.16,19.1762 1724.3,20.1942 1737.8,26.2982 1751.11,35.9742 1762.13,48.2062 1770.36,62.4622 1775.44,78.1182 1777.17,94.4882 1777.08,127.63 1775.44,142.354 1770.95,156.47 1769.61,159.478 1762.13,172.266 1751.11,184.498 1737.8,194.174 1724.3,200.278 1721.16,201.296 1706.66,204.292 1690.19,204.292 1674.09,200.87 1660.52,194.922 1657.67,193.276 1645.74,184.498 1635.76,173.546 1633.83,170.882 1627.24,159.478 1625.9,156.47 1621.41,142.354 1619.68,125.984" style="stroke:rgb(103,198,105);stroke-width:31.496063;fill:none;stroke-opacity:0.5;stroke-linecap:round;stroke-linejoin:round;;fill:none"/>
<polyline points="1619.68,125.984 1619.68,94.4882 1621.15,79.7462 1621.83,76.5262 1626.49,62.4622 1634.72,48.2062 1645.74,35.9742 1659.05,26.2982 1672.55,20.1942 1675.69,19.1762 1688.57,16.4382 1691.84,16.0942 1706.66,16.1802 1721.16,19.1762 1724.3,20.1942 1737.8,26.2982 1751.11,35.9742 1762.13,48.2062 1770.36,62.4622 1775.44,78.1182 1777.17,94.4882 1777.08,127.63 1775.44,142.354 1770.95,156.47 1769.61,159.478 1762.13,172.266 1751.11,184.498 1737.8,194.174 1724.3,200.278 1721.16,201.296 1706.66,204.292 1690.19,204.292 1674.09,200.87 1660.52,194.922 1657.67,193.276 1645.74,184.498 1635.76,173.546 1633.83,170.882 1627.24,159.478 1625.9,156.47 1621.41,142.354 1619.68,125.984" style="stroke:rgb(0,0,0);stroke-width:1px;fill:none;stroke-opacity:1;stroke-linecap:round;stroke-linejoin:round;;fill:none"/>
<polyline points="1819.68,125.984 1819.68,94.4882 1821.15,79.7462 1821.83,76.5262 1826.49,62.4622 1834.72,48.2062 1845.74,35.9742 1859.05,26.2982 1872.55,20.1942 1875.69,19.1762 1888.57,16.4382 1891.84,16.0942 1906.66,16.1802 1921.16,19.1762 1924.3,20.1942 1937.8,26.2982 1951.11,35.9742 1962.13,48.2062 1970.36,62.4622 1975.44,78.1182 1977.17,94.4882 1977.08,127.63 1975.44,142.354 1970.95,156.47 1969.61,159.478 1962.13,172.266 1951.11,184.498 1937.8,194.174 1924.3,200.278 1921.16,201.296 1906.66,204.292 1890.19,204.292 1874.09,200.87 1860.52,194.922 1857.67,193.276 1845.74,184.498 1835.76,173.546 1833.83,170.882 1827.24,159.478 1825.9,156.47 1821.41,142.354 1819.68,125.984" style="stroke:rgb(103,198,105);stroke-width:31.496063;fill:none;stroke-opacity:0.5;stroke-linecap:round;stroke-linejoin:round;;fill:none"/>
<polyline points="1819.68,125.984 1819.68,94.4882 1821.15,79.7462 1821.83,76.5262 1826.49,62.4622 1834.72,48.2062 1845.74,35.9742 1859.05,26.2982 1872.55,20.1942 1875.69,19.1762 1888.57,16.4382 1891.84,16.0942 1906.66,16.1802 1921.16,19.1762 1924.3,20.1942 1937.8,26.2982 1951.11,35.9742 1962.13,48.2062 1970.36,62.4622 1975.44,78.1182 1977.17,94.4882 1977.08,127.63 1975.44,142.354 1970.95,156.47 1969.61,159.478 1962.13,172.266 1951.11,184.498 1937.8,194.174 1924.3,200.278 1921.16,201.296 1906.66,204.292 1890.19,204.292 1874.09,200.87 1860.52,194.922 1857.67,193.276 1845.74,184.498 1835.76,173.546 1833.83,170.882 1827.24,159.478 1825.9,156.47 1821.41,142.354 1819.68,125.984" style="stroke:rgb(0,0,0);stroke-width:1px;fill:none;stroke-opacity:1;stroke-linecap:round;stroke-linejoin:round;;fill:none"/>
<polyline points="2019.68,125.984 2019.68,94.4882 2021.15,79.7462 2021.83,76.5262 2026.49,62.4622 2034.72,48.2062 2045.74,35.9742 2059.05,26.2982 2072.55,20.1942 2075.69,19.1762 2088.57,16.4382 2091.84,16.0942 2106.66,16.1802 2121.16,19.1762 2124.29,20.1942 2137.8,26.2982 2151.11,35.9742 2162.13,48.2062 2170.36,62.4622 2175.44,78.1182 2177.16,94.4882 2177.08,127.63 2175.44,142.354 2170.95,156.47 2169.61,159.478 2162.13,172.266 2151.11,184.498 2137.8,194.174 2124.29,200.278 2121.16,201.296 2106.66,204.292 2090.19,204.292 2074.09,200.87 2060.52,194.922 2057.67,193.276 2045.74,184.498 2035.76,173.546 2033.83,170.882 2027.24,159.478 2025.9,156.47 2021.41,142.354 2019.68,125.984" style="stroke:rgb(103,198,105);stroke-width:31.496063;fill:none;stroke-opacity:0.5;stroke-linecap:round;stroke-linejoin:round;;fill:none"/>
<polyline points="2019.68,125.984 2019.68,94.4882 2021.15,79.7462 2021.83,76.5262 2026.49,62.4622 2034.72,48.2062 2045.74,35.9742 2059.05,26.2982 2072.55,20.1942 2075.69,19.1762 2088.57,16.4382 2091.84,16.0942 2106.66,16.1802 2121.16,19.1762 2124.29,20.1942 2137.8,26.2982 2151.11,35.9742 2162.13,48.2062 2170.36,62.4622 2175.44,78.1182 2177.16,94.4882 2177.08,127.63 2175.44,142.354 2170.95,156.47 2169.61,159.478 2162.13,172.266 2151.11,184.498 2137.8,194.174 2124.29,200.278 2121.16,201.296 2106.66,204.292 2090.19,204.292 2074.09,200.87 2060.52,194.922 2057.67,193.276 2045.74,184.498 2035.76,173.546 2033.83,170.882 2027.24,159.478 2025.9,156.47 2021.41,142.354 2019.68,125.984" style="stroke:rgb(0,0,0);stroke-width:1px;fill:none;stroke-opacity:1;stroke-linecap:round;stroke-linejoin:round;;fill:none"/>
<polyline points="2219.68,125.984 2219.68,94.4882 2221.15,79.7462 2221.83,76.5262 2226.49,62.4622 2234.72,48.2062 2245.74,35.9742 2259.05,26.2982 2272.55,20.1942 2275.69,19.1762 2288.57,16.4382 2291.84,16.0942 2306.66,16.1802 2321.16,19.1762 2324.3,20.1942 2337.8,26.2982 2351.11,35.9742 2362.13,48.2062 2370.36,62.4622 2375.44,78.1182 2377.17,94.4882 2377.08,127.63 2375.44,142.354 2370.95,156.47 2369.61,159.478 2362.13,172.266 2351.11,184.498 2337.8,194.174 2324.3,200.278 2321.16,201.296 2306.66,204.292 2290.19,204.292 2274.09,200.87 2260.52,194.922 2257.67,193.276 2245.74,184.498 2235.76,173.546 2233.83,170.882 2227.24,159.478 2225.9,156.47 2221.41,142.354 2219.68,125.984" style="stroke:rgb(103,198,105);stroke-width:31.496063;fill:none;stroke-opacity:0.5;stroke-linecap:round;stroke-linejoin:round;;fill:none"/>
<polyline points="2219.68,125.984 2219.68,94.4882 2221.15,79.7462 2221.83,76.5262 2226.49,62.4622 2234.72,48.2062 2245.74,35.9742 2259.05,26.2982 2272.55,20.1942 2275.69,19.1762 2288.57,16.4382 2291.84,16.0942 2306.66,16.1802 2321.16,19.1762 2324.3,20.1942 2337.8,26.2982 2351.11,35.9742 2362.13,48.2062 2370.36,62.4622 2375.44,78.1182 2377.17,94.4882 2377.08,127.63 2375.44,142.354 2370.95,156.47 2369.61,159.478 2362.13,172.266 2351.11,184.498 2337.8,194.174 2324.3,200.278 2321.16,201.296 2306.66,204.292 2290.19,204.292 2274.09,200.87 2260.52,194.922 2257.67,193.276 2245.74,184.498 2235.76,173.546 2233.83,170.882 2227.24,159.478 2225.9,156.47 2221.41,142.354 2219.68,125.984" style="stroke:rgb(0,0,0);stroke-width:1px;fill:none;stroke-opacity:1;stroke-linecap:round;stroke-linejoin:round;;fill:none"/>
<polyline points="3215.75,2510.24 3217.55,2493.05 3222.9,2476.61 3231.54,2461.64 3241.94,2449.96 3244.38,2447.76 3255.7,2439.53 3258.56,2437.89 3272.88,2431.6 3288.15,2428.27 3291.43,2427.92 3307.07,2428.01 3323.97,2431.6 3339.76,2438.63 3353.75,2448.79 3365.31,2461.64 3373.95,2476.61 3379.3,2493.05 3381.1,2510.24 3379.3,2527.42 3373.95,2543.86 3365.31,2558.83 3354.91,2570.51 3352.47,2572.71 3341.15,2580.94 3338.29,2582.58 3323.97,2588.87 3308.7,2592.2 3305.42,2592.55 3289.78,2592.46 3272.88,2588.87 3257.09,2581.84 3243.1,2571.68 3231.54,2558.83 3222.9,2543.86 3217.55,2527.42 3215.75,2510.24" style="stroke:rgb(103,198,105);stroke-width:31.496063;fill:none;stroke-opacity:0.5;stroke-linecap:round;stroke-linejoin:round;;fill:none"/>
<polyline points="3215.75,2510.24 3217.55,2493.05 3222.9,2476.61 3231.54,2461.64 3241.94,2449.96 3244.38,2447.76 3255.7,2439.53 3258.56,2437.89 3272.88,2431.6 3288.15,2428.27 3291.43,2427.92 3307.07,2428.01 3323.97,2431.6 3339.76,2438.63 3353.75,2448.79 3365.31,2461.64 3373.95,2476.61 3379.3,2493.05 3381.1,2510.24 3379.3,2527.42 3373.95,2543.86 3365.31,2558.83 3354.91,2570.51 3352.47,2572.71 3341.15,2580.94 3338.29,2582.58 3323.97,2588.87 3308.7,2592.2 3305.42,2592.55 3289.78,2592.46 3272.88,2588.87 3257.09,2581.84 3243.1,2571.68 3231.54,2558.83 3222.9,2543.86 3217.55,2527.42 3215.75,2510.24" style="stroke:rgb(0,0,0);stroke-width:1px;fill:none;stroke-opacity:1;stroke-linecap:round;stroke-linejoin:round;;fill:none"/>
<polyline points="3215.75,2710.24 3217.55,2693.05 3222.9,2676.61 3231.54,2661.64 3241.94,2649.96 3244.38,2647.76 3255.7,2639.53 3258.56,2637.89 3272.88,2631.6 3288.15,2628.27 3291.43,2627.92 3307.07,2628.01 3323.97,2631.6 3339.76,2638.63 3353.75,2648.79 3365.31,2661.64 3373.95,2676.61 3379.3,2693.05 3381.1,2710.24 3379.3,2727.42 3373.95,2743.86 3365.31,2758.83 3354.91,2770.51 3352.47,2772.71 3341.15,2780.94 3338.29,2782.58 3323.97,2788.87 3308.7,2792.2 3305.42,2792.55 3289.78,2792.46 3272.88,2788.87 3257.09,2781.84 3243.1,2771.68 3231.54,2758.83 3222.9,2743.86 3217.55,2727.42 3215.75,2710.24" style="stroke:rgb(103,198,105);stroke-width:31.496063;fill:none;stroke-opacity:0.5;stroke-linecap:round;stroke-linejoin:round;;fill:none"/>
<polyline points="3215.75,2710.24 3217.55,2693.05 3222.9,2676.61 3231.54,2661.64 3241.94,2649.96 3244.38,2647.76 3255.7,2639.53 3258.56,2637.89 3272.88,2631.6 3288.15,2628.27 3291.43,2627.92 3307.07,2628.01 3323.97,2631.6 3339.76,2638.63 3353.75,2648.79 3365.31,2661.64 3373.95,2676.61 3379.3,2693.05 3381.1,2710.24 3379.3,2727.42 3373.95,2743.86 3365.31,2758.83 3354.91,2770.51 3352.47,2772.71 3341.15,2780.94 3338.29,2782.58 3323.97,2788.87 3308.7,2792.2 3305.42,2792.55 3289.78,2792.46 3272.88,2788.87 3257.09,2781.84 3243.1,2771.68 3231.54,2758.83 3222.9,2743.86 3217.55,2727.42 3215.75,2710.24" style="stroke:rgb(0,0,0);stroke-width:1px;fill:none;stroke-opacity:1;stroke-linecap:round;stroke-linejoin:round;;fill:none"/>
<polyline points="2203.94,1988.98 2204.24,1992.05 2205.14,1995 2206.59,1997.72 2208.55,2000.11 2210.94,2002.07 2213.66,2003.52 2216.61,2004.42 2219.68,2004.72 2243.31,2004.72 2243.31,2510.23 2244.37,2520.99 2246.98,2529.87 2248.16,2532.72 2251.8,2539.53 2253.52,2542.1 2259.45,2549.21 2660.6,2950.25 2666.56,2955.14 2669.13,2956.86 2675.94,2960.5 2678.79,2961.68 2687.67,2964.29 2698.42,2965.35 3215.75,2965.35 3215.75,2977.16 3216.05,2980.24 3216.95,2983.19 3218.4,2985.91 3220.36,2988.3 3222.75,2990.26 3225.47,2991.71 3228.42,2992.61 3231.5,2992.91 3365.35,2992.91 3368.43,2992.61 3371.38,2991.71 3374.1,2990.26 3376.49,2988.3 3378.45,2985.91 3379.9,2983.19 3380.8,2980.24 3381.1,2977.16 3381.1,2843.31 3380.8,2840.23 3379.9,2837.28 3378.45,2834.56 3376.49,2832.17 3374.1,2830.21 3371.38,2828.76 3368.43,2827.86 3365.35,2827.56 3231.5,2827.56 3228.42,2827.86 3225.47,2828.76 3222.75,2830.21 3220.36,2832.17 3218.4,2834.56 3216.95,2837.28 3216.05,2840.23 3215.75,2843.31 3215.75,2855.12 2721.26,2855.12 2353.54,2487.4 2353.54,2004.72 2377.17,2004.72 2380.24,2004.42 2383.19,2003.52 2385.91,2002.07 2388.3,2000.11 2390.26,1997.72 2391.71,1995 2392.61,1992.05 2392.91,1988.98 2392.91,1831.49 2392.61,1828.42 2391.71,1825.47 2390.26,1822.75 2388.3,1820.36 2385.91,1818.4 2383.19,1816.95 2380.24,1816.05 2377.17,1815.75 2219.68,1815.75 2216.61,1816.05 2213.66,1816.95 2210.94,1818.4 2208.55,1820.36 2206.59,1822.75 2205.14,1825.47 2204.24,1828.42 2203.94,1831.49 2203.94,1988.98" style="stroke:rgb(103,198,105);stroke-width:31.496063;fill:none;stroke-opacity:0.5;stroke-linecap:round;stroke-linejoin:round;;fill:none"/>
<polyline points="2203.94,1988.98 2204.24,1992.05 2205.14,1995 2206.59,1997.72 2208.55,2000.11 2210.94,2002.07 2213.66,2003.52 2216.61,2004.42 2219.68,2004.72 2243.31,2004.72 2243.31,2510.23 2244.37,2520.99 2246.98,2529.87 2248.16,2532.72 2251.8,2539.53 2253.52,2542.1 2259.45,2549.21 2660.6,2950.25 2666.56,2955.14 2669.13,2956.86 2675.94,2960.5 2678.79,2961.68 2687.67,2964.29 2698.42,2965.35 3215.75,2965.35 3215.75,2977.16 3216.05,2980.24 3216.95,2983.19 3218.4,2985.91 3220.36,2988.3 3222.75,2990.26 3225.47,2991.71 3228.42,2992.61 3231.5,2992.91 3365.35,2992.91 3368.43,2992.61 3371.38,2991.71 3374.1,2990.26 3376.49,2988.3 3378.45,2985.91 3379.9,2983.19 3380.8,2980.24 3381.1,2977.16 3381.1,2843.31 3380.8,2840.23 3379.9,2837.28 3378.45,2834.56 3376.49,2832.17 3374.1,2830.21 3371.38,2828.76 3368.43,2827.86 3365.35,2827.56 3231.5,2827.56 3228.42,2827.86 3225.47,2828.76 3222.75,2830.21 3220.36,2832.17 3218.4,2834.56 3216.95,2837.28 3216.05,2840.23 3215.75,2843.31 3215.75,2855.12 2721.26,2855.12 2353.54,2487.4 2353.54,2004.72 2377.17,2004.72 2380.24,2004.42 2383.19,2003.52 2385.91,2002.07 2388.3,2000.11 2390.26,1997.72 2391.71,1995 2392.61,1992.05 2392.91,1988.98 2392.91,1831.49 2392.61,1828.42 2391.71,1825.47 2390.26,1822.75 2388.3,1820.36 2385.91,1818.4 2383.19,1816.95 2380.24,1816.05 2377.17,1815.75 2219.68,1815.75 2216.61,1816.05 2213.66,1816.95 2210.94,1818.4 2208.55,1820.36 2206.59,1822.75 2205.14,1825.47 2204.24,1828.42 2203.94,1831.49 2203.94,1988.98" style="stroke:rgb(0,0,0);stroke-width:1px;fill:none;stroke-opacity:1;stroke-linecap:round;stroke-linejoin:round;;fill:none"/>
<polyline points="2019.68,1925.98 2021.15,1940.73 2021.83,1943.95 2026.49,1958.01 2034.72,1972.27 2044.57,1983.33 2047.02,1985.54 2059.05,1994.17 2074.09,2000.87 2088.57,2004.03 2091.84,2004.38 2106.66,2004.29 2122.76,2000.87 2136.33,1994.92 2139.18,1993.28 2151.11,1984.5 2161.09,1973.55 2163.02,1970.88 2170.36,1958.01 2175.44,1942.35 2177.16,1925.98 2177.16,1894.49 2175.44,1878.12 2170.36,1862.46 2162.13,1848.2 2153.54,1838.54 2153.54,1765.35 2675.59,1765.35 3216.12,2305.88 3215.83,2311.88 3217.55,2327.42 3222.9,2343.86 3231.54,2358.83 3241.94,2370.51 3244.38,2372.71 3255.7,2380.94 3258.56,2382.58 3272.88,2388.87 3288.15,2392.2 3291.43,2392.55 3307.07,2392.46 3323.97,2388.87 3339.76,2381.84 3352.47,2372.71 3354.91,2370.51 3365.31,2358.83 3373.21,2345.33 3374.55,2342.32 3378.87,2329.02 3379.55,2325.8 3381.1,2310.24 3379.55,2294.67 3378.87,2291.45 3374.55,2278.15 3373.21,2275.14 3365.31,2261.64 3354.91,2249.96 3352.47,2247.76 3339.76,2238.63 3323.97,2231.6 3307.07,2228.01 3294.06,2227.92 2737.4,1671.26 2730.29,1665.33 2727.72,1663.61 2720.91,1659.97 2718.06,1658.79 2710.68,1656.55 2707.65,1655.95 2698.43,1655.12 2098.43,1655.12 2087.67,1656.18 2077.33,1659.31 2069.13,1663.61 2066.56,1665.33 2060.6,1670.22 2058.41,1672.41 2053.52,1678.37 2051.8,1680.94 2048.16,1687.75 2046.98,1690.6 2044.74,1697.98 2044.14,1701.01 2043.31,1710.23 2043.31,1838.54 2034.72,1848.2 2027.24,1860.99 2025.9,1864 2021.83,1876.52 2021.15,1879.74 2019.68,1894.49 2019.68,1925.98" style="stroke:rgb(103,198,105);stroke-width:31.496063;fill:none;stroke-opacity:0.5;stroke-linecap:round;stroke-linejoin:round;;fill:none"/>
<polyline points="2019.68,1925.98 2021.15,1940.73 2021.83,1943.95 2026.49,1958.01 2034.72,1972.27 2044.57,1983.33 2047.02,1985.54 2059.05,1994.17 2074.09,2000.87 2088.57,2004.03 2091.84,2004.38 2106.66,2004.29 2122.76,2000.87 2136.33,1994.92 2139.18,1993.28 2151.11,1984.5 2161.09,1973.55 2163.02,1970.88 2170.36,1958.01 2175.44,1942.35 2177.16,1925.98 2177.16,1894.49 2175.44,1878.12 2170.36,1862.46 2162.13,1848.2 2153.54,1838.54 2153.54,1765.35 2675.59,1765.35 3216.12,2305.88 3215.83,2311.88 3217.55,2327.42 3222.9,2343.86 3231.54,2358.83 3241.94,2370.51 3244.38,2372.71 3255.7,2380.94 3258.56,2382.58 3272.88,2388.87 3288.15,2392.2 3291.43,2392.55 3307.07,2392.46 3323.97,2388.87 3339.76,2381.84 3352.47,2372.71 3354.91,2370.51 3365.31,2358.83 3373.21,2345.33 3374.55,2342.32 3378.87,2329.02 3379.55,2325.8 3381.1,2310.24 3379.55,2294.67 3378.87,2291.45 3374.55,2278.15 3373.21,2275.14 3365.31,2261.64 3354.91,2249.96 3352.47,2247.76 3339.76,2238.63 3323.97,2231.6 3307.07,2228.01 3294.06,2227.92 2737.4,1671.26 2730.29,1665.33 2727.72,1663.61 2720.91,1659.97 2718.06,1658.79 2710.68,1656.55 2707.65,1655.95 2698.43,1655.12 2098.43,1655.12 2087.67,1656.18 2077.33,1659.31 2069.13,1663.61 2066.56,1665.33 2060.6,1670.22 2058.41,1672.41 2053.52,1678.37 2051.8,1680.94 2048.16,1687.75 2046.98,1690.6 2044.74,1697.98 2044.14,1701.01 2043.31,1710.23 2043.31,1838.54 2034.72,1848.2 2027.24,1860.99 2025.9,1864 2021.83,1876.52 2021.15,1879.74 2019.68,1894.49 2019.68,1925.98" style="stroke:rgb(0,0,0);stroke-width:1px;fill:none;stroke-opacity:1;stroke-linecap:round;stroke-linejoin:round;;fill:none"/>
<polyline points="1167.38,1963.33 1219.68,1911.03 1219.68,1894.49 1221.15,1879.74 1221.83,1876.52 1226.49,1862.46 1234.72,1848.2 1244.57,1837.14 1247.02,1834.93 1257.67,1827.19 1260.52,1825.55 1274.09,1819.6 1290.19,1816.18 1306.66,1816.18 1322.76,1819.6 1337.8,1826.3 1351.11,1835.97 1362.13,1848.2 1370.36,1862.46 1375.44,1878.12 1377.08,1892.84 1377.17,1925.98 1375.7,1940.73 1375.02,1943.95 1370.95,1956.47 1369.61,1959.48 1362.13,1972.27 1352.28,1983.33 1349.83,1985.54 1337.8,1994.17 1322.76,2000.87 1306.66,2004.29 1290.15,2004.29 1283.65,2002.96 937.399,2349.21 930.287,2355.14 927.721,2356.86 920.913,2360.5 918.061,2361.68 909.177,2364.29 898.423,2365.35 159.555,2365.35 153.745,2371.68 141.145,2380.94 138.293,2382.58 125.511,2388.27 122.381,2389.29 107.067,2392.46 91.4312,2392.55 88.1552,2392.2 74.4692,2389.29 71.3392,2388.27 57.0872,2381.84 43.1052,2371.68 32.5772,2360.11 30.6412,2357.45 22.8972,2343.86 17.9832,2329.02 17.2972,2325.8 15.7492,2310.24 17.5552,2293.05 22.8972,2276.61 31.5392,2261.64 43.1052,2248.79 57.0872,2238.63 72.8772,2231.6 89.7832,2228.01 107.067,2228.01 122.381,2231.18 125.511,2232.2 138.293,2237.89 141.145,2239.53 153.745,2248.79 159.555,2255.12 875.593,2255.12 1135.35,1995.36 1138.81,1992.77 1150.99,1982.17 1162.03,1970.31 1167.4,1963.31 1170.36,1958.01 1175.44,1942.35 1177.08,1927.63 1177.08,1892.84 1175.44,1878.12 1170.95,1864 1169.61,1860.99 1162.13,1848.2 1152.28,1837.14 1149.83,1834.93 1137.79,1826.3 1122.76,1819.6 1108.28,1816.44 1105.01,1816.09 1090.19,1816.18 1074.09,1819.6 1059.05,1826.3 1045.74,1835.97 1034.72,1848.2 1027.24,1860.99 1025.9,1864 1021.41,1878.12 1019.68,1894.49 1019.77,1927.63 1021.41,1942.35 1025.9,1956.47 1027.24,1959.48 1034.72,1972.27 1045.74,1984.5 1059.05,1994.17 1074.09,2000.87 1090.19,2004.29 1106.66,2004.29 1122.76,2000.87 1135.35,1995.36" style="stroke:rgb(103,198,105);stroke-width:31.496063;fill:none;stroke-opacity:0.5;stroke-linecap:round;stroke-linejoin:round;;fill:none"/>
<polyline points="1167.38,1963.33 1219.68,1911.03 1219.68,1894.49 1221.15,1879.74 1221.83,1876.52 1226.49,1862.46 1234.72,1848.2 1244.57,1837.14 1247.02,1834.93 1257.67,1827.19 1260.52,1825.55 1274.09,1819.6 1290.19,1816.18 1306.66,1816.18 1322.76,1819.6 1337.8,1826.3 1351.11,1835.97 1362.13,1848.2 1370.36,1862.46 1375.44,1878.12 1377.08,1892.84 1377.17,1925.98 1375.7,1940.73 1375.02,1943.95 1370.95,1956.47 1369.61,1959.48 1362.13,1972.27 1352.28,1983.33 1349.83,1985.54 1337.8,1994.17 1322.76,2000.87 1306.66,2004.29 1290.15,2004.29 1283.65,2002.96 937.399,2349.21 930.287,2355.14 927.721,2356.86 920.913,2360.5 918.061,2361.68 909.177,2364.29 898.423,2365.35 159.555,2365.35 153.745,2371.68 141.145,2380.94 138.293,2382.58 125.511,2388.27 122.381,2389.29 107.067,2392.46 91.4312,2392.55 88.1552,2392.2 74.4692,2389.29 71.3392,2388.27 57.0872,2381.84 43.1052,2371.68 32.5772,2360.11 30.6412,2357.45 22.8972,2343.86 17.9832,2329.02 17.2972,2325.8 15.7492,2310.24 17.5552,2293.05 22.8972,2276.61 31.5392,2261.64 43.1052,2248.79 57.0872,2238.63 72.8772,2231.6 89.7832,2228.01 107.067,2228.01 122.381,2231.18 125.511,2232.2 138.293,2237.89 141.145,2239.53 153.745,2248.79 159.555,2255.12 875.593,2255.12 1135.35,1995.36 1138.81,1992.77 1150.99,1982.17 1162.03,1970.31 1167.4,1963.31 1170.36,1958.01 1175.44,1942.35 1177.08,1927.63 1177.08,1892.84 1175.44,1878.12 1170.95,1864 1169.61,1860.99 1162.13,1848.2 1152.28,1837.14 1149.83,1834.93 1137.79,1826.3 1122.76,1819.6 1108.28,1816.44 1105.01,1816.09 1090.19,1816.18 1074.09,1819.6 1059.05,1826.3 1045.74,1835.97 1034.72,1848.2 1027.24,1860.99 1025.9,1864 1021.41,1878.12 1019.68,1894.49 1019.77,1927.63 1021.41,1942.35 1025.9,1956.47 1027.24,1959.48 1034.72,1972.27 1045.74,1984.5 1059.05,1994.17 1074.09,2000.87 1090.19,2004.29 1106.66,2004.29 1122.76,2000.87 1135.35,1995.36" style="stroke:rgb(0,0,0);stroke-width:1px;fill:none;stroke-opacity:1;stroke-linecap:round;stroke-linejoin:round;;fill:none"/>
<polyline points="819.683,1925.98 821.405,1942.35 825.901,1956.47 827.239,1959.48 833.825,1970.88 835.759,1973.55 845.737,1984.5 857.671,1993.28 860.523,1994.92 874.091,2000.87 890.193,2004.29 906.655,2004.29 921.163,2001.3 924.295,2000.28 937.795,1994.17 951.111,1984.5 962.127,1972.27 969.609,1959.48 970.947,1956.47 975.443,1942.35 977.077,1927.63 977.165,1894.49 975.443,1878.12 970.357,1862.46 962.127,1848.2 951.111,1835.97 937.795,1826.3 924.295,1820.19 921.163,1819.17 908.283,1816.44 905.009,1816.09 890.193,1816.18 875.685,1819.17 872.553,1820.19 859.053,1826.3 845.737,1835.97 834.721,1848.2 826.491,1862.46 821.831,1876.52 821.147,1879.74 819.683,1894.49 819.683,1925.98" style="stroke:rgb(103,198,105);stroke-width:31.496063;fill:none;stroke-opacity:0.5;stroke-linecap:round;stroke-linejoin:round;;fill:none"/>
<polyline points="819.683,1925.98 821.405,1942.35 825.901,1956.47 827.239,1959.48 833.825,1970.88 835.759,1973.55 845.737,1984.5 857.671,1993.28 860.523,1994.92 874.091,2000.87 890.193,2004.29 906.655,2004.29 921.163,2001.3 924.295,2000.28 937.795,1994.17 951.111,1984.5 962.127,1972.27 969.609,1959.48 970.947,1956.47 975.443,1942.35 977.077,1927.63 977.165,1894.49 975.443,1878.12 970.357,1862.46 962.127,1848.2 951.111,1835.97 937.795,1826.3 924.295,1820.19 921.163,1819.17 908.283,1816.44 905.009,1816.09 890.193,1816.18 875.685,1819.17 872.553,1820.19 859.053,1826.3 845.737,1835.97 834.721,1848.2 826.491,1862.46 821.831,1876.52 821.147,1879.74 819.683,1894.49 819.683,1925.98" style="stroke:rgb(0,0,0);stroke-width:1px;fill:none;stroke-opacity:1;stroke-linecap:round;stroke-linejoin:round;;fill:none"/>
<polyline points="15.7492,2510.24 17.5552,2493.05 22.8972,2476.61 31.5392,2461.64 41.9392,2449.96 44.3852,2447.76 55.7052,2439.53 58.5572,2437.89 72.8772,2431.6 88.1552,2428.27 91.4312,2427.92 107.067,2428.01 122.381,2431.18 125.511,2432.2 138.293,2437.89 141.145,2439.53 153.745,2448.79 159.555,2455.12 1075.59,2455.12 1443.31,2087.4 1443.31,1981.93 1434.72,1972.27 1426.49,1958.01 1421.41,1942.35 1419.68,1925.98 1419.68,1894.49 1421.41,1878.12 1426.49,1862.46 1433.83,1849.59 1435.76,1846.92 1444.57,1837.14 1447.02,1834.93 1459.05,1826.3 1472.55,1820.19 1475.69,1819.17 1490.19,1816.18 1506.66,1816.18 1521.16,1819.17 1524.3,1820.19 1537.8,1826.3 1549.83,1834.93 1552.28,1837.14 1562.13,1848.2 1570.36,1862.46 1575.44,1878.12 1577.08,1892.84 1577.08,1927.63 1575.44,1942.35 1570.36,1958.01 1562.13,1972.27 1553.54,1981.93 1553.47,2111.78 1552.48,2120.99 1549.87,2129.87 1548.69,2132.72 1544.25,2140.85 1537.4,2149.21 1137.4,2549.21 1130.29,2555.14 1127.72,2556.86 1119.52,2561.16 1109.18,2564.29 1098.42,2565.35 159.555,2565.35 153.745,2571.68 141.145,2580.94 138.293,2582.58 125.511,2588.27 122.381,2589.29 107.067,2592.46 91.4312,2592.55 88.1552,2592.2 72.8772,2588.87 58.5572,2582.58 55.7052,2580.94 44.3852,2572.71 41.9392,2570.51 31.5392,2558.83 22.8972,2543.86 17.5552,2527.42 15.7492,2510.24" style="stroke:rgb(103,198,105);stroke-width:31.496063;fill:none;stroke-opacity:0.5;stroke-linecap:round;stroke-linejoin:round;;fill:none"/>
<polyline points="15.7492,2510.24 17.5552,2493.05 22.8972,2476.61 31.5392,2461.64 41.9392,2449.96 44.3852,2447.76 55.7052,2439.53 58.5572,2437.89 72.8772,2431.6 88.1552,2428.27 91.4312,2427.92 107.067,2428.01 122.381,2431.18 125.511,2432.2 138.293,2437.89 141.145,2439.53 153.745,2448.79 159.555,2455.12 1075.59,2455.12 1443.31,2087.4 1443.31,1981.93 1434.72,1972.27 1426.49,1958.01 1421.41,1942.35 1419.68,1925.98 1419.68,1894.49 1421.41,1878.12 1426.49,1862.46 1433.83,1849.59 1435.76,1846.92 1444.57,1837.14 1447.02,1834.93 1459.05,1826.3 1472.55,1820.19 1475.69,1819.17 1490.19,1816.18 1506.66,1816.18 1521.16,1819.17 1524.3,1820.19 1537.8,1826.3 1549.83,1834.93 1552.28,1837.14 1562.13,1848.2 1570.36,1862.46 1575.44,1878.12 1577.08,1892.84 1577.08,1927.63 1575.44,1942.35 1570.36,1958.01 1562.13,1972.27 1553.54,1981.93 1553.47,2111.78 1552.48,2120.99 1549.87,2129.87 1548.69,2132.72 1544.25,2140.85 1537.4,2149.21 1137.4,2549.21 1130.29,2555.14 1127.72,2556.86 1119.52,2561.16 1109.18,2564.29 1098.42,2565.35 159.555,2565.35 153.745,2571.68 141.145,2580.94 138.293,2582.58 125.511,2588.27 122.381,2589.29 107.067,2592.46 91.4312,2592.55 88.1552,2592.2 72.8772,2588.87 58.5572,2582.58 55.7052,2580.94 44.3852,2572.71 41.9392,2570.51 31.5392,2558.83 22.8972,2543.86 17.5552,2527.42 15.7492,2510.24" style="stroke:rgb(0,0,0);stroke-width:1px;fill:none;stroke-opacity:1;stroke-linecap:round;stroke-linejoin:round;;fill:none"/>
<polyline points="15.7492,2710.24 17.5552,2693.05 22.8972,2676.61 31.5392,2661.64 41.9392,2649.96 44.3852,2647.76 55.7052,2639.53 58.5572,2637.89 72.8772,2631.6 88.1552,2628.27 91.4312,2627.92 107.067,2628.01 122.381,2631.18 125.511,2632.2 138.293,2637.89 141.145,2639.53 153.745,2648.79 159.555,2655.12 1275.59,2655.12 1643.31,2287.4 1643.31,1981.93 1634.72,1972.27 1626.49,1958.01 1621.41,1942.35 1619.68,1925.98 1619.68,1894.49 1621.41,1878.12 1626.49,1862.46 1633.83,1849.59 1635.76,1846.92 1645.74,1835.97 1657.67,1827.19 1660.52,1825.55 1674.09,1819.6 1688.57,1816.44 1691.84,1816.09 1706.66,1816.18 1721.16,1819.17 1724.3,1820.19 1737.8,1826.3 1749.83,1834.93 1752.28,1837.14 1762.13,1848.2 1770.36,1862.46 1775.44,1878.12 1777.08,1892.84 1777.17,1925.98 1775.7,1940.73 1775.02,1943.95 1770.95,1956.47 1769.61,1959.48 1762.13,1972.27 1753.54,1981.93 1753.54,2310.23 1752.48,2320.99 1749.87,2329.87 1748.69,2332.72 1744.25,2340.86 1737.4,2349.21 1337.4,2749.21 1330.29,2755.14 1327.72,2756.86 1320.91,2760.5 1318.06,2761.68 1309.18,2764.29 1298.42,2765.35 159.555,2765.35 153.745,2771.68 141.145,2780.94 138.293,2782.58 125.511,2788.27 122.381,2789.29 107.067,2792.46 91.4312,2792.55 88.1552,2792.2 72.8772,2788.87 58.5572,2782.58 55.7052,2780.94 44.3852,2772.71 41.9392,2770.51 31.5392,2758.83 22.8972,2743.86 17.5552,2727.42 15.7492,2710.24" style="stroke:rgb(103,198,105);stroke-width:31.496063;fill:none;stroke-opacity:0.5;stroke-linecap:round;stroke-linejoin:round;;fill:none"/>
<polyline points="15.7492,2710.24 17.5552,2693.05 22.8972,2676.61 31.5392,2661.64 41.9392,2649.96 44.3852,2647.76 55.7052,2639.53 58.5572,2637.89 72.8772,2631.6 88.1552,2628.27 91.4312,2627.92 107.067,2628.01 122.381,2631.18 125.511,2632.2 138.293,2637.89 141.145,2639.53 153.745,2648.79 159.555,2655.12 1275.59,2655.12 1643.31,2287.4 1643.31,1981.93 1634.72,1972.27 1626.49,1958.01 1621.41,1942.35 1619.68,1925.98 1619.68,1894.49 1621.41,1878.12 1626.49,1862.46 1633.83,1849.59 1635.76,1846.92 1645.74,1835.97 1657.67,1827.19 1660.52,1825.55 1674.09,1819.6 1688.57,1816.44 1691.84,1816.09 1706.66,1816.18 1721.16,1819.17 1724.3,1820.19 1737.8,1826.3 1749.83,1834.93 1752.28,1837.14 1762.13,1848.2 1770.36,1862.46 1775.44,1878.12 1777.08,1892.84 1777.17,1925.98 1775.7,1940.73 1775.02,1943.95 1770.95,1956.47 1769.61,1959.48 1762.13,1972.27 1753.54,1981.93 1753.54,2310.23 1752.48,2320.99 1749.87,2329.87 1748.69,2332.72 1744.25,2340.86 1737.4,2349.21 1337.4,2749.21 1330.29,2755.14 1327.72,2756.86 1320.91,2760.5 1318.06,2761.68 1309.18,2764.29 1298.42,2765.35 159.555,2765.35 153.745,2771.68 141.145,2780.94 138.293,2782.58 125.511,2788.27 122.381,2789.29 107.067,2792.46 91.4312,2792.55 88.1552,2792.2 72.8772,2788.87 58.5572,2782.58 55.7052,2780.94 44.3852,2772.71 41.9392,2770.51 31.5392,2758.83 22.8972,2743.86 17.5552,2727.42 15.7492,2710.24" style="stroke:rgb(0,0,0);stroke-width:1px;fill:none;stroke-opacity:1;stroke-linecap:round;stroke-linejoin:round;;fill:none"/>
<polyline points="15.7492,2977.16 16.0512,2980.24 16.9472,2983.19 18.4032,2985.91 20.3612,2988.3 22.7472,2990.26 25.4712,2991.71 28.4252,2992.61 31.4972,2992.91 165.353,2992.91 168.425,2992.61 171.379,2991.71 174.103,2990.26 176.489,2988.3 178.447,2985.91 179.903,2983.19 180.799,2980.24 181.101,2977.16 181.101,2965.35 1498.43,2965.35 1507.65,2964.52 1510.68,2963.92 1519.52,2961.16 1527.72,2956.86 1530.29,2955.14 1537.4,2949.21 1937.4,2549.21 1944.25,2540.86 1948.69,2532.72 1949.87,2529.87 1952.48,2520.99 1953.54,2510.24 1953.54,1981.93 1962.13,1972.27 1969.61,1959.48 1970.95,1956.47 1975.02,1943.95 1975.7,1940.73 1977.17,1925.98 1977.08,1892.84 1975.44,1878.12 1970.95,1864 1969.61,1860.99 1962.13,1848.2 1952.28,1837.14 1949.83,1834.93 1937.8,1826.3 1922.76,1819.6 1908.28,1816.44 1905.01,1816.09 1890.19,1816.18 1874.09,1819.6 1860.52,1825.55 1857.67,1827.19 1845.74,1835.97 1834.72,1848.2 1827.24,1860.99 1825.9,1864 1821.41,1878.12 1819.68,1894.49 1819.68,1925.98 1821.41,1942.35 1825.9,1956.47 1827.24,1959.48 1834.72,1972.27 1843.31,1981.93 1843.31,2487.4 1475.59,2855.12 181.101,2855.12 181.101,2843.31 180.799,2840.23 179.903,2837.28 178.447,2834.56 176.489,2832.17 174.103,2830.21 171.379,2828.76 168.425,2827.86 165.353,2827.56 31.4972,2827.56 28.4252,2827.86 25.4712,2828.76 22.7472,2830.21 20.3612,2832.17 18.4032,2834.56 16.9472,2837.28 16.0512,2840.23 15.7492,2843.31 15.7492,2977.16" style="stroke:rgb(103,198,105);stroke-width:31.496063;fill:none;stroke-opacity:0.5;stroke-linecap:round;stroke-linejoin:round;;fill:none"/>
<polyline points="15.7492,2977.16 16.0512,2980.24 16.9472,2983.19 18.4032,2985.91 20.3612,2988.3 22.7472,2990.26 25.4712,2991.71 28.4252,2992.61 31.4972,2992.91 165.353,2992.91 168.425,2992.61 171.379,2991.71 174.103,2990.26 176.489,2988.3 178.447,2985.91 179.903,2983.19 180.799,2980.24 181.101,2977.16 181.101,2965.35 1498.43,2965.35 1507.65,2964.52 1510.68,2963.92 1519.52,2961.16 1527.72,2956.86 1530.29,2955.14 1537.4,2949.21 1937.4,2549.21 1944.25,2540.86 1948.69,2532.72 1949.87,2529.87 1952.48,2520.99 1953.54,2510.24 1953.54,1981.93 1962.13,1972.27 1969.61,1959.48 1970.95,1956.47 1975.02,1943.95 1975.7,1940.73 1977.17,1925.98 1977.08,1892.84 1975.44,1878.12 1970.95,1864 1969.61,1860.99 1962.13,1848.2 1952.28,1837.14 1949.83,1834.93 1937.8,1826.3 1922.76,1819.6 1908.28,1816.44 1905.01,1816.09 1890.19,1816.18 1874.09,1819.6 1860.52,1825.55 1857.67,1827.19 1845.74,1835.97 1834.72,1848.2 1827.24,1860.99 1825.9,1864 1821.41,1878.12 1819.68,1894.49 1819.68,1925.98 1821.41,1942.35 1825.9,1956.47 1827.24,1959.48 1834.72,1972.27 1843.31,1981.93 1843.31,2487.4 1475.59,2855.12 181.101,2855.12 181.101,2843.31 180.799,2840.23 179.903,2837.28 178.447,2834.56 176.489,2832.17 174.103,2830.21 171.379,2828.76 168.425,2827.86 165.353,2827.56 31.4972,2827.56 28.4252,2827.86 25.4712,2828.76 22.7472,2830.21 20.3612,2832.17 18.4032,2834.56 16.9472,2837.28 16.0512,2840.23 15.7492,2843.31 15.7492,2977.16" style="stroke:rgb(0,0,0);stroke-width:1px;fill:none;stroke-opacity:1;stroke-linecap:round;stroke-linejoin:round;;fill:none"/>
<g fill-rule="evenodd"><path d="M 31.4961,2977.17 L 31.4961,2843.31 L 165.354,2843.31 L 165.354,2870.87 L 1482.12,2870.87 L 1859.06,2493.93 L 1859.06,1974.82 L 1856.28,1972.8 L 1847.46,1963.01 L 1840.88,1951.61 L 1836.81,1939.08 L 1835.43,1925.98 L 1835.43,1894.49 L 1836.81,1881.39 L 1840.88,1868.87 L 1847.46,1857.46 L 1856.28,1847.68 L 1866.93,1839.94 L 1878.96,1834.58 L 1891.84,1831.84 L 1905.01,1831.84 L 1917.89,1834.58 L 1929.92,1839.94 L 1940.58,1847.68 L 1949.39,1857.46 L 1955.97,1868.87 L 1960.04,1881.39 L 1961.42,1894.49 L 1961.42,1925.98 L 1960.04,1939.08 L 1955.97,1951.61 L 1949.39,1963.01 L 1940.58,1972.8 L 1937.8,1974.82 L 1937.8,2510.24 L 1937.04,2517.92 L 1934.8,2525.3 L 1931.16,2532.11 L 1926.26,2538.08 L 1526.26,2938.08 L 1520.3,2942.97 L 1513.49,2946.61 L 1506.11,2948.85 L 1498.43,2949.61 L 165.354,2949.61 L 165.354,2977.17 L 31.4961,2977.17 z " style="fill-opacity:1.000000;fill:rgb(103,198,105);stroke:rgb(0,0,0);stroke-width:2"/></g>
<g fill-rule="evenodd"><path d="M 31.4961,2710.24 L 32.9586,2696.32 L 37.2824,2683.01 L 44.2784,2670.9 L 53.6409,2660.5 L 64.9606,2652.27 L 77.743,2646.58 L 91.4292,2643.67 L 105.421,2643.67 L 119.107,2646.58 L 131.89,2652.27 L 143.21,2660.5 L 152.545,2670.87 L 1282.12,2670.87 L 1659.06,2293.93 L 1659.06,1974.82 L 1656.28,1972.8 L 1647.46,1963.01 L 1640.88,1951.61 L 1636.81,1939.08 L 1635.43,1925.98 L 1635.43,1894.49 L 1636.81,1881.39 L 1640.88,1868.87 L 1647.46,1857.46 L 1656.28,1847.68 L 1666.93,1839.94 L 1678.96,1834.58 L 1691.84,1831.84 L 1705.01,1831.84 L 1717.89,1834.58 L 1729.92,1839.94 L 1740.58,1847.68 L 1749.39,1857.46 L 1755.97,1868.87 L 1760.04,1881.39 L 1761.42,1894.49 L 1761.42,1925.98 L 1760.04,1939.08 L 1755.97,1951.61 L 1749.39,1963.01 L 1740.58,1972.8 L 1737.8,1974.82 L 1737.8,2310.24 L 1737.04,2317.92 L 1734.8,2325.3 L 1731.16,2332.11 L 1726.26,2338.08 L 1326.26,2738.08 L 1320.3,2742.97 L 1313.49,2746.61 L 1306.11,2748.85 L 1298.43,2749.61 L 152.545,2749.61 L 143.21,2759.97 L 131.89,2768.2 L 119.107,2773.89 L 105.421,2776.8 L 91.4292,2776.8 L 77.743,2773.89 L 64.9606,2768.2 L 53.6409,2759.97 L 44.2784,2749.58 L 37.2824,2737.46 L 32.9586,2724.15 L 31.4961,2710.24 z " style="fill-opacity:1.000000;fill:rgb(115,81,255);stroke:rgb(0,0,0);stroke-width:2"/></g>
<g fill-rule="evenodd"><path d="M 31.4961,2510.24 L 32.9586,2496.32 L 37.2824,2483.01 L 44.2784,2470.9 L 53.6409,2460.5 L 64.9606,2452.27 L 77.743,2446.58 L 91.4292,2443.67 L 105.421,2443.67 L 119.107,2446.58 L 131.89,2452.27 L 143.21,2460.5 L 152.545,2470.87 L 1082.12,2470.87 L 1459.06,2093.93 L 1459.06,1974.82 L 1456.28,1972.8 L 1447.46,1963.01 L 1440.88,1951.61 L 1436.81,1939.08 L 1435.43,1925.98 L 1435.43,1894.49 L 1436.81,1881.39 L 1440.88,1868.87 L 1447.46,1857.46 L 1456.28,1847.68 L 1466.93,1839.94 L 1478.96,1834.58 L 1491.84,1831.84 L 1505.01,1831.84 L 1517.89,1834.58 L 1529.92,1839.94 L 1540.58,1847.68 L 1549.39,1857.46 L 1555.97,1868.87 L 1560.04,1881.39 L 1561.42,1894.49 L 1561.42,1925.98 L 1560.04,1939.08 L 1555.97,1951.61 L 1549.39,1963.01 L 1540.58,1972.8 L 1537.8,1974.82 L 1537.8,2110.24 L 1537.04,2117.92 L 1534.8,2125.3 L 1531.16,2132.11 L 1526.26,2138.08 L 1126.26,2538.08 L 1120.3,2542.97 L 1113.49,2546.61 L 1106.11,2548.85 L 1098.43,2549.61 L 152.545,2549.61 L 143.21,2559.97 L 131.89,2568.2 L 119.107,2573.89 L 105.421,2576.8 L 91.4292,2576.8 L 77.743,2573.89 L 64.9606,2568.2 L 53.6409,2559.97 L 44.2784,2549.58 L 37.2824,2537.46 L 32.9586,2524.15 L 31.4961,2510.24 z " style="fill-opacity:1.000000;fill:rgb(74,236,41);stroke:rgb(0,0,0);stroke-width:2"/></g>
<g fill-rule="evenodd"><path d="M 31.4961,2310.24 L 32.9586,2296.32 L 37.2824,2283.01 L 44.2784,2270.9 L 53.6409,2260.5 L 64.9606,2252.27 L 77.743,2246.58 L 91.4292,2243.67 L 105.421,2243.67 L 119.107,2246.58 L 131.89,2252.27 L 143.21,2260.5 L 152.545,2270.87 L 882.118,2270.87 L 1235.43,1917.55 L 1235.43,1894.49 L 1236.81,1881.39 L 1240.88,1868.87 L 1247.46,1857.46 L 1256.28,1847.68 L 1266.93,1839.94 L 1278.96,1834.58 L 1291.84,1831.84 L 1305.01,1831.84 L 1317.89,1834.58 L 1329.92,1839.94 L 1340.58,1847.68 L 1349.39,1857.46 L 1355.97,1868.87 L 1360.04,1881.39 L 1361.42,1894.49 L 1361.42,1925.98 L 1360.04,1939.08 L 1355.97,1951.61 L 1349.39,1963.01 L 1340.58,1972.8 L 1329.92,1980.54 L 1317.89,1985.89 L 1305.01,1988.63 L 1291.84,1988.63 L 1278.6,1985.74 L 926.264,2338.08 L 920.298,2342.97 L 913.491,2346.61 L 906.106,2348.85 L 898.425,2349.61 L 152.545,2349.61 L 143.21,2359.97 L 131.89,2368.2 L 119.107,2373.89 L 105.421,2376.8 L 91.4292,2376.8 L 77.743,2373.89 L 64.9606,2368.2 L 53.6409,2359.97 L 44.2784,2349.58 L 37.2824,2337.46 L 32.9586,2324.15 L 31.4961,2310.24 z " style="fill-opacity:1.000000;fill:rgb(205,186,171);stroke:rgb(0,0,0);stroke-width:2"/></g>
<g fill-rule="evenodd"><path d="M 835.433,1925.98 L 835.433,1894.49 L 836.81,1881.39 L 840.879,1868.87 L 847.463,1857.46 L 856.275,1847.68 L 866.929,1839.94 L 878.96,1834.58 L 891.841,1831.84 L 905.01,1831.84 L 917.891,1834.58 L 929.921,1839.94 L 940.575,1847.68 L 949.387,1857.46 L 955.971,1868.87 L 960.041,1881.39 L 961.417,1894.49 L 961.417,1925.98 L 960.041,1939.08 L 955.971,1951.61 L 949.387,1963.01 L 940.575,1972.8 L 929.921,1980.54 L 917.891,1985.89 L 905.01,1988.63 L 891.841,1988.63 L 878.96,1985.89 L 866.929,1980.54 L 856.275,1972.8 L 847.463,1963.01 L 840.879,1951.61 L 836.81,1939.08 L 835.433,1925.98 z " style="fill-opacity:1.000000;fill:rgb(242,251,227);stroke:rgb(0,0,0);stroke-width:2"/></g>
<g fill-rule="evenodd"><path d="M 835.433,125.984 L 835.433,94.4882 L 836.81,81.3914 L 840.879,68.867 L 847.463,57.4623 L 856.275,47.6759 L 866.929,39.9354 L 878.96,34.5791 L 891.841,31.8411 L 905.01,31.8411 L 917.891,34.5791 L 929.921,39.9354 L 940.575,47.6759 L 949.387,57.4623 L 955.971,68.867 L 960.041,81.3914 L 961.417,94.4882 L 961.417,125.984 L 960.041,139.081 L 955.971,151.605 L 949.387,163.01 L 940.575,172.797 L 929.921,180.537 L 917.891,185.893 L 905.01,188.631 L 891.841,188.631 L 878.96,185.893 L 866.929,180.537 L 856.275,172.797 L 847.463,163.01 L 840.879,151.605 L 836.81,139.081 L 835.433,125.984 z " style="fill-opacity:1.000000;fill:rgb(70,124,194);stroke:rgb(0,0,0);stroke-width:2"/></g>
<g fill-rule="evenodd"><path d="M 1035.43,1925.98 L 1035.43,1894.49 L 1036.81,1881.39 L 1040.88,1868.87 L 1047.46,1857.46 L 1056.28,1847.68 L 1066.93,1839.94 L 1078.96,1834.58 L 1091.84,1831.84 L 1105.01,1831.84 L 1117.89,1834.58 L 1129.92,1839.94 L 1140.58,1847.68 L 1149.39,1857.46 L 1155.97,1868.87 L 1160.04,1881.39 L 1161.42,1894.49 L 1161.42,1925.98 L 1160.04,1939.08 L 1155.97,1951.61 L 1149.39,1963.01 L 1140.58,1972.8 L 1129.92,1980.54 L 1117.89,1985.89 L 1105.01,1988.63 L 1091.84,1988.63 L 1078.96,1985.89 L 1066.93,1980.54 L 1056.28,1972.8 L 1047.46,1963.01 L 1040.88,1951.61 L 1036.81,1939.08 L 1035.43,1925.98 z " style="fill-opacity:1.000000;fill:rgb(84,248,27);stroke:rgb(0,0,0);stroke-width:2"/></g>
<g fill-rule="evenodd"><path d="M 1035.43,125.984 L 1035.43,94.4882 L 1036.81,81.3914 L 1040.88,68.867 L 1047.46,57.4623 L 1056.28,47.6759 L 1066.93,39.9354 L 1078.96,34.5791 L 1091.84,31.8411 L 1105.01,31.8411 L 1117.89,34.5791 L 1129.92,39.9354 L 1140.58,47.6759 L 1149.39,57.4623 L 1155.97,68.867 L 1160.04,81.3914 L 1161.42,94.4882 L 1161.42,125.984 L 1160.04,139.081 L 1155.97,151.605 L 1149.39,163.01 L 1140.58,172.797 L 1129.92,180.537 L 1117.89,185.893 L 1105.01,188.631 L 1091.84,188.631 L 1078.96,185.893 L 1066.93,180.537 L 1056.28,172.797 L 1047.46,163.01 L 1040.88,151.605 L 1036.81,139.081 L 1035.43,125.984 z " style="fill-opacity:1.000000;fill:rgb(232,231,141);stroke:rgb(0,0,0);stroke-width:2"/></g>
<g fill-rule="evenodd"><path d="M 1235.43,125.984 L 1235.43,94.4882 L 1236.81,81.3914 L 1240.88,68.867 L 1247.46,57.4623 L 1256.28,47.6759 L 1266.93,39.9354 L 1278.96,34.5791 L 1291.84,31.8411 L 1305.01,31.8411 L 1317.89,34.5791 L 1329.92,39.9354 L 1340.58,47.6759 L 1349.39,57.4623 L 1355.97,68.867 L 1360.04,81.3914 L 1361.42,94.4882 L 1361.42,125.984 L 1360.04,139.081 L 1355.97,151.605 L 1349.39,163.01 L 1340.58,172.797 L 1329.92,180.537 L 1317.89,185.893 L 1305.01,188.631 L 1291.84,188.631 L 1278.96,185.893 L 1266.93,180.537 L 1256.28,172.797 L 1247.46,163.01 L 1240.88,151.605 L 1236.81,139.081 L 1235.43,125.984 z " style="fill-opacity:1.000000;fill:rgb(118,90,46);stroke:rgb(0,0,0);stroke-width:2"/></g>
<g fill-rule="evenodd"><path d="M 1435.43,125.984 L 1435.43,94.4882 L 1436.81,81.3914 L 1440.88,68.867 L 1447.46,57.4623 L 1456.28,47.6759 L 1466.93,39.9354 L 1478.96,34.5791 L 1491.84,31.8411 L 1505.01,31.8411 L 1517.89,34.5791 L 1529.92,39.9354 L 1540.58,47.6759 L 1549.39,57.4623 L 1555.97,68.867 L 1560.04,81.3914 L 1561.42,94.4882 L 1561.42,125.984 L 1560.04,139.081 L 1555.97,151.605 L 1549.39,163.01 L 1540.58,172.797 L 1529.92,180.537 L 1517.89,185.893 L 1505.01,188.631 L 1491.84,188.631 L 1478.96,185.893 L 1466.93,180.537 L 1456.28,172.797 L 1447.46,163.01 L 1440.88,151.605 L 1436.81,139.081 L 1435.43,125.984 z " style="fill-opacity:1.000000;fill:rgb(99,51,159);stroke:rgb(0,0,0);stroke-width:2"/></g>
<g fill-rule="evenodd"><path d="M 1635.43,125.984 L 1635.43,94.4882 L 1636.81,81.3914 L 1640.88,68.867 L 1647.46,57.4623 L 1656.28,47.6759 L 1666.93,39.9354 L 1678.96,34.5791 L 1691.84,31.8411 L 1705.01,31.8411 L 1717.89,34.5791 L 1729.92,39.9354 L 1740.58,47.6759 L 1749.39,57.4623 L 1755.97,68.867 L 1760.04,81.3914 L 1761.42,94.4882 L 1761.42,125.984 L 1760.04,139.081 L 1755.97,151.605 L 1749.39,163.01 L 1740.58,172.797 L 1729.92,180.537 L 1717.89,185.893 L 1705.01,188.631 L 1691.84,188.631 L 1678.96,185.893 L 1666.93,180.537 L 1656.28,172.797 L 1647.46,163.01 L 1640.88,151.605 L 1636.81,139.081 L 1635.43,125.984 z " style="fill-opacity:1.000000;fill:rgb(201,154,102);stroke:rgb(0,0,0);stroke-width:2"/></g>
<g fill-rule="evenodd"><path d="M 1835.43,125.984 L 1835.43,94.4882 L 1836.81,81.3914 L 1840.88,68.867 L 1847.46,57.4623 L 1856.28,47.6759 L 1866.93,39.9354 L 1878.96,34.5791 L 1891.84,31.8411 L 1905.01,31.8411 L 1917.89,34.5791 L 1929.92,39.9354 L 1940.58,47.6759 L 1949.39,57.4623 L 1955.97,68.867 L 1960.04,81.3914 L 1961.42,94.4882 L 1961.42,125.984 L 1960.04,139.081 L 1955.97,151.605 L 1949.39,163.01 L 1940.58,172.797 L 1929.92,180.537 L 1917.89,185.893 L 1905.01,188.631 L 1891.84,188.631 L 1878.96,185.893 L 1866.93,180.537 L 1856.28,172.797 L 1847.46,163.01 L 1840.88,151.605 L 1836.81,139.081 L 1835.43,125.984 z " style="fill-opacity:1.000000;fill:rgb(50,13,183);stroke:rgb(0,0,0);stroke-width:2"/></g>
<g fill-rule="evenodd"><path d="M 2035.43,1925.98 L 2035.43,1894.49 L 2036.81,1881.39 L 2040.88,1868.87 L 2047.46,1857.46 L 2056.28,1847.68 L 2059.06,1845.66 L 2059.06,1710.24 L 2059.81,1702.56 L 2062.05,1695.17 L 2065.69,1688.36 L 2070.59,1682.4 L 2076.55,1677.5 L 2083.36,1673.86 L 2090.74,1671.62 L 2098.43,1670.87 L 2698.43,1670.87 L 2706.11,1671.62 L 2713.49,1673.86 L 2720.3,1677.5 L 2726.26,1682.4 L 3288.22,2244.36 L 3291.43,2243.67 L 3305.42,2243.67 L 3319.11,2246.58 L 3331.89,2252.27 L 3343.21,2260.5 L 3352.57,2270.9 L 3359.57,2283.01 L 3363.89,2296.32 L 3365.35,2310.24 L 3363.89,2324.15 L 3359.57,2337.46 L 3352.57,2349.58 L 3343.21,2359.97 L 3331.89,2368.2 L 3319.11,2373.89 L 3305.42,2376.8 L 3291.43,2376.8 L 3277.74,2373.89 L 3264.96,2368.2 L 3253.64,2359.97 L 3244.28,2349.58 L 3237.28,2337.46 L 3232.96,2324.15 L 3231.5,2310.24 L 3232.57,2300.06 L 2682.12,1749.61 L 2137.8,1749.61 L 2137.8,1845.66 L 2140.58,1847.68 L 2149.39,1857.46 L 2155.97,1868.87 L 2160.04,1881.39 L 2161.42,1894.49 L 2161.42,1925.98 L 2160.04,1939.08 L 2155.97,1951.61 L 2149.39,1963.01 L 2140.58,1972.8 L 2129.92,1980.54 L 2117.89,1985.89 L 2105.01,1988.63 L 2091.84,1988.63 L 2078.96,1985.89 L 2066.93,1980.54 L 2056.28,1972.8 L 2047.46,1963.01 L 2040.88,1951.61 L 2036.81,1939.08 L 2035.43,1925.98 z " style="fill-opacity:1.000000;fill:rgb(49,88,163);stroke:rgb(0,0,0);stroke-width:2"/></g>
<g fill-rule="evenodd"><path d="M 2035.43,125.984 L 2035.43,94.4882 L 2036.81,81.3914 L 2040.88,68.867 L 2047.46,57.4623 L 2056.28,47.6759 L 2066.93,39.9354 L 2078.96,34.5791 L 2091.84,31.8411 L 2105.01,31.8411 L 2117.89,34.5791 L 2129.92,39.9354 L 2140.58,47.6759 L 2149.39,57.4623 L 2155.97,68.867 L 2160.04,81.3914 L 2161.42,94.4882 L 2161.42,125.984 L 2160.04,139.081 L 2155.97,151.605 L 2149.39,163.01 L 2140.58,172.797 L 2129.92,180.537 L 2117.89,185.893 L 2105.01,188.631 L 2091.84,188.631 L 2078.96,185.893 L 2066.93,180.537 L 2056.28,172.797 L 2047.46,163.01 L 2040.88,151.605 L 2036.81,139.081 L 2035.43,125.984 z " style="fill-opacity:1.000000;fill:rgb(90,37,93);stroke:rgb(0,0,0);stroke-width:2"/></g>
<g fill-rule="evenodd"><path d="M 2219.69,1988.98 L 2219.69,1831.5 L 2377.17,1831.5 L 2377.17,1988.98 L 2337.8,1988.98 L 2337.8,2493.93 L 2714.73,2870.87 L 3231.5,2870.87 L 3231.5,2843.31 L 3365.35,2843.31 L 3365.35,2977.17 L 3231.5,2977.17 L 3231.5,2949.61 L 2698.43,2949.61 L 2690.74,2948.85 L 2683.36,2946.61 L 2676.55,2942.97 L 2670.59,2938.08 L 2270.59,2538.08 L 2265.69,2532.11 L 2262.05,2525.3 L 2259.81,2517.92 L 2259.06,2510.24 L 2259.06,1988.98 L 2219.69,1988.98 z " style="fill-opacity:1.000000;fill:rgb(5,23,88);stroke:rgb(0,0,0);stroke-width:2"/></g>
<g fill-rule="evenodd"><path d="M 2235.43,125.984 L 2235.43,94.4882 L 2236.81,81.3914 L 2240.88,68.867 L 2247.46,57.4623 L 2256.28,47.6759 L 2266.93,39.9354 L 2278.96,34.5791 L 2291.84,31.8411 L 2305.01,31.8411 L 2317.89,34.5791 L 2329.92,39.9354 L 2340.58,47.6759 L 2349.39,57.4623 L 2355.97,68.867 L 2360.04,81.3914 L 2361.42,94.4882 L 2361.42,125.984 L 2360.04,139.081 L 2355.97,151.605 L 2349.39,163.01 L 2340.58,172.797 L 2329.92,180.537 L 2317.89,185.893 L 2305.01,188.631 L 2291.84,188.631 L 2278.96,185.893 L 2266.93,180.537 L 2256.28,172.797 L 2247.46,163.01 L 2240.88,151.605 L 2236.81,139.081 L 2235.43,125.984 z " style="fill-opacity:1.000000;fill:rgb(233,94,212);stroke:rgb(0,0,0);stroke-width:2"/></g>
<g fill-rule="evenodd"><path d="M 3231.5,2710.24 L 3232.96,2696.32 L 3237.28,2683.01 L 3244.28,2670.9 L 3253.64,2660.5 L 3264.96,2652.27 L 3277.74,2646.58 L 3291.43,2643.67 L 3305.42,2643.67 L 3319.11,2646.58 L 3331.89,2652.27 L 3343.21,2660.5 L 3352.57,2670.9 L 3359.57,2683.01 L 3363.89,2696.32 L 3365.35,2710.24 L 3363.89,2724.15 L 3359.57,2737.46 L 3352.57,2749.58 L 3343.21,2759.97 L 3331.89,2768.2 L 3319.11,2773.89 L 3305.42,2776.8 L 3291.43,2776.8 L 3277.74,2773.89 L 3264.96,2768.2 L 3253.64,2759.97 L 3244.28,2749.58 L 3237.28,2737.46 L 3232.96,2724.15 L 3231.5,2710.24 z " style="fill-opacity:1.000000;fill:rgb(171,178,205);stroke:rgb(0,0,0);stroke-width:2"/></g>
<g fill-rule="evenodd"><path d="M 3231.5,2510.24 L 3232.96,2496.32 L 3237.28,2483.01 L 3244.28,2470.9 L 3253.64,2460.5 L 3264.96,2452.27 L 3277.74,2446.58 L 3291.43,2443.67 L 3305.42,2443.67 L 3319.11,2446.58 L 3331.89,2452.27 L 3343.21,2460.5 L 3352.57,2470.9 L 3359.57,2483.01 L 3363.89,2496.32 L 3365.35,2510.24 L 3363.89,2524.15 L 3359.57,2537.46 L 3352.57,2549.58 L 3343.21,2559.97 L 3331.89,2568.2 L 3319.11,2573.89 L 3305.42,2576.8 L 3291.43,2576.8 L 3277.74,2573.89 L 3264.96,2568.2 L 3253.64,2559.97 L 3244.28,2549.58 L 3237.28,2537.46 L 3232.96,2524.15 L 3231.5,2510.24 z " style="fill-opacity:1.000000;fill:rgb(198,155,180);stroke:rgb(0,0,0);stroke-width:2"/></g>
</svg>
