<?xml version="1.0" standalone="no"?>
<!DOCTYPE svg PUBLIC "-//W3C//DTD SVG 1.1//EN"
"http://www.w3.org/Graphics/SVG/1.1/DTD/svg11.dtd">
<svg width="163.049" height="144.416" viewBox="0 0 3396.85 3008.66" version="1.1"
xmlns="http://www.w3.org/2000/svg"
xmlns:xlink="http://www.w3.org/1999/xlink">
<polyline points="819.683,125.984 819.683,94.4882 821.147,79.7462 821.831,76.5262 826.491,62.4622 834.721,48.2062 845.737,35.9742 859.053,26.2982 872.553,20.1942 875.685,19.1762 888.565,16.4382 891.839,16.0942 906.655,16.1802 921.163,19.1762 924.295,20.1942 937.795,26.2982 951.111,35.9742 962.127,48.2062 970.357,62.4622 975.443,78.1182 977.165,94.4882 977.077,127.63 975.443,142.354 970.947,156.47 969.609,159.478 962.127,172.266 951.111,184.498 937.795,194.174 924.295,200.278 921.163,201.296 906.655,204.292 890.193,204.292 874.091,200.87 860.523,194.922 857.671,193.276 845.737,184.498 835.759,173.546 833.825,170.882 827.239,159.478 825.901,156.47 821.405,142.354 819.683,125.984" style="stroke:rgb(103,198,105);stroke-width:31.496063;fill:none;stroke-opacity:0.5;stroke-linecap:round;stroke-linejoin:round;;fill:none"/>
<polyline points="819.683,125.984 819.683,94.4882 821.147,79.7462 821.831,76.5262 826.491,62.4622 834.721,48.2062 845.737,35.9742 859.053,26.2982 872.553,20.1942 875.685,19.1762 888.565,16.4382 891.839,16.0942 906.655,16.1802 921.163,19.1762 924.295,20.1942 937.795,26.2982 951.111,35.9742 962.127,48.2062 970.357,62.4622 975.443,78.1182 977.165,94.4882 977.077,127.63 975.443,142.354 970.947,156.47 969.609,159.478 962.127,172.266 951.111,184.498 937.795,194.174 924.295,200.278 921.163,201.296 906.655,204.292 890.193,204.292 874.091,200.87 860.523,194.922 857.671,193.276 845.737,184.498 835.759,173.546 833.825,170.882 827.239,159.478 825.901,156.47 821.405,142.354 819.683,125.984" style="stroke:rgb(0,0,0);stroke-width:1px;fill:none;stroke-opacity:1;stroke-linecap:round;stroke-linejoin:round;;fill:none"/>
<polyline points="1019.68,125.984 1019.68,94.4882 1021.15,79.7462 1021.83,76.5262 1026.49,62.4622 1034.72,48.2062 1045.74,35.9742 1059.05,26.2982 1072.55,20.1942 1075.69,19.1762 1088.57,16.4382 1091.84,16.0942 1106.66,16.1802 1121.16,19.1762 1124.3,20.1942 1137.79,26.2982 1151.11,35.9742 1162.13,48.2062 1170.36,62.4622 1175.44,78.1182 1177.17,94.4882 1177.08,127.63 1175.44,142.354 1170.95,156.47 1169.61,159.478 1162.13,172.266 1151.11,184.498 1137.79,194.174 1124.3,200.278 1121.16,201.296 1106.66,204.292 1090.19,204.292 1074.09,200.87 1060.52,194.922 1057.67,193.276 1045.74,184.498 1035.76,173.546 1033.83,170.882 1027.24,159.478 1025.9,156.47 1021.41,142.354 1019.68,125.984" style="stroke:rgb(103,198,105);stroke-width:31.496063;fill:none;stroke-opacity:0.5;stroke-linecap:round;stroke-linejoin:round;;fill:none"/>
<polyline points="1019.68,125.984 1019.68,94.4882 1021.15,79.7462 1021.83,76.5262 1026.49,62.4622 1034.72,48.2062 1045.74,35.9742 1059.05,26.2982 1072.55,20.1942 1075.69,19.1762 1088.57,16.4382 1091.84,16.0942 1106.66,16.1802 1121.16,19.1762 1124.3,20.1942 1137.79,26.2982 1151.11,35.9742 1162.13,48.2062 1170.36,62.4622 1175.44,78.1182 1177.17,94.4882 1177.08,127.63 1175.44,142.354 1170.95,156.47 1169.61,159.478 1162.13,172.266 1151.11,184.498 1137.79,194.174 1124.3,200.278 1121.16,201.296 1106.66,204.292 1090.19,204.292 1074.09,200.87 1060.52,194.922 1057.67,193.276 1045.74,184.498 1035.76,173.546 1033.83,170.882 1027.24,159.478 1025.9,156.47 1021.41,142.354 1019.68,125.984" style="stroke:rgb(0,0,0);stroke-width:1px;fill:none;stroke-opacity:1;stroke-linecap:round;stroke-linejoin:round;;fill:none"/>
<polyline points="1219.68,125.984 1219.68,94.4882 1221.15,79.7462 1221.83,76.5262 1226.49,62.4622 1234.72,48.2062 1245.74,35.9742 1259.05,26.2982 1272.55,20.1942 1275.69,19.1762 1288.57,16.4382 1291.84,16.0942 1306.66,16.1802 1321.16,19.1762 1324.3,20.1942 1337.8,26.2982 1351.11,35.9742 1362.13,48.2062 1370.36,62.4622 1375.44,78.1182 1377.17,94.4882 1377.08,127.63 1375.44,142.354 1370.95,156.47 1369.61,159.478 1362.13,172.266 1351.11,184.498 1337.8,194.174 1324.3,200.278 1321.16,201.296 1306.66,204.292 1290.19,204.292 1274.09,200.87 1260.52,194.922 1257.67,193.276 1245.74,184.498 1235.76,173.546 1233.83,170.882 1227.24,159.478 1225.9,156.47 1221.41,142.354 1219.68,125.984" style="stroke:rgb(103,198,105);stroke-width:31.496063;fill:none;stroke-opacity:0.5;stroke-linecap:round;stroke-linejoin:round;;fill:none"/>
<polyline points="1219.68,125.984 1219.68,94.4882 1221.15,79.7462 1221.83,76.5262 1226.49,62.4622 1234.72,48.2062 1245.74,35.9742 1259.05,26.2982 1272.55,20.1942 1275.69,19.1762 1288.57,16.4382 1291.84,16.0942 1306.66,16.1802 1321.16,19.1762 1324.3,20.1942 1337.8,26.2982 1351.11,35.9742 1362.13,48.2062 1370.36,62.4622 1375.44,78.1182 1377.17,94.4882 1377.08,127.63 1375.44,142.354 1370.95,156.47 1369.61,159.478 1362.13,172.266 1351.11,184.498 1337.8,194.174 1324.3,200.278 1321.16,201.296 1306.66,204.292 1290.19,204.292 1274.09,200.87 1260.52,194.922 1257.67,193.276 1245.74,184.498 1235.76,173.546 1233.83,170.882 1227.24,159.478 1225.9,156.47 1221.41,142.354 1219.68,125.984" style="stroke:rgb(0,0,0);stroke-width:1px;fill:none;stroke-opacity:1;stroke-linecap:round;stroke-linejoin:round;;fill:none"/>
<polyline points="1419.68,125.984 1419.68,94.4882 1421.15,79.7462 1421.83,76.5262 1426.49,62.4622 1434.72,48.2062 1445.74,35.9742 1459.05,26.2982 1472.55,20.1942 1475.69,19.1762 1488.57,16.4382 1491.84,16.0942 1506.66,16.1802 1521.16,19.1762 1524.3,20.1942 1537.8,26.2982 1551.11,35.9742 1562.13,48.2062 1570.36,62.4622 1575.44,78.1182 1577.17,94.4882 1577.08,127.63 1575.44,142.354 1570.95,156.47 1569.61,159.478 1562.13,172.266 1551.11,184.498 1537.8,194.174 1524.3,200.278 1521.16,201.296 1506.66,204.292 1490.19,204.292 1474.09,200.87 1460.52,194.922 1457.67,193.276 1445.74,184.498 1435.76,173.546 1433.83,170.882 1427.24,159.478 1425.9,156.47 1421.41,142.354 1419.68,125.984" style="stroke:rgb(103,198,105);stroke-width:31.496063;fill:none;stroke-opacity:0.5;stroke-linecap:round;stroke-linejoin:round;;fill:none"/>
<polyline points="1419.68,125.984 1419.68,94.4882 1421.15,79.7462 1421.83,76.5262 1426.49,62.4622 1434.72,48.2062 1445.74,35.9742 1459.05,26.2982 1472.55,20.1942 1475.69,19.1762 1488.57,16.4382 1491.84,16.0942 1506.66,16.1802 1521.16,19.1762 1524.3,20.1942 1537.8,26.2982 1551.11,35.9742 1562.13,48.2062 1570.36,62.4622 1575.44,78.1182 1577.17,94.4882 1577.08,127.63 1575.44,142.354 1570.95,156.47 1569.61,159.478 1562.13,172.266 1551.11,184.498 1537.8,194.174 1524.3,200.278 1521.16,201.296 1506.66,204.292 1490.19,204.292 1474.09,200.87 1460.52,194.922 1457.67,193.276 1445.74,184.498 1435.76,173.546 1433.83,170.882 1427.24,159.478 1425.9,156.47 1421.41,142.354 1419.68,125.984" style="stroke:rgb(0,0,0);stroke-width:1px;fill:none;stroke-opacity:1;stroke-linecap:round;stroke-linejoin:round;;fill:none"/>
<polyline points="1619.68,125.984 1619.68,94.4882 1621.15,79.7462 1621.83,76.5262 1626.49,62.4622 1634.72,48.2062 1645.74,35.9742 1659.05,26.2982 1672.55,20.1942 1675.69,19.1762 1688.57,16.4382 1691.84,16.0942 1706.66,16.1802 1721.16,19.1762 1724.3,20.1942 1737.8,26.2982 1751.11,35.9742 1762.13,48.2062 1770.36,62.4622 1775.44,78.1182 1777.17,94.4882 1777.08,127.63 1775.44,142.354 1770.95,156.47 1769.61,159.478 1762.13,172.266 1751.11,184.498 1737.8,194.174 1724.3,200.278 1721.16,201.296 1706.66,204.292 1690.19,204.292 1674.09,200.87 1660.52,194.922 1657.67,193.276 1645.74,184.498 1635.76,173.546 1633.83,170.882 1627.24,159.478 1625.9,156.47 1621.41,142.354 1619.68,125.984" style="stroke:rgb(103,198,105);stroke-width:31.496063;fill:none;stroke-opacity:0.5;stroke-linecap:round;stroke-linejoin:round;;fill:none"/>
<polyline points="1619.68,125.984 1619.68,94.4882 1621.15,79.7462 1621.83,76.5262 1626.49,62.4622 1634.72,48.2062 1645.74,35.9742 1659.05,26.2982 1672.55,20.1942 1675.69,19.1762 1688.57,16.4382 1691.84,16.0942 1706.66,16.1802 1721.16,19.1762 1724.3,20.1942 1737.8,26.2982 1751.11,35.9742 1762.13,48.2062 1770.36,62.4622 1775.44,78.1182 1777.17,94.4882 1777.08,127.63 1775.44,142.354 1770.95,156.47 1769.61,159.478 1762.13,172.266 1751.11,184.498 1737.8,194.174 1724.3,200.278 1721.16,201.296 1706.66,204.292 1690.19,204.292 1674.09,200.87 1660.52,194.922 1657.67,193.276 1645.74,184.498 1635.76,173.546 1633.83,170.882 1627.24,159.478 1625.9,156.47 1621.41,142.354 1619.68,125.984" style="stroke:rgb(0,0,0);stroke-width:1px;fill:none;stroke-opacity:1;stroke-linecap:round;stroke-linejoin:round;;fill:none"/>
<polyline points="1819.68,125.984 1819.68,94.4882 1821.15,79.7462 1821.83,76.5262 1826.49,62.4622 1834.72,48.2062 1845.74,35.9742 1859.05,26.2982 1872.55,20.1942 1875.69,19.1762 1888.57,16.4382 1891.84,16.0942 1906.66,16.1802 1921.16,19.1762 1924.3,20.1942 1937.8,26.2982 1951.11,35.9742 1962.13,48.2062 1970.36,62.4622 1975.44,78.1182 1977.17,94.4882 1977.08,127.63 1975.44,142.354 1970.95,156.47 1969.61,159.478 1962.13,172.266 1951.11,184.498 1937.8,194.174 1924.3,200.278 1921.16,201.296 1906.66,204.292 1890.19,204.292 1874.09,200.87 1860.52,194.922 1857.67,193.276 1845.74,184.498 1835.76,173.546 1833.83,170.882 1827.24,159.478 1825.9,156.47 1821.41,142.354 1819.68,125.984" style="stroke:rgb(103,198,105);stroke-width:31.496063;fill:none;stroke-opacity:0.5;stroke-linecap:round;stroke-linejoin:round;;fill:none"/>
<polyline points="1819.68,125.984 1819.68,94.4882 1821.15,79.7462 1821.83,76.5262 1826.49,62.4622 1834.72,48.2062 1845.74,35.9742 1859.05,26.2982 1872.55,20.1942 1875.69,19.1762 1888.57,16.4382 1891.84,16.0942 1906.66,16.1802 1921.16,19.1762 1924.3,20.1942 1937.8,26.2982 1951.11,35.9742 1962.13,48.2062 1970.36,62.4622 1975.44,78.1182 1977.17,94.4882 1977.08,127.63 1975.44,142.354 1970.95,156.47 1969.61,159.478 1962.13,172.266 1951.11,184.498 1937.8,194.174 1924.3,200.278 1921.16,201.296 1906.66,204.292 1890.19,204.292 1874.09,200.87 1860.52,194.922 1857.67,193.276 1845.74,184.498 1835.76,173.546 1833.83,170.882 1827.24,159.478 1825.9,156.47 1821.41,142.354 1819.68,125.984" style="stroke:rgb(0,0,0);stroke-width:1px;fill:none;stroke-opacity:1;stroke-linecap:round;stroke-linejoin:round;;fill:none"/>
<polyline points="2019.68,125.984 2019.68,94.4882 2021.15,79.7462 2021.83,76.5262 2026.49,62.4622 2034.72,48.2062 2045.74,35.9742 2059.05,26.2982 2072.55,20.1942 2075.69,19.1762 2088.57,16.4382 2091.84,16.0942 2106.66,16.1802 2121.16,19.1762 2124.29,20.1942 2137.8,26.2982 2151.11,35.9742 2162.13,48.2062 2170.36,62.4622 2175.44,78.1182 2177.16,94.4882 2177.08,127.63 2175.44,142.354 2170.95,156.47 2169.61,159.478 2162.13,172.266 2151.11,184.498 2137.8,194.174 2124.29,200.278 2121.16,201.296 2106.66,204.292 2090.19,204.292 2074.09,200.87 2060.52,194.922 2057.67,193.276 2045.74,184.498 2035.76,173.546 2033.83,170.882 2027.24,159.478 2025.9,156.47 2021.41,142.354 2019.68,125.984" style="stroke:rgb(103,198,105);stroke-width:31.496063;fill:none;stroke-opacity:0.5;stroke-linecap:round;stroke-linejoin:round;;fill:none"/>
<polyline points="2019.68,125.984 2019.68,94.4882 2021.15,79.7462 2021.83,76.5262 2026.49,62.4622 2034.72,48.2062 2045.74,35.9742 2059.05,26.2982 2072.55,20.1942 2075.69,19.1762 2088.57,16.4382 2091.84,16.0942 2106.66,16.1802 2121.16,19.1762 2124.29,20.1942 2137.8,26.2982 2151.11,35.9742 2162.13,48.2062 2170.36,62.4622 2175.44,78.1182 2177.16,94.4882 2177.08,127.63 2175.44,142.354 2170.95,156.47 2169.61,159.478 2162.13,172.266 2151.11,184.498 2137.8,194.174 2124.29,200.278 2121.16,201.296 2106.66,204.292 2090.19,204.292 2074.09,200.87 2060.52,194.922 2057.67,193.276 2045.74,184.498 2035.76,173.546 2033.83,170.882 2027.24,159.478 2025.9,156.47 2021.41,142.354 2019.68,125.984" style="stroke:rgb(0,0,0);stroke-width:1px;fill:none;stroke-opacity:1;stroke-linecap:round;stroke-linejoin:round;;fill:none"/>
<polyline points="2219.68,125.984 2219.68,94.4882 2221.15,79.7462 2221.83,76.5262 2226.49,62.4622 2234.72,48.2062 2245.74,35.9742 2259.05,26.2982 2272.55,20.1942 2275.69,19.1762 2288.57,16.4382 2291.84,16.0942 2306.66,16.1802 2321.16,19.1762 2324.3,20.1942 2337.8,26.2982 2351.11,35.9742 2362.13,48.2062 2370.36,62.4622 2375.44,78.1182 2377.17,94.4882 2377.08,127.63 2375.44,142.354 2370.95,156.47 2369.61,159.478 2362.13,172.266 2351.11,184.498 2337.8,194.174 2324.3,200.278 2321.16,201.296 2306.66,204.292 2290.19,204.292 2274.09,200.87 2260.52,194.922 2257.67,193.276 2245.74,184.498 2235.76,173.546 2233.83,170.882 2227.24,159.478 2225.9,156.47 2221.41,142.354 2219.68,125.984" style="stroke:rgb(103,198,105);stroke-width:31.496063;fill:none;stroke-opacity:0.5;stroke-linecap:round;stroke-linejoin:round;;fill:none"/>
<polyline points="2219.68,125.984 2219.68,94.4882 2221.15,79.7462 2221.83,76.5262 2226.49,62.4622 2234.72,48.2062 2245.74,35.9742 2259.05,26.2982 2272.55,20.1942 2275.69,19.1762 2288.57,16.4382 2291.84,16.0942 2306.66,16.1802 2321.16,19.1762 2324.3,20.1942 2337.8,26.2982 2351.11,35.9742 2362.13,48.2062 2370.36,62.4622 2375.44,78.1182 2377.17,94.4882 2377.08,127.63 2375.44,142.354 2370.95,156.47 2369.61,159.478 2362.13,172.266 2351.11,184.498 2337.8,194.174 2324.3,200.278 2321.16,201.296 2306.66,204.292 2290.19,204.292 2274.09,200.87 2260.52,194.922 2257.67,193.276 2245.74,184.498 2235.76,173.546 2233.83,170.882 2227.24,159.478 2225.9,156.47 2221.41,142.354 2219.68,125.984" style="stroke:rgb(0,0,0);stroke-width:1px;fill:none;stroke-opacity:1;stroke-linecap:round;stroke-linejoin:round;;fill:none"/>
<polyline points="3215.75,2510.24 3217.55,2493.05 3222.9,2476.61 3231.54,2461.64 3241.94,2449.96 3244.38,2447.76 3255.7,2439.53 3258.56,2437.89 3272.88,2431.6 3288.15,2428.27 3291.43,2427.92 3307.07,2428.01 3323.97,2431.6 3339.76,2438.63 3353.75,2448.79 3365.31,2461.64 3373.95,2476.61 3379.3,2493.05 3381.1,2510.24 3379.3,2527.42 3373.95,2543.86 3365.31,2558.83 3354.91,2570.51 3352.47,2572.71 3341.15,2580.94 3338.29,2582.58 3323.97,2588.87 3308.7,2592.2 3305.42,2592.55 3289.78,2592.46 3272.88,2588.87 3257.09,2581.84 3243.1,2571.68 3231.54,2558.83 3222.9,2543.86 3217.55,2527.42 3215.75,2510.24" style="stroke:rgb(103,198,105);stroke-width:31.496063;fill:none;stroke-opacity:0.5;stroke-linecap:round;stroke-linejoin:round;;fill:none"/>
<polyline points="3215.75,2510.24 3217.55,2493.05 3222.9,2476.61 3231.54,2461.64 3241.94,2449.96 3244.38,2447.76 3255.7,2439.53 3258.56,2437.89 3272.88,2431.6 3288.15,2428.27 3291.43,2427.92 3307.07,2428.01 3323.97,2431.6 3339.76,2438.63 3353.75,2448.79 3365.31,2461.64 3373.95,2476.61 3379.3,2493.05 3381.1,2510.24 3379.3,2527.42 3373.95,2543.86 3365.31,2558.83 3354.91,2570.51 3352.47,2572.71 3341.15,2580.94 3338.29,2582.58 3323.97,2588.87 3308.7,2592.2 3305.42,2592.55 3289.78,2592.46 3272.88,2588.87 3257.09,2581.84 3243.1,2571.68 3231.54,2558.83 3222.9,2543.86 3217.55,2527.42 3215.75,2510.24" style="stroke:rgb(0,0,0);stroke-width:1px;fill:none;stroke-opacity:1;stroke-linecap:round;stroke-linejoin:round;;fill:none"/>
<polyline points="3215.75,2710.24 3217.55,2693.05 3222.9,2676.61 3231.54,2661.64 3241.94,2649.96 3244.38,2647.76 3255.7,2639.53 3258.56,2637.89 3272.88,2631.6 3288.15,2628.27 3291.43,2627.92 3307.07,2628.01 3323.97,2631.6 3339.76,2638.63 3353.75,2648.79 3365.31,2661.64 3373.95,2676.61 3379.3,2693.05 3381.1,2710.24 3379.3,2727.42 3373.95,2743.86 3365.31,2758.83 3354.91,2770.51 3352.47,2772.71 3341.15,2780.94 3338.29,2782.58 3323.97,2788.87 3308.7,2792.2 3305.42,2792.55 3289.78,2792.46 3272.88,2788.87 3257.09,2781.84 3243.1,2771.68 3231.54,2758.83 3222.9,2743.86 3217.55,2727.42 3215.75,2710.24" style="stroke:rgb(103,198,105);stroke-width:31.496063;fill:none;stroke-opacity:0.5;stroke-linecap:round;stroke-linejoin:round;;fill:none"/>
<polyline points="3215.75,2710.24 3217.55,2693.05 3222.9,2676.61 3231.54,2661.64 3241.94,2649.96 3244.38,2647.76 3255.7,2639.53 3258.56,2637.89 3272.88,2631.6 3288.15,2628.27 3291.43,2627.92 3307.07,2628.01 3323.97,2631.6 3339.76,2638.63 3353.75,2648.79 3365.31,2661.64 3373.95,2676.61 3379.3,2693.05 3381.1,2710.24 3379.3,2727.42 3373.95,2743.86 3365.31,2758.83 3354.91,2770.51 3352.47,2772.71 3341.15,2780.94 3338.29,2782.58 3323.97,2788.87 3308.7,2792.2 3305.42,2792.55 3289.78,2792.46 3272.88,2788.87 3257.09,2781.84 3243.1,2771.68 3231.54,2758.83 3222.9,2743.86 3217.55,2727.42 3215.75,2710.24" style="stroke:rgb(0,0,0);stroke-width:1px;fill:none;stroke-opacity:1;stroke-linecap:round;stroke-linejoin:round;;fill:none"/>
<polyline points="2203.94,1988.98 2204.24,1992.05 2205.14,1995 2206.59,1997.72 2208.55,2000.11 2210.94,2002.07 2213.66,2003.52 2216.61,2004.42 2219.68,2004.72 2243.31,2004.72 2243.31,2510.23 2244.37,2520.99 2246.98,2529.87 2248.16,2532.72 2251.8,2539.53 2253.52,2542.1 2259.45,2549.21 2660.6,2950.25 2666.56,2955.14 2669.13,2956.86 2675.94,2960.5 2678.79,2961.68 2687.67,2964.29 2698.42,2965.35 3215.75,2965.35 3215.75,2977.16 3216.05,2980.24 3216.95,2983.19 3218.4,2985.91 3220.36,2988.3 3222.75,2990.26 3225.47,2991.71 3228.42,2992.61 3231.5,2992.91 3365.35,2992.91 3368.43,2992.61 3371.38,2991.71 3374.1,2990.26 3376.49,2988.3 3378.45,2985.91 3379.9,2983.19 3380.8,2980.24 3381.1,2977.16 3381.1,2843.31 3380.8,2840.23 3379.9,2837.28 3378.45,2834.56 3376.49,2832.17 3374.1,2830.21 3371.38,2828.76 3368.43,2827.86 3365.35,2827.56 3231.5,2827.56 3228.42,2827.86 3225.47,2828.76 3222.75,2830.21 3220.36,2832.17 3218.4,2834.56 3216.95,2837.28 3216.05,2840.23 3215.75,2843.31 3215.75,2855.12 2721.26,2855.12 2353.54,2487.4 2353.54,2004.72 2377.17,2004.72 2380.24,2004.42 2383.19,2003.52 2385.91,2002.07 2388.3,2000.11 2390.26,1997.72 2391.71,1995 2392.61,1992.05 2392.91,1988.98 2392.91,1831.49 2392.61,1828.42 2391.71,1825.47 2390.26,1822.75 2388.3,1820.36 2385.91,1818.4 2383.19,1816.95 2380.24,1816.05 2377.17,1815.75 2219.68,1815.75 2216.61,1816.05 2213.66,1816.95 2210.94,1818.4 2208.55,1820.36 2206.59,1822.75 2205.14,1825.47 2204.24,1828.42 2203.94,1831.49 2203.94,1988.98" style="stroke:rgb(103,198,105);stroke-width:31.496063;fill:none;stroke-opacity:0.5;stroke-linecap:round;stroke-linejoin:round;;fill:none"/>
<polyline points="2203.94,1988.98 2204.24,1992.05 2205.14,1995 2206.59,1997.72 2208.55,2000.11 2210.94,2002.07 2213.66,2003.52 2216.61,2004.42 2219.68,2004.72 2243.31,2004.72 2243.31,2510.23 2244.37,2520.99 2246.98,2529.87 2248.16,2532.72 2251.8,2539.53 2253.52,2542.1 2259.45,2549.21 2660.6,2950.25 2666.56,2955.14 2669.13,2956.86 2675.94,2960.5 2678.79,2961.68 2687.67,2964.29 2698.42,2965.35 3215.75,2965.35 3215.75,2977.16 3216.05,2980.24 3216.95,2983.19 3218.4,2985.91 3220.36,2988.3 3222.75,2990.26 3225.47,2991.71 3228.42,2992.61 3231.5,2992.91 3365.35,2992.91 3368.43,2992.61 3371.38,2991.71 3374.1,2990.26 3376.49,2988.3 3378.45,2985.91 3379.9,2983.19 3380.8,2980.24 3381.1,2977.16 3381.1,2843.31 3380.8,2840.23 3379.9,2837.28 3378.45,2834.56 3376.49,2832.17 3374.1,2830.21 3371.38,2828.76 3368.43,2827.86 3365.35,2827.56 3231.5,2827.56 3228.42,2827.86 3225.47,2828.76 3222.75,2830.21 3220.36,2832.17 3218.4,2834.56 3216.95,2837.28 3216.05,2840.23 3215.75,2843.31 3215.75,2855.12 2721.26,2855.12 2353.54,2487.4 2353.54,2004.72 2377.17,2004.72 2380.24,2004.42 2383.19,2003.52 2385.91,2002.07 2388.3,2000.11 2390.26,1997.72 2391.71,1995 2392.61,1992.05 2392.91,1988.98 2392.91,1831.49 2392.61,1828.42 2391.71,1825.47 2390.26,1822.75 2388.3,1820.36 2385.91,1818.4 2383.19,1816.95 2380.24,1816.05 2377.17,1815.75 2219.68,1815.75 2216.61,1816.05 2213.66,1816.95 2210.94,1818.4 2208.55,1820.36 2206.59,1822.75 2205.14,1825.47 2204.24,1828.42 2203.94,1831.49 2203.94,1988.98" style="stroke:rgb(0,0,0);stroke-width:1px;fill:none;stroke-opacity:1;stroke-linecap:round;stroke-linejoin:round;;fill:none"/>
<polyline points="2019.68,1925.98 2021.15,1940.73 2021.83,1943.95 2026.49,1958.01 2034.72,1972.27 2044.57,1983.33 2047.02,1985.54 2059.05,1994.17 2074.09,2000.87 2088.57,2004.03 2091.84,2004.38 2106.66,2004.29 2122.76,2000.87 2136.33,1994.92 2139.18,1993.28 2151.11,1984.5 2161.09,1973.55 2163.02,1970.88 2170.36,1958.01 2175.44,1942.35 2177.16,1925.98 2177.16,1894.49 2175.44,1878.12 2170.36,1862.46 2162.13,1848.2 2153.54,1838.54 2153.54,1765.35 2675.59,1765.35 3216.12,2305.88 3215.83,2311.88 3217.55,2327.42 3222.9,2343.86 3231.54,2358.83 3241.94,2370.51 3244.38,2372.71 3255.7,2380.94 3258.56,2382.58 3272.88,2388.87 3288.15,2392.2 3291.43,2392.55 3307.07,2392.46 3323.97,2388.87 3339.76,2381.84 3352.47,2372.71 3354.91,2370.51 3365.31,2358.83 3373.21,2345.33 3374.55,2342.32 3378.87,2329.02 3379.55,2325.8 3381.1,2310.24 3379.55,2294.67 3378.87,2291.45 3374.55,2278.15 3373.21,2275.14 3365.31,2261.64 3354.91,2249.96 3352.47,2247.76 3339.76,2238.63 3323.97,2231.6 3307.07,2228.01 3294.06,2227.92 2737.4,1671.26 2730.29,1665.33 2727.72,1663.61 2720.91,1659.97 2718.06,1658.79 2710.68,1656.55 2707.65,1655.95 2698.43,1655.12 2098.43,1655.12 2087.67,1656.18 2077.33,1659.31 2069.13,1663.61 2066.56,1665.33 2060.6,1670.22 2058.41,1672.41 2053.52,1678.37 2051.8,1680.94 2048.16,1687.75 2046.98,1690.6 2044.74,1697.98 2044.14,1701.01 2043.31,1710.23 2043.31,1838.54 2034.72,1848.2 2027.24,1860.99 2025.9,1864 2021.83,1876.52 2021.15,1879.74 2019.68,1894.49 2019.68,1925.98" style="stroke:rgb(103,198,105);stroke-width:31.496063;fill:none;stroke-opacity:0.5;stroke-linecap:round;stroke-linejoin:round;;fill:none"/>
<polyline points="2019.68,1925.98 2021.15,1940.73 2021.83,1943.95 2026.49,1958.01 2034.72,1972.27 2044.57,1983.33 2047.02,1985.54 2059.05,1994.17 2074.09,2000.87 2088.57,2004.03 2091.84,2004.38 2106.66,2004.29 2122.76,2000.87 2136.33,1994.92 2139.18,1993.28 2151.11,1984.5 2161.09,1973.55 2163.02,1970.88 2170.36,1958.01 2175.44,1942.35 2177.16,1925.98 2177.16,1894.49 2175.44,1878.12 2170.36,1862.46 2162.13,1848.2 2153.54,1838.54 2153.54,1765.35 2675.59,1765.35 3216.12,2305.88 3215.83,2311.88 3217.55,2327.42 3222.9,2343.86 3231.54,2358.83 3241.94,2370.51 3244.38,2372.71 3255.7,2380.94 3258.56,2382.58 3272.88,2388.87 3288.15,2392.2 3291.43,2392.55 3307.07,2392.46 3323.97,2388.87 3339.76,2381.84 3352.47,2372.71 3354.91,2370.51 3365.31,2358.83 3373.21,2345.33 3374.55,2342.32 3378.87,2329.02 3379.55,2325.8 3381.1,2310.24 3379.55,2294.67 3378.87,2291.45 3374.55,2278.15 3373.21,2275.14 3365.31,2261.64 3354.91,2249.96 3352.47,2247.76 3339.76,2238.63 3323.97,2231.6 3307.07,2228.01 3294.06,2227.92 2737.4,1671.26 2730.29,1665.33 2727.72,1663.61 2720.91,1659.97 2718.06,1658.79 2710.68,1656.55 2707.65,1655.95 2698.43,1655.12 2098.43,1655.12 2087.67,1656.18 2077.33,1659.31 2069.13,1663.61 2066.56,1665.33 2060.6,1670.22 2058.41,1672.41 2053.52,1678.37 2051.8,1680.94 2048.16,1687.75 2046.98,1690.6 2044.74,1697.98 2044.14,1701.01 2043.31,1710.23 2043.31,1838.54 2034.72,1848.2 2027.24,1860.99 2025.9,1864 2021.83,1876.52 2021.15,1879.74 2019.68,1894.49 2019.68,1925.98" style="stroke:rgb(0,0,0);stroke-width:1px;fill:none;stroke-opacity:1;stroke-linecap:round;stroke-linejoin:round;;fill:none"/>
<polyline points="1167.38,1963.33 1219.68,1911.03 1219.68,1894.49 1221.15,1879.74 1221.83,1876.52 1226.49,1862.46 1234.72,1848.2 1244.57,1837.14 1247.02,1834.93 1257.67,1827.19 1260.52,1825.55 1274.09,1819.6 1290.19,1816.18 1306.66,1816.18 1322.76,1819.6 1337.8,1826.3 1351.11,1835.97 1362.13,1848.2 1370.36,1862.46 1375.44,1878.12 1377.08,1892.84 1377.17,1925.98 1375.7,1940.73 1375.02,1943.95 1370.95,1956.47 1369.61,1959.48 1362.13,1972.27 1352.28,1983.33 1349.83,1985.54 1337.8,1994.17 1322.76,2000.87 1306.66,2004.29 1290.15,2004.29 1283.65,2002.96 937.399,2349.21 930.287,2355.14 927.721,2356.86 920.913,2360.5 918.061,2361.68 909.177,2364.29 898.423,2365.35 159.555,2365.35 153.745,2371.68 141.145,2380.94 138.293,2382.58 125.511,2388.27 122.381,2389.29 107.067,2392.46 91.4312,2392.55 88.1552,2392.2 74.4692,2389.29 71.3392,2388.27 57.0872,2381.84 43.1052,2371.68 32.5772,2360.11 30.6412,2357.45 22.8972,2343.86 17.9832,2329.02 17.2972,2325.8 15.7492,2310.24 17.5552,2293.05 22.8972,2276.61 31.5392,2261.64 43.1052,2248.79 57.0872,2238.63 72.8772,2231.6 89.7832,2228.01 107.067,2228.01 122.381,2231.18 125.511,2232.2 138.293,2237.89 141.145,2239.53 153.745,2248.79 159.555,2255.12 875.593,2255.12 1135.35,1995.36 1138.81,1992.77 1150.99,1982.17 1162.03,1970.31 1167.4,1963.31 1170.36,1958.01 1175.44,1942.35 1177.08,1927.63 1177.08,1892.84 1175.44,1878.12 1170.95,1864 1169.61,1860.99 1162.13,1848.2 1152.28,1837.14 1149.83,1834.93 1137.79,1826.3 1122.76,1819.6 1108.28,1816.44 1105.01,1816.09 1090.19,1816.18 1074.09,1819.6 1059.05,1826.3 1045.74,1835.97 1034.72,1848.2 1027.24,1860.99 1025.9,1864 1021.41,1878.12 1019.68,1894.49 1019.77,1927.63 1021.41,1942.35 1025.9,1956.47 1027.24,1959.48 1034.72,1972.27 1045.74,1984.5 1059.05,1994.17 1074.09,2000.87 1090.19,2004.29 1106.66,2004.29 1122.76,2000.87 1135.35,1995.36" style="stroke:rgb(103,198,105);stroke-width:31.496063;fill:none;stroke-opacity:0.5;stroke-linecap:round;stroke-linejoin:round;;fill:none"/>
<polyline points="1167.38,1963.33 1219.68,1911.03 1219.68,1894.49 1221.15,1879.74 1221.83,1876.52 1226.49,1862.46 1234.72,1848.2 1244.57,1837.14 1247.02,1834.93 1257.67,1827.19 1260.52,1825.55 1274.09,1819.6 1290.19,1816.18 1306.66,1816.18 1322.76,1819.6 1337.8,1826.3 1351.11,1835.97 1362.13,1848.2 1370.36,1862.46 1375.44,1878.12 1377.08,1892.84 1377.17,1925.98 1375.7,1940.73 1375.02,1943.95 1370.95,1956.47 1369.61,1959.48 1362.13,1972.27 1352.28,1983.33 1349.83,1985.54 1337.8,1994.17 1322.76,2000.87 1306.66,2004.29 1290.15,2004.29 1283.65,2002.96 937.399,2349.21 930.287,2355.14 927.721,2356.86 920.913,2360.5 918.061,2361.68 909.177,2364.29 898.423,2365.35 159.555,2365.35 153.745,2371.68 141.145,2380.94 138.293,2382.58 125.511,2388.27 122.381,2389.29 107.067,2392.46 91.4312,2392.55 88.1552,2392.2 74.4692,2389.29 71.3392,2388.27 57.0872,2381.84 43.1052,2371.68 32.5772,2360.11 30.6412,2357.45 22.8972,2343.86 17.9832,2329.02 17.2972,2325.8 15.7492,2310.24 17.5552,2293.05 22.8972,2276.61 31.5392,2261.64 43.1052,2248.79 57.0872,2238.63 72.8772,2231.6 89.7832,2228.01 107.067,2228.01 122.381,2231.18 125.511,2232.2 138.293,2237.89 141.145,2239.53 153.745,2248.79 159.555,2255.12 875.593,2255.12 1135.35,1995.36 1138.81,1992.77 1150.99,1982.17 1162.03,1970.31 1167.4,1963.31 1170.36,1958.01 1175.44,1942.35 1177.08,1927.63 1177.08,1892.84 1175.44,1878.12 1170.95,1864 1169.61,1860.99 1162.13,1848.2 1152.28,1837.14 1149.83,1834.93 1137.79,1826.3 1122.76,1819.6 1108.28,1816.44 1105.01,1816.09 1090.19,1816.18 1074.09,1819.6 1059.05,1826.3 1045.74,1835.97 1034.72,1848.2 1027.24,1860.99 1025.9,1864 1021.41,1878.12 1019.68,1894.49 1019.77,1927.63 1021.41,1942.35 1025.9,1956.47 1027.24,1959.48 1034.72,1972.27 1045.74,1984.5 1059.05,1994.17 1074.09,2000.87 1090.19,2004.29 1106.66,2004.29 1122.76,2000.87 1135.35,1995.36" style="stroke:rgb(0,0,0);stroke-width:1px;fill:none;stroke-opacity:1;stroke-linecap:round;stroke-linejoin:round;;fill:none"/>
<polyline points="819.683,1925.98 821.405,1942.35 825.901,1956.47 827.239,1959.48 833.825,1970.88 835.759,1973.55 845.737,1984.5 857.671,1993.28 860.523,1994.92 874.091,2000.87 890.193,2004.29 906.655,2004.29 921.163,2001.3 924.295,2000.28 937.795,1994.17 951.111,1984.5 962.127,1972.27 969.609,1959.48 970.947,1956.47 975.443,1942.35 977.077,1927.63 977.165,1894.49 975.443,1878.12 970.357,1862.46 962.127,1848.2 951.111,1835.97 937.795,1826.3 924.295,1820.19 921.163,1819.17 908.283,1816.44 905.009,1816.09 890.193,1816.18 875.685,1819.17 872.553,1820.19 859.053,1826.3 845.737,1835.97 834.721,1848.2 826.491,1862.46 821.831,1876.52 821.147,1879.74 819.683,1894.49 819.683,1925.98" style="stroke:rgb(103,198,105);stroke-width:31.496063;fill:none;stroke-opacity:0.5;stroke-linecap:round;stroke-linejoin:round;;fill:none"/>
<polyline points="819.683,1925.98 821.405,1942.35 825.901,1956.47 827.239,1959.48 833.825,1970.88 835.759,1973.55 845.737,1984.5 857.671,1993.28 860.523,1994.92 874.091,2000.87 890.193,2004.29 906.655,2004.29 921.163,2001.3 924.295,2000.28 937.795,1994.17 951.111,1984.5 962.127,1972.27 969.609,1959.48 970.947,1956.47 975.443,1942.35 977.077,1927.63 977.165,1894.49 975.443,1878.12 970.357,1862.46 962.127,1848.2 951.111,1835.97 937.795,1826.3 924.295,1820.19 921.163,1819.17 908.283,1816.44 905.009,1816.09 890.193,1816.18 875.685,1819.17 872.553,1820.19 859.053,1826.3 845.737,1835.97 834.721,1848.2 826.491,1862.46 821.831,1876.52 821.147,1879.74 819.683,1894.49 819.683,1925.98" style="stroke:rgb(0,0,0);stroke-width:1px;fill:none;stroke-opacity:1;stroke-linecap:round;stroke-linejoin:round;;fill:none"/>
<polyline points="15.7492,2510.24 17.5552,2493.05 22.8972,2476.61 31.5392,2461.64 41.9392,2449.96 44.3852,2447.76 55.7052,2439.53 58.5572,2437.89 72.8772,2431.6 88.1552,2428.27 91.4312,2427.92 107.067,2428.01 122.381,2431.18 125.511,2432.2 138.293,2437.89 141.145,2439.53 153.745,2448.79 159.555,2455.12 1075.59,2455.12 1443.31,2087.4 1443.31,1981.93 1434.72,1972.27 1426.49,1958.01 1421.41,1942.35 1419.68,1925.98 1419.68,1894.49 1421.41,1878.12 1426.49,1862.46 1433.83,1849.59 1435.76,1846.92 1444.57,1837.14 1447.02,1834.93 1459.05,1826.3 1472.55,1820.19 1475.69,1819.17 1490.19,1816.18 1506.66,1816.18 1521.16,1819.17 1524.3,1820.19 1537.8,1826.3 1549.83,1834.93 1552.28,1837.14 1562.13,1848.2 1570.36,1862.46 1575.44,1878.12 1577.08,1892.84 1577.08,1927.63 1575.44,1942.35 1570.36,1958.01 1562.13,1972.27 1553.54,1981.93 1553.47,2111.78 1552.48,2120.99 1549.87,2129.87 1548.69,2132.72 1544.25,2140.85 1537.4,2149.21 1137.4,2549.21 1130.29,2555.14 1127.72,2556.86 1119.52,2561.16 1109.18,2564.29 1098.42,2565.35 159.555,2565.35 153.745,2571.68 141.145,2580.94 138.293,2582.58 125.511,2588.27 122.381,2589.29 107.067,2592.46 91.4312,2592.55 88.1552,2592.2 72.8772,2588.87 58.5572,2582.58 55.7052,2580.94 44.3852,2572.71 41.9392,2570.51 31.5392,2558.83 22.8972,2543.86 17.5552,2527.42 15.7492,2510.24" style="stroke:rgb(103,198,105);stroke-width:31.496063;fill:none;stroke-opacity:0.5;stroke-linecap:round;stroke-linejoin:round;;fill:none"/>
<polyline points="15.7492,2510.24 17.5552,2493.05 22.8972,2476.61 31.5392,2461.64 41.9392,2449.96 44.3852,2447.76 55.7052,2439.53 58.5572,2437.89 72.8772,2431.6 88.1552,2428.27 91.4312,2427.92 107.067,2428.01 122.381,2431.18 125.511,2432.2 138.293,2437.89 141.145,2439.53 153.745,2448.79 159.555,2455.12 1075.59,2455.12 1443.31,2087.4 1443.31,1981.93 1434.72,1972.27 1426.49,1958.01 1421.41,1942.35 1419.68,1925.98 1419.68,1894.49 1421.41,1878.12 1426.49,1862.46 1433.83,1849.59 1435.76,1846.92 1444.57,1837.14 1447.02,1834.93 1459.05,1826.3 1472.55,1820.19 1475.69,1819.17 1490.19,1816.18 1506.66,1816.18 1521.16,1819.17 1524.3,1820.19 1537.8,1826.3 1549.83,1834.93 1552.28,1837.14 1562.13,1848.2 1570.36,1862.46 1575.44,1878.12 1577.08,1892.84 1577.08,1927.63 1575.44,1942.35 1570.36,1958.01 1562.13,1972.27 1553.54,1981.93 1553.47,2111.78 1552.48,2120.99 1549.87,2129.87 1548.69,2132.72 1544.25,2140.85 1537.4,2149.21 1137.4,2549.21 1130.29,2555.14 1127.72,2556.86 1119.52,2561.16 1109.18,2564.29 1098.42,2565.35 159.555,2565.35 153.745,2571.68 141.145,2580.94 138.293,2582.58 125.511,2588.27 122.381,2589.29 107.067,2592.46 91.4312,2592.55 88.1552,2592.2 72.8772,2588.87 58.5572,2582.58 55.7052,2580.94 44.3852,2572.71 41.9392,2570.51 31.5392,2558.83 22.8972,2543.86 17.5552,2527.42 15.7492,2510.24" style="stroke:rgb(0,0,0);stroke-width:1px;fill:none;stroke-opacity:1;stroke-linecap:round;stroke-linejoin:round;;fill:none"/>
<polyline points="15.7492,2710.24 17.5552,2693.05 22.8972,2676.61 31.5392,2661.64 41.9392,2649.96 44.3852,2647.76 55.7052,2639.53 58.5572,2637.89 72.8772,2631.6 88.1552,2628.27 91.4312,2627.92 107.067,2628.01 122.381,2631.18 125.511,2632.2 138.293,2637.89 141.145,2639.53 153.745,2648.79 159.555,2655.12 1275.59,2655.12 1643.31,2287.4 1643.31,1981.93 1634.72,1972.27 1626.49,1958.01 1621.41,1942.35 1619.68,1925.98 1619.68,1894.49 1621.41,1878.12 1626.49,1862.46 1633.83,1849.59 1635.76,1846.92 1645.74,1835.97 1657.67,1827.19 1660.52,1825.55 1674.09,1819.6 1688.57,1816.44 1691.84,1816.09 1706.66,1816.18 1721.16,1819.17 1724.3,1820.19 1737.8,1826.3 1749.83,1834.93 1752.28,1837.14 1762.13,1848.2 1770.36,1862.46 1775.44,1878.12 1777.08,1892.84 1777.17,1925.98 1775.7,1940.73 1775.02,1943.95 1770.95,1956.47 1769.61,1959.48 1762.13,1972.27 1753.54,1981.93 1753.54,2310.23 1752.48,2320.99 1749.87,2329.87 1748.69,2332.72 1744.25,2340.86 1737.4,2349.21 1337.4,2749.21 1330.29,2755.14 1327.72,2756.86 1320.91,2760.5 1318.06,2761.68 1309.18,2764.29 1298.42,2765.35 159.555,2765.35 153.745,2771.68 141.145,2780.94 138.293,2782.58 125.511,2788.27 122.381,2789.29 107.067,2792.46 91.4312,2792.55 88.1552,2792.2 72.8772,2788.87 58.5572,2782.58 55.7052,2780.94 44.3852,2772.71 41.9392,2770.51 31.5392,2758.83 22.8972,2743.86 17.5552,2727.42 15.7492,2710.24" style="stroke:rgb(103,198,105);stroke-width:31.496063;fill:none;stroke-opacity:0.5;stroke-linecap:round;stroke-linejoin:round;;fill:none"/>
<polyline points="15.7492,2710.24 17.5552,2693.05 22.8972,2676.61 31.5392,2661.64 41.9392,2649.96 44.3852,2647.76 55.7052,2639.53 58.5572,2637.89 72.8772,2631.6 88.1552,2628.27 91.4312,2627.92 107.067,2628.01 122.381,2631.18 125.511,2632.2 138.293,2637.89 141.145,2639.53 153.745,2648.79 159.555,2655.12 1275.59,2655.12 1643.31,2287.4 1643.31,1981.93 1634.72,1972.27 1626.49,1958.01 1621.41,1942.35 1619.68,1925.98 1619.68,1894.49 1621.41,1878.12 1626.49,1862.46 1633.83,1849.59 1635.76,1846.92 1645.74,1835.97 1657.67,1827.19 1660.52,1825.55 1674.09,1819.6 1688.57,1816.44 1691.84,1816.09 1706.66,1816.18 1721.16,1819.17 1724.3,1820.19 1737.8,1826.3 1749.83,1834.93 1752.28,1837.14 1762.13,1848.2 1770.36,1862.46 1775.44,1878.12 1777.08,1892.84 1777.17,1925.98 1775.7,1940.73 1775.02,1943.95 1770.95,1956.47 1769.61,1959.48 1762.13,1972.27 1753.54,1981.93 1753.54,2310.23 1752.48,2320.99 1749.87,2329.87 1748.69,2332.72 1744.25,2340.86 1737.4,2349.21 1337.4,2749.21 1330.29,2755.14 1327.72,2756.86 1320.91,2760.5 1318.06,2761.68 1309.18,2764.29 1298.42,2765.35 159.555,2765.35 153.745,2771.68 141.145,2780.94 138.293,2782.58 125.511,2788.27 122.381,2789.29 107.067,2792.46 91.4312,2792.55 88.1552,2792.2 72.8772,2788.87 58.5572,2782.58 55.7052,2780.94 44.3852,2772.71 41.9392,2770.51 31.5392,2758.83 22.8972,2743.86 17.5552,2727.42 15.7492,2710.24" style="stroke:rgb(0,0,0);stroke-width:1px;fill:none;stroke-opacity:1;stroke-linecap:round;stroke-linejoin:round;;fill:none"/>
<polyline points="15.7492,2977.16 16.0512,2980.24 16.9472,2983.19 18.4032,2985.91 20.3612,2988.3 22.7472,2990.26 25.4712,2991.71 28.4252,2992.61 31.4972,2992.91 165.353,2992.91 168.425,2992.61 171.379,2991.71 174.103,2990.26 176.489,2988.3 178.447,2985.91 179.903,2983.19 180.799,2980.24 181.101,2977.16 181.101,2965.35 1498.43,2965.35 1507.65,2964.52 1510.68,2963.92 1519.52,2961.16 1527.72,2956.86 1530.29,2955.14 1537.4,2949.21 1937.4,2549.21 1944.25,2540.86 1948.69,2532.72 1949.87,2529.87 1952.48,2520.99 1953.54,2510.24 1953.54,1981.93 1962.13,1972.27 1969.61,1959.48 1970.95,1956.47 1975.02,1943.95 1975.7,1940.73 1977.17,1925.98 1977.08,1892.84 1975.44,1878.12 1970.95,1864 1969.61,1860.99 1962.13,1848.2 1952.28,1837.14 1949.83,1834.93 1937.8,1826.3 1922.76,1819.6 1908.28,1816.44 1905.01,1816.09 1890.19,1816.18 1874.09,1819.6 1860.52,1825.55 1857.67,1827.19 1845.74,1835.97 1834.72,1848.2 1827.24,1860.99 1825.9,1864 1821.41,1878.12 1819.68,1894.49 1819.68,1925.98 1821.41,1942.35 1825.9,1956.47 1827.24,1959.48 1834.72,1972.27 1843.31,1981.93 1843.31,2487.4 1475.59,2855.12 181.101,2855.12 181.101,2843.31 180.799,2840.23 179.903,2837.28 178.447,2834.56 176.489,2832.17 174.103,2830.21 171.379,2828.76 168.425,2827.86 165.353,2827.56 31.4972,2827.56 28.4252,2827.86 25.4712,2828.76 22.7472,2830.21 20.3612,2832.17 18.4032,2834.56 16.9472,2837.28 16.0512,2840.23 15.7492,2843.31 15.7492,2977.16" style="stroke:rgb(103,198,105);stroke-width:31.496063;fill:none;stroke-opacity:0.5;stroke-linecap:round;stroke-linejoin:round;;fill:none"/>
<polyline points="15.7492,2977.16 16.0512,2980.24 16.9472,2983.19 18.4032,2985.91 20.3612,2988.3 22.7472,2990.26 25.4712,2991.71 28.4252,2992.61 31.4972,2992.91 165.353,2992.91 168.425,2992.61 171.379,2991.71 174.103,2990.26 176.489,2988.3 178.447,2985.91 179.903,2983.19 180.799,2980.24 181.101,2977.16 181.101,2965.35 1498.43,2965.35 1507.65,2964.52 1510.68,2963.92 1519.52,2961.16 1527.72,2956.86 1530.29,2955.14 1537.4,2949.21 1937.4,2549.21 1944.25,2540.86 1948.69,2532.72 1949.87,2529.87 1952.48,2520.99 1953.54,2510.24 1953.54,1981.93 1962.13,1972.27 1969.61,1959.48 1970.95,1956.47 1975.02,1943.95 1975.7,1940.73 1977.17,1925.98 1977.08,1892.84 1975.44,1878.12 1970.95,1864 1969.61,1860.99 1962.13,1848.2 1952.28,1837.14 1949.83,1834.93 1937.8,1826.3 1922.76,1819.6 1908.28,1816.44 1905.01,1816.09 1890.19,1816.18 1874.09,1819.6 1860.52,1825.55 1857.67,1827.19 1845.74,1835.97 1834.72,1848.2 1827.24,1860.99 1825.9,1864 1821.41,1878.12 1819.68,1894.49 1819.68,1925.98 1821.41,1942.35 1825.9,1956.47 1827.24,1959.48 1834.72,1972.27 1843.31,1981.93 1843.31,2487.4 1475.59,2855.12 181.101,2855.12 181.101,2843.31 180.799,2840.23 179.903,2837.28 178.447,2834.56 176.489,2832.17 174.103,2830.21 171.379,2828.76 168.425,2827.86 165.353,2827.56 31.4972,2827.56 28.4252,2827.86 25.4712,2828.76 22.7472,2830.21 20.3612,2832.17 18.4032,2834.56 16.9472,2837.28 16.0512,2840.23 15.7492,2843.31 15.7492,2977.16" style="stroke:rgb(0,0,0);stroke-width:1px;fill:none;stroke-opacity:1;stroke-linecap:round;stroke-linejoin:round;;fill:none"/>
</svg>
