<?xml version="1.0" standalone="no"?>
<!DOCTYPE svg PUBLIC "-//W3C//DTD SVG 1.1//EN"
"http://www.w3.org/Graphics/SVG/1.1/DTD/svg11.dtd">
<svg width="163.049" height="144.416" viewBox="0 0 3396.85 3008.66" version="1.1"
xmlns="http://www.w3.org/2000/svg"
xmlns:xlink="http://www.w3.org/1999/xlink">
<polyline points="2219.68,125.984 2219.77,127.63 2221.15,140.726 2221.41,142.354 2221.83,143.946 2225.9,156.47 2226.49,158.01 2227.24,159.478 2233.83,170.882 2234.72,172.266 2235.76,173.546 2244.57,183.332 2245.74,184.498 2247.02,185.536 2257.67,193.276 2259.05,194.174 2260.52,194.922 2272.55,200.278 2274.09,200.87 2275.69,201.296 2288.57,204.034 2290.19,204.292 2291.84,204.378 2305.01,204.378 2306.66,204.292 2308.28,204.034 2321.16,201.296 2322.76,200.87 2324.3,200.278 2336.33,194.922 2337.8,194.174 2339.18,193.276 2349.83,185.536 2351.11,184.498 2352.28,183.332 2361.09,173.546 2362.13,172.266 2363.02,170.882 2369.61,159.478 2370.36,158.01 2370.95,156.47 2375.02,143.946 2375.44,142.354 2375.7,140.726 2377.08,127.63 2377.17,125.984 2377.17,94.4882 2377.08,92.8422 2375.7,79.7462 2375.44,78.1182 2375.02,76.5262 2370.95,64.0022 2370.36,62.4622 2369.61,60.9942 2363.02,49.5902 2362.13,48.2062 2361.09,46.9262 2352.28,37.1402 2351.11,35.9742 2349.83,34.9362 2339.18,27.1962 2337.8,26.2982 2336.33,25.5502 2324.3,20.1942 2322.76,19.6022 2321.16,19.1762 2308.28,16.4382 2306.66,16.1802 2305.01,16.0942 2291.84,16.0942 2290.19,16.1802 2288.57,16.4382 2275.69,19.1762 2274.09,19.6022 2272.55,20.1942 2260.52,25.5502 2259.05,26.2982 2257.67,27.1962 2247.02,34.9362 2245.74,35.9742 2244.57,37.1402 2235.76,46.9262 2234.72,48.2062 2233.83,49.5902 2227.24,60.9942 2226.49,62.4622 2225.9,64.0022 2221.83,76.5262 2221.41,78.1182 2221.15,79.7462 2219.77,92.8422 2219.68,94.4882 2219.68,125.984" style="stroke:rgb(103,198,105);stroke-width:31.496063;fill:none;stroke-opacity:0.5;stroke-linecap:round;stroke-linejoin:round;;fill:none"/>
<polyline points="2219.68,125.984 2219.77,127.63 2221.15,140.726 2221.41,142.354 2221.83,143.946 2225.9,156.47 2226.49,158.01 2227.24,159.478 2233.83,170.882 2234.72,172.266 2235.76,173.546 2244.57,183.332 2245.74,184.498 2247.02,185.536 2257.67,193.276 2259.05,194.174 2260.52,194.922 2272.55,200.278 2274.09,200.87 2275.69,201.296 2288.57,204.034 2290.19,204.292 2291.84,204.378 2305.01,204.378 2306.66,204.292 2308.28,204.034 2321.16,201.296 2322.76,200.87 2324.3,200.278 2336.33,194.922 2337.8,194.174 2339.18,193.276 2349.83,185.536 2351.11,184.498 2352.28,183.332 2361.09,173.546 2362.13,172.266 2363.02,170.882 2369.61,159.478 2370.36,158.01 2370.95,156.47 2375.02,143.946 2375.44,142.354 2375.7,140.726 2377.08,127.63 2377.17,125.984 2377.17,94.4882 2377.08,92.8422 2375.7,79.7462 2375.44,78.1182 2375.02,76.5262 2370.95,64.0022 2370.36,62.4622 2369.61,60.9942 2363.02,49.5902 2362.13,48.2062 2361.09,46.9262 2352.28,37.1402 2351.11,35.9742 2349.83,34.9362 2339.18,27.1962 2337.8,26.2982 2336.33,25.5502 2324.3,20.1942 2322.76,19.6022 2321.16,19.1762 2308.28,16.4382 2306.66,16.1802 2305.01,16.0942 2291.84,16.0942 2290.19,16.1802 2288.57,16.4382 2275.69,19.1762 2274.09,19.6022 2272.55,20.1942 2260.52,25.5502 2259.05,26.2982 2257.67,27.1962 2247.02,34.9362 2245.74,35.9742 2244.57,37.1402 2235.76,46.9262 2234.72,48.2062 2233.83,49.5902 2227.24,60.9942 2226.49,62.4622 2225.9,64.0022 2221.83,76.5262 2221.41,78.1182 2221.15,79.7462 2219.77,92.8422 2219.68,94.4882 2219.68,125.984" style="stroke:rgb(0,0,0);stroke-width:1px;fill:none;stroke-opacity:1;stroke-linecap:round;stroke-linejoin:round;;fill:none"/>
<polyline points="2019.68,125.984 2019.77,127.63 2021.15,140.726 2021.41,142.354 2021.83,143.946 2025.9,156.47 2026.49,158.01 2027.24,159.478 2033.83,170.882 2034.72,172.266 2035.76,173.546 2044.57,183.332 2045.74,184.498 2047.02,185.536 2057.67,193.276 2059.05,194.174 2060.52,194.922 2072.55,200.278 2074.09,200.87 2075.69,201.296 2088.57,204.034 2090.19,204.292 2091.84,204.378 2105.01,204.378 2106.66,204.292 2108.28,204.034 2121.16,201.296 2122.76,200.87 2124.3,200.278 2136.33,194.922 2137.8,194.174 2139.18,193.276 2149.83,185.536 2151.11,184.498 2152.28,183.332 2161.09,173.546 2162.13,172.266 2163.02,170.882 2169.61,159.478 2170.36,158.01 2170.95,156.47 2175.02,143.946 2175.44,142.354 2175.7,140.726 2177.08,127.63 2177.17,125.984 2177.17,94.4882 2177.08,92.8422 2175.7,79.7462 2175.44,78.1182 2175.02,76.5262 2170.95,64.0022 2170.36,62.4622 2169.61,60.9942 2163.02,49.5902 2162.13,48.2062 2161.09,46.9262 2152.28,37.1402 2151.11,35.9742 2149.83,34.9362 2139.18,27.1962 2137.8,26.2982 2136.33,25.5502 2124.3,20.1942 2122.76,19.6022 2121.16,19.1762 2108.28,16.4382 2106.66,16.1802 2105.01,16.0942 2091.84,16.0942 2090.19,16.1802 2088.57,16.4382 2075.69,19.1762 2074.09,19.6022 2072.55,20.1942 2060.52,25.5502 2059.05,26.2982 2057.67,27.1962 2047.02,34.9362 2045.74,35.9742 2044.57,37.1402 2035.76,46.9262 2034.72,48.2062 2033.83,49.5902 2027.24,60.9942 2026.49,62.4622 2025.9,64.0022 2021.83,76.5262 2021.41,78.1182 2021.15,79.7462 2019.77,92.8422 2019.68,94.4882 2019.68,125.984" style="stroke:rgb(115,81,255);stroke-width:31.496063;fill:none;stroke-opacity:0.5;stroke-linecap:round;stroke-linejoin:round;;fill:none"/>
<polyline points="2019.68,125.984 2019.77,127.63 2021.15,140.726 2021.41,142.354 2021.83,143.946 2025.9,156.47 2026.49,158.01 2027.24,159.478 2033.83,170.882 2034.72,172.266 2035.76,173.546 2044.57,183.332 2045.74,184.498 2047.02,185.536 2057.67,193.276 2059.05,194.174 2060.52,194.922 2072.55,200.278 2074.09,200.87 2075.69,201.296 2088.57,204.034 2090.19,204.292 2091.84,204.378 2105.01,204.378 2106.66,204.292 2108.28,204.034 2121.16,201.296 2122.76,200.87 2124.3,200.278 2136.33,194.922 2137.8,194.174 2139.18,193.276 2149.83,185.536 2151.11,184.498 2152.28,183.332 2161.09,173.546 2162.13,172.266 2163.02,170.882 2169.61,159.478 2170.36,158.01 2170.95,156.47 2175.02,143.946 2175.44,142.354 2175.7,140.726 2177.08,127.63 2177.17,125.984 2177.17,94.4882 2177.08,92.8422 2175.7,79.7462 2175.44,78.1182 2175.02,76.5262 2170.95,64.0022 2170.36,62.4622 2169.61,60.9942 2163.02,49.5902 2162.13,48.2062 2161.09,46.9262 2152.28,37.1402 2151.11,35.9742 2149.83,34.9362 2139.18,27.1962 2137.8,26.2982 2136.33,25.5502 2124.3,20.1942 2122.76,19.6022 2121.16,19.1762 2108.28,16.4382 2106.66,16.1802 2105.01,16.0942 2091.84,16.0942 2090.19,16.1802 2088.57,16.4382 2075.69,19.1762 2074.09,19.6022 2072.55,20.1942 2060.52,25.5502 2059.05,26.2982 2057.67,27.1962 2047.02,34.9362 2045.74,35.9742 2044.57,37.1402 2035.76,46.9262 2034.72,48.2062 2033.83,49.5902 2027.24,60.9942 2026.49,62.4622 2025.9,64.0022 2021.83,76.5262 2021.41,78.1182 2021.15,79.7462 2019.77,92.8422 2019.68,94.4882 2019.68,125.984" style="stroke:rgb(0,0,0);stroke-width:1px;fill:none;stroke-opacity:1;stroke-linecap:round;stroke-linejoin:round;;fill:none"/>
<polyline points="1819.68,125.984 1819.77,127.63 1821.15,140.726 1821.41,142.354 1821.83,143.946 1825.9,156.47 1826.49,158.01 1827.24,159.478 1833.83,170.882 1834.72,172.266 1835.76,173.546 1844.57,183.332 1845.74,184.498 1847.02,185.536 1857.67,193.276 1859.05,194.174 1860.52,194.922 1872.55,200.278 1874.09,200.87 1875.69,201.296 1888.57,204.034 1890.19,204.292 1891.84,204.378 1905.01,204.378 1906.66,204.292 1908.28,204.034 1921.16,201.296 1922.76,200.87 1924.3,200.278 1936.33,194.922 1937.8,194.174 1939.18,193.276 1949.83,185.536 1951.11,184.498 1952.28,183.332 1961.09,173.546 1962.13,172.266 1963.02,170.882 1969.61,159.478 1970.36,158.01 1970.95,156.47 1975.02,143.946 1975.44,142.354 1975.7,140.726 1977.08,127.63 1977.17,125.984 1977.17,94.4882 1977.08,92.8422 1975.7,79.7462 1975.44,78.1182 1975.02,76.5262 1970.95,64.0022 1970.36,62.4622 1969.61,60.9942 1963.02,49.5902 1962.13,48.2062 1961.09,46.9262 1952.28,37.1402 1951.11,35.9742 1949.83,34.9362 1939.18,27.1962 1937.8,26.2982 1936.33,25.5502 1924.3,20.1942 1922.76,19.6022 1921.16,19.1762 1908.28,16.4382 1906.66,16.1802 1905.01,16.0942 1891.84,16.0942 1890.19,16.1802 1888.57,16.4382 1875.69,19.1762 1874.09,19.6022 1872.55,20.1942 1860.52,25.5502 1859.05,26.2982 1857.67,27.1962 1847.02,34.9362 1845.74,35.9742 1844.57,37.1402 1835.76,46.9262 1834.72,48.2062 1833.83,49.5902 1827.24,60.9942 1826.49,62.4622 1825.9,64.0022 1821.83,76.5262 1821.41,78.1182 1821.15,79.7462 1819.77,92.8422 1819.68,94.4882 1819.68,125.984" style="stroke:rgb(74,236,41);stroke-width:31.496063;fill:none;stroke-opacity:0.5;stroke-linecap:round;stroke-linejoin:round;;fill:none"/>
<polyline points="1819.68,125.984 1819.77,127.63 1821.15,140.726 1821.41,142.354 1821.83,143.946 1825.9,156.47 1826.49,158.01 1827.24,159.478 1833.83,170.882 1834.72,172.266 1835.76,173.546 1844.57,183.332 1845.74,184.498 1847.02,185.536 1857.67,193.276 1859.05,194.174 1860.52,194.922 1872.55,200.278 1874.09,200.87 1875.69,201.296 1888.57,204.034 1890.19,204.292 1891.84,204.378 1905.01,204.378 1906.66,204.292 1908.28,204.034 1921.16,201.296 1922.76,200.87 1924.3,200.278 1936.33,194.922 1937.8,194.174 1939.18,193.276 1949.83,185.536 1951.11,184.498 1952.28,183.332 1961.09,173.546 1962.13,172.266 1963.02,170.882 1969.61,159.478 1970.36,158.01 1970.95,156.47 1975.02,143.946 1975.44,142.354 1975.7,140.726 1977.08,127.63 1977.17,125.984 1977.17,94.4882 1977.08,92.8422 1975.7,79.7462 1975.44,78.1182 1975.02,76.5262 1970.95,64.0022 1970.36,62.4622 1969.61,60.9942 1963.02,49.5902 1962.13,48.2062 1961.09,46.9262 1952.28,37.1402 1951.11,35.9742 1949.83,34.9362 1939.18,27.1962 1937.8,26.2982 1936.33,25.5502 1924.3,20.1942 1922.76,19.6022 1921.16,19.1762 1908.28,16.4382 1906.66,16.1802 1905.01,16.0942 1891.84,16.0942 1890.19,16.1802 1888.57,16.4382 1875.69,19.1762 1874.09,19.6022 1872.55,20.1942 1860.52,25.5502 1859.05,26.2982 1857.67,27.1962 1847.02,34.9362 1845.74,35.9742 1844.57,37.1402 1835.76,46.9262 1834.72,48.2062 1833.83,49.5902 1827.24,60.9942 1826.49,62.4622 1825.9,64.0022 1821.83,76.5262 1821.41,78.1182 1821.15,79.7462 1819.77,92.8422 1819.68,94.4882 1819.68,125.984" style="stroke:rgb(0,0,0);stroke-width:1px;fill:none;stroke-opacity:1;stroke-linecap:round;stroke-linejoin:round;;fill:none"/>
<polyline points="1619.68,125.984 1619.77,127.63 1621.15,140.726 1621.41,142.354 1621.83,143.946 1625.9,156.47 1626.49,158.01 1627.24,159.478 1633.83,170.882 1634.72,172.266 1635.76,173.546 1644.57,183.332 1645.74,184.498 1647.02,185.536 1657.67,193.276 1659.05,194.174 1660.52,194.922 1672.55,200.278 1674.09,200.87 1675.69,201.296 1688.57,204.034 1690.19,204.292 1691.84,204.378 1705.01,204.378 1706.66,204.292 1708.28,204.034 1721.16,201.296 1722.76,200.87 1724.3,200.278 1736.33,194.922 1737.8,194.174 1739.18,193.276 1749.83,185.536 1751.11,184.498 1752.28,183.332 1761.09,173.546 1762.13,172.266 1763.02,170.882 1769.61,159.478 1770.36,158.01 1770.95,156.47 1775.02,143.946 1775.44,142.354 1775.7,140.726 1777.08,127.63 1777.17,125.984 1777.17,94.4882 1777.08,92.8422 1775.7,79.7462 1775.44,78.1182 1775.02,76.5262 1770.95,64.0022 1770.36,62.4622 1769.61,60.9942 1763.02,49.5902 1762.13,48.2062 1761.09,46.9262 1752.28,37.1402 1751.11,35.9742 1749.83,34.9362 1739.18,27.1962 1737.8,26.2982 1736.33,25.5502 1724.3,20.1942 1722.76,19.6022 1721.16,19.1762 1708.28,16.4382 1706.66,16.1802 1705.01,16.0942 1691.84,16.0942 1690.19,16.1802 1688.57,16.4382 1675.69,19.1762 1674.09,19.6022 1672.55,20.1942 1660.52,25.5502 1659.05,26.2982 1657.67,27.1962 1647.02,34.9362 1645.74,35.9742 1644.57,37.1402 1635.76,46.9262 1634.72,48.2062 1633.83,49.5902 1627.24,60.9942 1626.49,62.4622 1625.9,64.0022 1621.83,76.5262 1621.41,78.1182 1621.15,79.7462 1619.77,92.8422 1619.68,94.4882 1619.68,125.984" style="stroke:rgb(205,186,171);stroke-width:31.496063;fill:none;stroke-opacity:0.5;stroke-linecap:round;stroke-linejoin:round;;fill:none"/>
<polyline points="1619.68,125.984 1619.77,127.63 1621.15,140.726 1621.41,142.354 1621.83,143.946 1625.9,156.47 1626.49,158.01 1627.24,159.478 1633.83,170.882 1634.72,172.266 1635.76,173.546 1644.57,183.332 1645.74,184.498 1647.02,185.536 1657.67,193.276 1659.05,194.174 1660.52,194.922 1672.55,200.278 1674.09,200.87 1675.69,201.296 1688.57,204.034 1690.19,204.292 1691.84,204.378 1705.01,204.378 1706.66,204.292 1708.28,204.034 1721.16,201.296 1722.76,200.87 1724.3,200.278 1736.33,194.922 1737.8,194.174 1739.18,193.276 1749.83,185.536 1751.11,184.498 1752.28,183.332 1761.09,173.546 1762.13,172.266 1763.02,170.882 1769.61,159.478 1770.36,158.01 1770.95,156.47 1775.02,143.946 1775.44,142.354 1775.7,140.726 1777.08,127.63 1777.17,125.984 1777.17,94.4882 1777.08,92.8422 1775.7,79.7462 1775.44,78.1182 1775.02,76.5262 1770.95,64.0022 1770.36,62.4622 1769.61,60.9942 1763.02,49.5902 1762.13,48.2062 1761.09,46.9262 1752.28,37.1402 1751.11,35.9742 1749.83,34.9362 1739.18,27.1962 1737.8,26.2982 1736.33,25.5502 1724.3,20.1942 1722.76,19.6022 1721.16,19.1762 1708.28,16.4382 1706.66,16.1802 1705.01,16.0942 1691.84,16.0942 1690.19,16.1802 1688.57,16.4382 1675.69,19.1762 1674.09,19.6022 1672.55,20.1942 1660.52,25.5502 1659.05,26.2982 1657.67,27.1962 1647.02,34.9362 1645.74,35.9742 1644.57,37.1402 1635.76,46.9262 1634.72,48.2062 1633.83,49.5902 1627.24,60.9942 1626.49,62.4622 1625.9,64.0022 1621.83,76.5262 1621.41,78.1182 1621.15,79.7462 1619.77,92.8422 1619.68,94.4882 1619.68,125.984" style="stroke:rgb(0,0,0);stroke-width:1px;fill:none;stroke-opacity:1;stroke-linecap:round;stroke-linejoin:round;;fill:none"/>
<polyline points="1419.68,125.984 1419.77,127.63 1421.15,140.726 1421.41,142.354 1421.83,143.946 1425.9,156.47 1426.49,158.01 1427.24,159.478 1433.83,170.882 1434.72,172.266 1435.76,173.546 1444.57,183.332 1445.74,184.498 1447.02,185.536 1457.67,193.276 1459.05,194.174 1460.52,194.922 1472.55,200.278 1474.09,200.87 1475.69,201.296 1488.57,204.034 1490.19,204.292 1491.84,204.378 1505.01,204.378 1506.66,204.292 1508.28,204.034 1521.16,201.296 1522.76,200.87 1524.3,200.278 1536.33,194.922 1537.8,194.174 1539.18,193.276 1549.83,185.536 1551.11,184.498 1552.28,183.332 1561.09,173.546 1562.13,172.266 1563.02,170.882 1569.61,159.478 1570.36,158.01 1570.95,156.47 1575.02,143.946 1575.44,142.354 1575.7,140.726 1577.08,127.63 1577.17,125.984 1577.17,94.4882 1577.08,92.8422 1575.7,79.7462 1575.44,78.1182 1575.02,76.5262 1570.95,64.0022 1570.36,62.4622 1569.61,60.9942 1563.02,49.5902 1562.13,48.2062 1561.09,46.9262 1552.28,37.1402 1551.11,35.9742 1549.83,34.9362 1539.18,27.1962 1537.8,26.2982 1536.33,25.5502 1524.3,20.1942 1522.76,19.6022 1521.16,19.1762 1508.28,16.4382 1506.66,16.1802 1505.01,16.0942 1491.84,16.0942 1490.19,16.1802 1488.57,16.4382 1475.69,19.1762 1474.09,19.6022 1472.55,20.1942 1460.52,25.5502 1459.05,26.2982 1457.67,27.1962 1447.02,34.9362 1445.74,35.9742 1444.57,37.1402 1435.76,46.9262 1434.72,48.2062 1433.83,49.5902 1427.24,60.9942 1426.49,62.4622 1425.9,64.0022 1421.83,76.5262 1421.41,78.1182 1421.15,79.7462 1419.77,92.8422 1419.68,94.4882 1419.68,125.984" style="stroke:rgb(242,251,227);stroke-width:31.496063;fill:none;stroke-opacity:0.5;stroke-linecap:round;stroke-linejoin:round;;fill:none"/>
<polyline points="1419.68,125.984 1419.77,127.63 1421.15,140.726 1421.41,142.354 1421.83,143.946 1425.9,156.47 1426.49,158.01 1427.24,159.478 1433.83,170.882 1434.72,172.266 1435.76,173.546 1444.57,183.332 1445.74,184.498 1447.02,185.536 1457.67,193.276 1459.05,194.174 1460.52,194.922 1472.55,200.278 1474.09,200.87 1475.69,201.296 1488.57,204.034 1490.19,204.292 1491.84,204.378 1505.01,204.378 1506.66,204.292 1508.28,204.034 1521.16,201.296 1522.76,200.87 1524.3,200.278 1536.33,194.922 1537.8,194.174 1539.18,193.276 1549.83,185.536 1551.11,184.498 1552.28,183.332 1561.09,173.546 1562.13,172.266 1563.02,170.882 1569.61,159.478 1570.36,158.01 1570.95,156.47 1575.02,143.946 1575.44,142.354 1575.7,140.726 1577.08,127.63 1577.17,125.984 1577.17,94.4882 1577.08,92.8422 1575.7,79.7462 1575.44,78.1182 1575.02,76.5262 1570.95,64.0022 1570.36,62.4622 1569.61,60.9942 1563.02,49.5902 1562.13,48.2062 1561.09,46.9262 1552.28,37.1402 1551.11,35.9742 1549.83,34.9362 1539.18,27.1962 1537.8,26.2982 1536.33,25.5502 1524.3,20.1942 1522.76,19.6022 1521.16,19.1762 1508.28,16.4382 1506.66,16.1802 1505.01,16.0942 1491.84,16.0942 1490.19,16.1802 1488.57,16.4382 1475.69,19.1762 1474.09,19.6022 1472.55,20.1942 1460.52,25.5502 1459.05,26.2982 1457.67,27.1962 1447.02,34.9362 1445.74,35.9742 1444.57,37.1402 1435.76,46.9262 1434.72,48.2062 1433.83,49.5902 1427.24,60.9942 1426.49,62.4622 1425.9,64.0022 1421.83,76.5262 1421.41,78.1182 1421.15,79.7462 1419.77,92.8422 1419.68,94.4882 1419.68,125.984" style="stroke:rgb(0,0,0);stroke-width:1px;fill:none;stroke-opacity:1;stroke-linecap:round;stroke-linejoin:round;;fill:none"/>
<polyline points="1219.68,125.984 1219.77,127.63 1221.15,140.726 1221.41,142.354 1221.83,143.946 1225.9,156.47 1226.49,158.01 1227.24,159.478 1233.83,170.882 1234.72,172.266 1235.76,173.546 1244.57,183.332 1245.74,184.498 1247.02,185.536 1257.67,193.276 1259.05,194.174 1260.52,194.922 1272.55,200.278 1274.09,200.87 1275.69,201.296 1288.57,204.034 1290.19,204.292 1291.84,204.378 1305.01,204.378 1306.66,204.292 1308.28,204.034 1321.16,201.296 1322.76,200.87 1324.3,200.278 1336.33,194.922 1337.8,194.174 1339.18,193.276 1349.83,185.536 1351.11,184.498 1352.28,183.332 1361.09,173.546 1362.13,172.266 1363.02,170.882 1369.61,159.478 1370.36,158.01 1370.95,156.47 1375.02,143.946 1375.44,142.354 1375.7,140.726 1377.08,127.63 1377.17,125.984 1377.17,94.4882 1377.08,92.8422 1375.7,79.7462 1375.44,78.1182 1375.02,76.5262 1370.95,64.0022 1370.36,62.4622 1369.61,60.9942 1363.02,49.5902 1362.13,48.2062 1361.09,46.9262 1352.28,37.1402 1351.11,35.9742 1349.83,34.9362 1339.18,27.1962 1337.8,26.2982 1336.33,25.5502 1324.3,20.1942 1322.76,19.6022 1321.16,19.1762 1308.28,16.4382 1306.66,16.1802 1305.01,16.0942 1291.84,16.0942 1290.19,16.1802 1288.57,16.4382 1275.69,19.1762 1274.09,19.6022 1272.55,20.1942 1260.52,25.5502 1259.05,26.2982 1257.67,27.1962 1247.02,34.9362 1245.74,35.9742 1244.57,37.1402 1235.76,46.9262 1234.72,48.2062 1233.83,49.5902 1227.24,60.9942 1226.49,62.4622 1225.9,64.0022 1221.83,76.5262 1221.41,78.1182 1221.15,79.7462 1219.77,92.8422 1219.68,94.4882 1219.68,125.984" style="stroke:rgb(70,124,194);stroke-width:31.496063;fill:none;stroke-opacity:0.5;stroke-linecap:round;stroke-linejoin:round;;fill:none"/>
<polyline points="1219.68,125.984 1219.77,127.63 1221.15,140.726 1221.41,142.354 1221.83,143.946 1225.9,156.47 1226.49,158.01 1227.24,159.478 1233.83,170.882 1234.72,172.266 1235.76,173.546 1244.57,183.332 1245.74,184.498 1247.02,185.536 1257.67,193.276 1259.05,194.174 1260.52,194.922 1272.55,200.278 1274.09,200.87 1275.69,201.296 1288.57,204.034 1290.19,204.292 1291.84,204.378 1305.01,204.378 1306.66,204.292 1308.28,204.034 1321.16,201.296 1322.76,200.87 1324.3,200.278 1336.33,194.922 1337.8,194.174 1339.18,193.276 1349.83,185.536 1351.11,184.498 1352.28,183.332 1361.09,173.546 1362.13,172.266 1363.02,170.882 1369.61,159.478 1370.36,158.01 1370.95,156.47 1375.02,143.946 1375.44,142.354 1375.7,140.726 1377.08,127.63 1377.17,125.984 1377.17,94.4882 1377.08,92.8422 1375.7,79.7462 1375.44,78.1182 1375.02,76.5262 1370.95,64.0022 1370.36,62.4622 1369.61,60.9942 1363.02,49.5902 1362.13,48.2062 1361.09,46.9262 1352.28,37.1402 1351.11,35.9742 1349.83,34.9362 1339.18,27.1962 1337.8,26.2982 1336.33,25.5502 1324.3,20.1942 1322.76,19.6022 1321.16,19.1762 1308.28,16.4382 1306.66,16.1802 1305.01,16.0942 1291.84,16.0942 1290.19,16.1802 1288.57,16.4382 1275.69,19.1762 1274.09,19.6022 1272.55,20.1942 1260.52,25.5502 1259.05,26.2982 1257.67,27.1962 1247.02,34.9362 1245.74,35.9742 1244.57,37.1402 1235.76,46.9262 1234.72,48.2062 1233.83,49.5902 1227.24,60.9942 1226.49,62.4622 1225.9,64.0022 1221.83,76.5262 1221.41,78.1182 1221.15,79.7462 1219.77,92.8422 1219.68,94.4882 1219.68,125.984" style="stroke:rgb(0,0,0);stroke-width:1px;fill:none;stroke-opacity:1;stroke-linecap:round;stroke-linejoin:round;;fill:none"/>
<polyline points="1019.68,125.984 1019.77,127.63 1021.15,140.726 1021.41,142.354 1021.83,143.946 1025.9,156.47 1026.49,158.01 1027.24,159.478 1033.83,170.882 1034.72,172.266 1035.76,173.546 1044.57,183.332 1045.74,184.498 1047.02,185.536 1057.67,193.276 1059.05,194.174 1060.52,194.922 1072.55,200.278 1074.09,200.87 1075.69,201.296 1088.57,204.034 1090.19,204.292 1091.84,204.378 1105.01,204.378 1106.66,204.292 1108.28,204.034 1121.16,201.296 1122.76,200.87 1124.3,200.278 1136.33,194.922 1137.8,194.174 1139.18,193.276 1149.83,185.536 1151.11,184.498 1152.28,183.332 1161.09,173.546 1162.13,172.266 1163.02,170.882 1169.61,159.478 1170.36,158.01 1170.95,156.47 1175.02,143.946 1175.44,142.354 1175.7,140.726 1177.08,127.63 1177.17,125.984 1177.17,94.4882 1177.08,92.8422 1175.7,79.7462 1175.44,78.1182 1175.02,76.5262 1170.95,64.0022 1170.36,62.4622 1169.61,60.9942 1163.02,49.5902 1162.13,48.2062 1161.09,46.9262 1152.28,37.1402 1151.11,35.9742 1149.83,34.9362 1139.18,27.1962 1137.8,26.2982 1136.33,25.5502 1124.3,20.1942 1122.76,19.6022 1121.16,19.1762 1108.28,16.4382 1106.66,16.1802 1105.01,16.0942 1091.84,16.0942 1090.19,16.1802 1088.57,16.4382 1075.69,19.1762 1074.09,19.6022 1072.55,20.1942 1060.52,25.5502 1059.05,26.2982 1057.67,27.1962 1047.02,34.9362 1045.74,35.9742 1044.57,37.1402 1035.76,46.9262 1034.72,48.2062 1033.83,49.5902 1027.24,60.9942 1026.49,62.4622 1025.9,64.0022 1021.83,76.5262 1021.41,78.1182 1021.15,79.7462 1019.77,92.8422 1019.68,94.4882 1019.68,125.984" style="stroke:rgb(84,248,27);stroke-width:31.496063;fill:none;stroke-opacity:0.5;stroke-linecap:round;stroke-linejoin:round;;fill:none"/>
<polyline points="1019.68,125.984 1019.77,127.63 1021.15,140.726 1021.41,142.354 1021.83,143.946 1025.9,156.47 1026.49,158.01 1027.24,159.478 1033.83,170.882 1034.72,172.266 1035.76,173.546 1044.57,183.332 1045.74,184.498 1047.02,185.536 1057.67,193.276 1059.05,194.174 1060.52,194.922 1072.55,200.278 1074.09,200.87 1075.69,201.296 1088.57,204.034 1090.19,204.292 1091.84,204.378 1105.01,204.378 1106.66,204.292 1108.28,204.034 1121.16,201.296 1122.76,200.87 1124.3,200.278 1136.33,194.922 1137.8,194.174 1139.18,193.276 1149.83,185.536 1151.11,184.498 1152.28,183.332 1161.09,173.546 1162.13,172.266 1163.02,170.882 1169.61,159.478 1170.36,158.01 1170.95,156.47 1175.02,143.946 1175.44,142.354 1175.7,140.726 1177.08,127.63 1177.17,125.984 1177.17,94.4882 1177.08,92.8422 1175.7,79.7462 1175.44,78.1182 1175.02,76.5262 1170.95,64.0022 1170.36,62.4622 1169.61,60.9942 1163.02,49.5902 1162.13,48.2062 1161.09,46.9262 1152.28,37.1402 1151.11,35.9742 1149.83,34.9362 1139.18,27.1962 1137.8,26.2982 1136.33,25.5502 1124.3,20.1942 1122.76,19.6022 1121.16,19.1762 1108.28,16.4382 1106.66,16.1802 1105.01,16.0942 1091.84,16.0942 1090.19,16.1802 1088.57,16.4382 1075.69,19.1762 1074.09,19.6022 1072.55,20.1942 1060.52,25.5502 1059.05,26.2982 1057.67,27.1962 1047.02,34.9362 1045.74,35.9742 1044.57,37.1402 1035.76,46.9262 1034.72,48.2062 1033.83,49.5902 1027.24,60.9942 1026.49,62.4622 1025.9,64.0022 1021.83,76.5262 1021.41,78.1182 1021.15,79.7462 1019.77,92.8422 1019.68,94.4882 1019.68,125.984" style="stroke:rgb(0,0,0);stroke-width:1px;fill:none;stroke-opacity:1;stroke-linecap:round;stroke-linejoin:round;;fill:none"/>
<polyline points="819.683,125.984 819.771,127.63 821.147,140.726 821.405,142.354 821.831,143.946 825.901,156.47 826.491,158.01 827.239,159.478 833.825,170.882 834.721,172.266 835.759,173.546 844.571,183.332 845.737,184.498 847.017,185.536 857.671,193.276 859.053,194.174 860.523,194.922 872.553,200.278 874.091,200.87 875.685,201.296 888.565,204.034 890.193,204.292 891.839,204.378 905.009,204.378 906.655,204.292 908.283,204.034 921.163,201.296 922.757,200.87 924.295,200.278 936.325,194.922 937.795,194.174 939.177,193.276 949.831,185.536 951.111,184.498 952.277,183.332 961.089,173.546 962.127,172.266 963.023,170.882 969.609,159.478 970.357,158.01 970.947,156.47 975.017,143.946 975.443,142.354 975.701,140.726 977.077,127.63 977.165,125.984 977.165,94.4882 977.077,92.8422 975.701,79.7462 975.443,78.1182 975.017,76.5262 970.947,64.0022 970.357,62.4622 969.609,60.9942 963.023,49.5902 962.127,48.2062 961.089,46.9262 952.277,37.1402 951.111,35.9742 949.831,34.9362 939.177,27.1962 937.795,26.2982 936.325,25.5502 924.295,20.1942 922.757,19.6022 921.163,19.1762 908.283,16.4382 906.655,16.1802 905.009,16.0942 891.839,16.0942 890.193,16.1802 888.565,16.4382 875.685,19.1762 874.091,19.6022 872.553,20.1942 860.523,25.5502 859.053,26.2982 857.671,27.1962 847.017,34.9362 845.737,35.9742 844.571,37.1402 835.759,46.9262 834.721,48.2062 833.825,49.5902 827.239,60.9942 826.491,62.4622 825.901,64.0022 821.831,76.5262 821.405,78.1182 821.147,79.7462 819.771,92.8422 819.683,94.4882 819.683,125.984" style="stroke:rgb(232,231,141);stroke-width:31.496063;fill:none;stroke-opacity:0.5;stroke-linecap:round;stroke-linejoin:round;;fill:none"/>
<polyline points="819.683,125.984 819.771,127.63 821.147,140.726 821.405,142.354 821.831,143.946 825.901,156.47 826.491,158.01 827.239,159.478 833.825,170.882 834.721,172.266 835.759,173.546 844.571,183.332 845.737,184.498 847.017,185.536 857.671,193.276 859.053,194.174 860.523,194.922 872.553,200.278 874.091,200.87 875.685,201.296 888.565,204.034 890.193,204.292 891.839,204.378 905.009,204.378 906.655,204.292 908.283,204.034 921.163,201.296 922.757,200.87 924.295,200.278 936.325,194.922 937.795,194.174 939.177,193.276 949.831,185.536 951.111,184.498 952.277,183.332 961.089,173.546 962.127,172.266 963.023,170.882 969.609,159.478 970.357,158.01 970.947,156.47 975.017,143.946 975.443,142.354 975.701,140.726 977.077,127.63 977.165,125.984 977.165,94.4882 977.077,92.8422 975.701,79.7462 975.443,78.1182 975.017,76.5262 970.947,64.0022 970.357,62.4622 969.609,60.9942 963.023,49.5902 962.127,48.2062 961.089,46.9262 952.277,37.1402 951.111,35.9742 949.831,34.9362 939.177,27.1962 937.795,26.2982 936.325,25.5502 924.295,20.1942 922.757,19.6022 921.163,19.1762 908.283,16.4382 906.655,16.1802 905.009,16.0942 891.839,16.0942 890.193,16.1802 888.565,16.4382 875.685,19.1762 874.091,19.6022 872.553,20.1942 860.523,25.5502 859.053,26.2982 857.671,27.1962 847.017,34.9362 845.737,35.9742 844.571,37.1402 835.759,46.9262 834.721,48.2062 833.825,49.5902 827.239,60.9942 826.491,62.4622 825.901,64.0022 821.831,76.5262 821.405,78.1182 821.147,79.7462 819.771,92.8422 819.683,94.4882 819.683,125.984" style="stroke:rgb(0,0,0);stroke-width:1px;fill:none;stroke-opacity:1;stroke-linecap:round;stroke-linejoin:round;;fill:none"/>
<polyline points="819.683,1925.98 819.771,1927.63 821.147,1940.73 821.405,1942.35 821.831,1943.95 825.901,1956.47 826.491,1958.01 827.239,1959.48 833.825,1970.88 834.721,1972.27 835.759,1973.55 844.571,1983.33 845.737,1984.5 847.017,1985.54 857.671,1993.28 859.053,1994.17 860.523,1994.92 872.553,2000.28 874.091,2000.87 875.685,2001.3 888.565,2004.03 890.193,2004.29 891.839,2004.38 905.009,2004.38 906.655,2004.29 908.283,2004.03 921.163,2001.3 922.757,2000.87 924.295,2000.28 936.325,1994.92 937.795,1994.17 939.177,1993.28 949.831,1985.54 951.111,1984.5 952.277,1983.33 961.089,1973.55 962.127,1972.27 963.023,1970.88 969.609,1959.48 970.357,1958.01 970.947,1956.47 975.017,1943.95 975.443,1942.35 975.701,1940.73 977.077,1927.63 977.165,1925.98 977.165,1894.49 977.077,1892.84 975.701,1879.74 975.443,1878.12 975.017,1876.52 970.947,1864 970.357,1862.46 969.609,1860.99 963.023,1849.59 962.127,1848.2 961.089,1846.92 952.277,1837.14 951.111,1835.97 949.831,1834.93 939.177,1827.19 937.795,1826.3 936.325,1825.55 924.295,1820.19 922.757,1819.6 921.163,1819.17 908.283,1816.44 906.655,1816.18 905.009,1816.09 891.839,1816.09 890.193,1816.18 888.565,1816.44 875.685,1819.17 874.091,1819.6 872.553,1820.19 860.523,1825.55 859.053,1826.3 857.671,1827.19 847.017,1834.93 845.737,1835.97 844.571,1837.14 835.759,1846.92 834.721,1848.2 833.825,1849.59 827.239,1860.99 826.491,1862.46 825.901,1864 821.831,1876.52 821.405,1878.12 821.147,1879.74 819.771,1892.84 819.683,1894.49 819.683,1925.98" style="stroke:rgb(118,90,46);stroke-width:31.496063;fill:none;stroke-opacity:0.5;stroke-linecap:round;stroke-linejoin:round;;fill:none"/>
<polyline points="819.683,1925.98 819.771,1927.63 821.147,1940.73 821.405,1942.35 821.831,1943.95 825.901,1956.47 826.491,1958.01 827.239,1959.48 833.825,1970.88 834.721,1972.27 835.759,1973.55 844.571,1983.33 845.737,1984.5 847.017,1985.54 857.671,1993.28 859.053,1994.17 860.523,1994.92 872.553,2000.28 874.091,2000.87 875.685,2001.3 888.565,2004.03 890.193,2004.29 891.839,2004.38 905.009,2004.38 906.655,2004.29 908.283,2004.03 921.163,2001.3 922.757,2000.87 924.295,2000.28 936.325,1994.92 937.795,1994.17 939.177,1993.28 949.831,1985.54 951.111,1984.5 952.277,1983.33 961.089,1973.55 962.127,1972.27 963.023,1970.88 969.609,1959.48 970.357,1958.01 970.947,1956.47 975.017,1943.95 975.443,1942.35 975.701,1940.73 977.077,1927.63 977.165,1925.98 977.165,1894.49 977.077,1892.84 975.701,1879.74 975.443,1878.12 975.017,1876.52 970.947,1864 970.357,1862.46 969.609,1860.99 963.023,1849.59 962.127,1848.2 961.089,1846.92 952.277,1837.14 951.111,1835.97 949.831,1834.93 939.177,1827.19 937.795,1826.3 936.325,1825.55 924.295,1820.19 922.757,1819.6 921.163,1819.17 908.283,1816.44 906.655,1816.18 905.009,1816.09 891.839,1816.09 890.193,1816.18 888.565,1816.44 875.685,1819.17 874.091,1819.6 872.553,1820.19 860.523,1825.55 859.053,1826.3 857.671,1827.19 847.017,1834.93 845.737,1835.97 844.571,1837.14 835.759,1846.92 834.721,1848.2 833.825,1849.59 827.239,1860.99 826.491,1862.46 825.901,1864 821.831,1876.52 821.405,1878.12 821.147,1879.74 819.771,1892.84 819.683,1894.49 819.683,1925.98" style="stroke:rgb(0,0,0);stroke-width:1px;fill:none;stroke-opacity:1;stroke-linecap:round;stroke-linejoin:round;;fill:none"/>
<polyline points="1019.68,1925.98 1019.77,1927.63 1021.15,1940.73 1021.41,1942.35 1021.83,1943.95 1025.9,1956.47 1026.49,1958.01 1027.24,1959.48 1033.83,1970.88 1034.72,1972.27 1035.76,1973.55 1044.57,1983.33 1045.74,1984.5 1047.02,1985.54 1057.67,1993.28 1059.05,1994.17 1060.52,1994.92 1072.55,2000.28 1074.09,2000.87 1075.69,2001.3 1088.57,2004.03 1090.19,2004.29 1091.84,2004.38 1105.01,2004.38 1106.66,2004.29 1108.28,2004.03 1121.16,2001.3 1122.76,2000.87 1124.3,2000.28 1135.35,1995.36 1136.25,1994.74 1138.81,1992.77 1148.86,1984.19 1150.99,1982.17 1160.06,1972.61 1162.03,1970.31 1167.4,1963.31 1169.61,1959.48 1170.36,1958.01 1170.95,1956.47 1175.02,1943.95 1175.44,1942.35 1175.7,1940.73 1177.08,1927.63 1177.17,1925.98 1177.17,1894.49 1177.08,1892.84 1175.7,1879.74 1175.44,1878.12 1175.02,1876.52 1170.95,1864 1170.36,1862.46 1169.61,1860.99 1163.02,1849.59 1162.13,1848.2 1161.09,1846.92 1152.28,1837.14 1151.11,1835.97 1149.83,1834.93 1139.18,1827.19 1137.8,1826.3 1136.33,1825.55 1124.3,1820.19 1122.76,1819.6 1121.16,1819.17 1108.28,1816.44 1106.66,1816.18 1105.01,1816.09 1091.84,1816.09 1090.19,1816.18 1088.57,1816.44 1075.69,1819.17 1074.09,1819.6 1072.55,1820.19 1060.52,1825.55 1059.05,1826.3 1057.67,1827.19 1047.02,1834.93 1045.74,1835.97 1044.57,1837.14 1035.76,1846.92 1034.72,1848.2 1033.83,1849.59 1027.24,1860.99 1026.49,1862.46 1025.9,1864 1021.83,1876.52 1021.41,1878.12 1021.15,1879.74 1019.77,1892.84 1019.68,1894.49 1019.68,1925.98" style="stroke:rgb(99,51,159);stroke-width:31.496063;fill:none;stroke-opacity:0.5;stroke-linecap:round;stroke-linejoin:round;;fill:none"/>
<polyline points="1019.68,1925.98 1019.77,1927.63 1021.15,1940.73 1021.41,1942.35 1021.83,1943.95 1025.9,1956.47 1026.49,1958.01 1027.24,1959.48 1033.83,1970.88 1034.72,1972.27 1035.76,1973.55 1044.57,1983.33 1045.74,1984.5 1047.02,1985.54 1057.67,1993.28 1059.05,1994.17 1060.52,1994.92 1072.55,2000.28 1074.09,2000.87 1075.69,2001.3 1088.57,2004.03 1090.19,2004.29 1091.84,2004.38 1105.01,2004.38 1106.66,2004.29 1108.28,2004.03 1121.16,2001.3 1122.76,2000.87 1124.3,2000.28 1135.35,1995.36 1136.25,1994.74 1138.81,1992.77 1148.86,1984.19 1150.99,1982.17 1160.06,1972.61 1162.03,1970.31 1167.4,1963.31 1169.61,1959.48 1170.36,1958.01 1170.95,1956.47 1175.02,1943.95 1175.44,1942.35 1175.7,1940.73 1177.08,1927.63 1177.17,1925.98 1177.17,1894.49 1177.08,1892.84 1175.7,1879.74 1175.44,1878.12 1175.02,1876.52 1170.95,1864 1170.36,1862.46 1169.61,1860.99 1163.02,1849.59 1162.13,1848.2 1161.09,1846.92 1152.28,1837.14 1151.11,1835.97 1149.83,1834.93 1139.18,1827.19 1137.8,1826.3 1136.33,1825.55 1124.3,1820.19 1122.76,1819.6 1121.16,1819.17 1108.28,1816.44 1106.66,1816.18 1105.01,1816.09 1091.84,1816.09 1090.19,1816.18 1088.57,1816.44 1075.69,1819.17 1074.09,1819.6 1072.55,1820.19 1060.52,1825.55 1059.05,1826.3 1057.67,1827.19 1047.02,1834.93 1045.74,1835.97 1044.57,1837.14 1035.76,1846.92 1034.72,1848.2 1033.83,1849.59 1027.24,1860.99 1026.49,1862.46 1025.9,1864 1021.83,1876.52 1021.41,1878.12 1021.15,1879.74 1019.77,1892.84 1019.68,1894.49 1019.68,1925.98" style="stroke:rgb(0,0,0);stroke-width:1px;fill:none;stroke-opacity:1;stroke-linecap:round;stroke-linejoin:round;;fill:none"/>
<polyline points="3215.75,2710.24 3215.83,2711.88 3217.3,2725.8 3217.55,2727.42 3217.98,2729.02 3222.3,2742.32 3222.9,2743.86 3223.64,2745.33 3230.64,2757.45 3231.54,2758.83 3232.58,2760.11 3241.94,2770.51 3243.1,2771.68 3244.38,2772.71 3255.7,2780.94 3257.09,2781.84 3258.56,2782.58 3271.34,2788.27 3272.88,2788.87 3274.47,2789.29 3288.15,2792.2 3289.78,2792.46 3291.43,2792.55 3305.42,2792.55 3307.07,2792.46 3308.7,2792.2 3322.38,2789.29 3323.97,2788.87 3325.51,2788.27 3338.29,2782.58 3339.76,2781.84 3341.15,2780.94 3352.47,2772.71 3353.75,2771.68 3354.91,2770.51 3364.27,2760.11 3365.31,2758.83 3366.21,2757.45 3373.21,2745.33 3373.95,2743.86 3374.55,2742.32 3378.87,2729.02 3379.3,2727.42 3379.55,2725.8 3381.02,2711.88 3381.1,2710.24 3381.02,2708.59 3379.55,2694.67 3379.3,2693.05 3378.87,2691.45 3374.55,2678.15 3373.95,2676.61 3373.21,2675.14 3366.21,2663.02 3365.31,2661.64 3364.27,2660.36 3354.91,2649.96 3353.75,2648.79 3352.47,2647.76 3341.15,2639.53 3339.76,2638.63 3338.29,2637.89 3325.51,2632.2 3323.97,2631.6 3322.38,2631.18 3308.7,2628.27 3307.07,2628.01 3305.42,2627.92 3291.43,2627.92 3289.78,2628.01 3288.15,2628.27 3274.47,2631.18 3272.88,2631.6 3271.34,2632.2 3258.56,2637.89 3257.09,2638.63 3255.7,2639.53 3244.38,2647.76 3243.1,2648.79 3241.94,2649.96 3232.58,2660.36 3231.54,2661.64 3230.64,2663.02 3223.64,2675.14 3222.9,2676.61 3222.3,2678.15 3217.98,2691.45 3217.55,2693.05 3217.3,2694.67 3215.83,2708.59 3215.75,2710.24" style="stroke:rgb(201,154,102);stroke-width:31.496063;fill:none;stroke-opacity:0.5;stroke-linecap:round;stroke-linejoin:round;;fill:none"/>
<polyline points="3215.75,2710.24 3215.83,2711.88 3217.3,2725.8 3217.55,2727.42 3217.98,2729.02 3222.3,2742.32 3222.9,2743.86 3223.64,2745.33 3230.64,2757.45 3231.54,2758.83 3232.58,2760.11 3241.94,2770.51 3243.1,2771.68 3244.38,2772.71 3255.7,2780.94 3257.09,2781.84 3258.56,2782.58 3271.34,2788.27 3272.88,2788.87 3274.47,2789.29 3288.15,2792.2 3289.78,2792.46 3291.43,2792.55 3305.42,2792.55 3307.07,2792.46 3308.7,2792.2 3322.38,2789.29 3323.97,2788.87 3325.51,2788.27 3338.29,2782.58 3339.76,2781.84 3341.15,2780.94 3352.47,2772.71 3353.75,2771.68 3354.91,2770.51 3364.27,2760.11 3365.31,2758.83 3366.21,2757.45 3373.21,2745.33 3373.95,2743.86 3374.55,2742.32 3378.87,2729.02 3379.3,2727.42 3379.55,2725.8 3381.02,2711.88 3381.1,2710.24 3381.02,2708.59 3379.55,2694.67 3379.3,2693.05 3378.87,2691.45 3374.55,2678.15 3373.95,2676.61 3373.21,2675.14 3366.21,2663.02 3365.31,2661.64 3364.27,2660.36 3354.91,2649.96 3353.75,2648.79 3352.47,2647.76 3341.15,2639.53 3339.76,2638.63 3338.29,2637.89 3325.51,2632.2 3323.97,2631.6 3322.38,2631.18 3308.7,2628.27 3307.07,2628.01 3305.42,2627.92 3291.43,2627.92 3289.78,2628.01 3288.15,2628.27 3274.47,2631.18 3272.88,2631.6 3271.34,2632.2 3258.56,2637.89 3257.09,2638.63 3255.7,2639.53 3244.38,2647.76 3243.1,2648.79 3241.94,2649.96 3232.58,2660.36 3231.54,2661.64 3230.64,2663.02 3223.64,2675.14 3222.9,2676.61 3222.3,2678.15 3217.98,2691.45 3217.55,2693.05 3217.3,2694.67 3215.83,2708.59 3215.75,2710.24" style="stroke:rgb(0,0,0);stroke-width:1px;fill:none;stroke-opacity:1;stroke-linecap:round;stroke-linejoin:round;;fill:none"/>
<polyline points="3215.75,2510.24 3215.83,2511.88 3217.3,2525.8 3217.55,2527.42 3217.98,2529.02 3222.3,2542.32 3222.9,2543.86 3223.64,2545.33 3230.64,2557.45 3231.54,2558.83 3232.58,2560.11 3241.94,2570.51 3243.1,2571.68 3244.38,2572.71 3255.7,2580.94 3257.09,2581.84 3258.56,2582.58 3271.34,2588.27 3272.88,2588.87 3274.47,2589.29 3288.15,2592.2 3289.78,2592.46 3291.43,2592.55 3305.42,2592.55 3307.07,2592.46 3308.7,2592.2 3322.38,2589.29 3323.97,2588.87 3325.51,2588.27 3338.29,2582.58 3339.76,2581.84 3341.15,2580.94 3352.47,2572.71 3353.75,2571.68 3354.91,2570.51 3364.27,2560.11 3365.31,2558.83 3366.21,2557.45 3373.21,2545.33 3373.95,2543.86 3374.55,2542.32 3378.87,2529.02 3379.3,2527.42 3379.55,2525.8 3381.02,2511.88 3381.1,2510.24 3381.02,2508.59 3379.55,2494.67 3379.3,2493.05 3378.87,2491.45 3374.55,2478.15 3373.95,2476.61 3373.21,2475.14 3366.21,2463.02 3365.31,2461.64 3364.27,2460.36 3354.91,2449.96 3353.75,2448.79 3352.47,2447.76 3341.15,2439.53 3339.76,2438.63 3338.29,2437.89 3325.51,2432.2 3323.97,2431.6 3322.38,2431.18 3308.7,2428.27 3307.07,2428.01 3305.42,2427.92 3291.43,2427.92 3289.78,2428.01 3288.15,2428.27 3274.47,2431.18 3272.88,2431.6 3271.34,2432.2 3258.56,2437.89 3257.09,2438.63 3255.7,2439.53 3244.38,2447.76 3243.1,2448.79 3241.94,2449.96 3232.58,2460.36 3231.54,2461.64 3230.64,2463.02 3223.64,2475.14 3222.9,2476.61 3222.3,2478.15 3217.98,2491.45 3217.55,2493.05 3217.3,2494.67 3215.83,2508.59 3215.75,2510.24" style="stroke:rgb(50,13,183);stroke-width:31.496063;fill:none;stroke-opacity:0.5;stroke-linecap:round;stroke-linejoin:round;;fill:none"/>
<polyline points="3215.75,2510.24 3215.83,2511.88 3217.3,2525.8 3217.55,2527.42 3217.98,2529.02 3222.3,2542.32 3222.9,2543.86 3223.64,2545.33 3230.64,2557.45 3231.54,2558.83 3232.58,2560.11 3241.94,2570.51 3243.1,2571.68 3244.38,2572.71 3255.7,2580.94 3257.09,2581.84 3258.56,2582.58 3271.34,2588.27 3272.88,2588.87 3274.47,2589.29 3288.15,2592.2 3289.78,2592.46 3291.43,2592.55 3305.42,2592.55 3307.07,2592.46 3308.7,2592.2 3322.38,2589.29 3323.97,2588.87 3325.51,2588.27 3338.29,2582.58 3339.76,2581.84 3341.15,2580.94 3352.47,2572.71 3353.75,2571.68 3354.91,2570.51 3364.27,2560.11 3365.31,2558.83 3366.21,2557.45 3373.21,2545.33 3373.95,2543.86 3374.55,2542.32 3378.87,2529.02 3379.3,2527.42 3379.55,2525.8 3381.02,2511.88 3381.1,2510.24 3381.02,2508.59 3379.55,2494.67 3379.3,2493.05 3378.87,2491.45 3374.55,2478.15 3373.95,2476.61 3373.21,2475.14 3366.21,2463.02 3365.31,2461.64 3364.27,2460.36 3354.91,2449.96 3353.75,2448.79 3352.47,2447.76 3341.15,2439.53 3339.76,2438.63 3338.29,2437.89 3325.51,2432.2 3323.97,2431.6 3322.38,2431.18 3308.7,2428.27 3307.07,2428.01 3305.42,2427.92 3291.43,2427.92 3289.78,2428.01 3288.15,2428.27 3274.47,2431.18 3272.88,2431.6 3271.34,2432.2 3258.56,2437.89 3257.09,2438.63 3255.7,2439.53 3244.38,2447.76 3243.1,2448.79 3241.94,2449.96 3232.58,2460.36 3231.54,2461.64 3230.64,2463.02 3223.64,2475.14 3222.9,2476.61 3222.3,2478.15 3217.98,2491.45 3217.55,2493.05 3217.3,2494.67 3215.83,2508.59 3215.75,2510.24" style="stroke:rgb(0,0,0);stroke-width:1px;fill:none;stroke-opacity:1;stroke-linecap:round;stroke-linejoin:round;;fill:none"/>
<polyline points="15.7492,2310.24 15.8352,2311.88 17.2972,2325.8 17.5552,2327.42 17.9832,2329.02 22.3052,2342.32 22.8972,2343.86 23.6452,2345.33 30.6412,2357.45 31.5392,2358.83 32.5772,2360.11 41.9392,2370.51 43.1052,2371.68 44.3852,2372.71 55.7052,2380.94 57.0872,2381.84 58.5572,2382.58 71.3392,2388.27 72.8772,2388.87 74.4692,2389.29 88.1552,2392.2 89.7832,2392.46 91.4312,2392.55 105.419,2392.55 107.067,2392.46 108.695,2392.2 122.381,2389.29 123.973,2388.87 125.511,2388.27 138.293,2382.58 139.763,2381.84 141.145,2380.94 152.465,2372.71 153.745,2371.68 154.911,2370.51 159.555,2365.35 898.423,2365.35 899.967,2365.28 907.649,2364.52 909.177,2364.29 910.677,2363.92 918.061,2361.68 919.517,2361.16 920.913,2360.5 927.721,2356.86 930.287,2355.14 936.253,2350.25 937.399,2349.21 1283.65,2002.96 1288.47,2004.01 1290.15,2004.29 1291.84,2004.38 1305.01,2004.38 1306.66,2004.29 1308.28,2004.03 1321.16,2001.3 1322.76,2000.87 1324.3,2000.28 1336.33,1994.92 1337.8,1994.17 1339.18,1993.28 1349.83,1985.54 1351.11,1984.5 1352.28,1983.33 1361.09,1973.55 1362.13,1972.27 1363.02,1970.88 1369.61,1959.48 1370.36,1958.01 1370.95,1956.47 1375.02,1943.95 1375.44,1942.35 1375.7,1940.73 1377.08,1927.63 1377.17,1925.98 1377.17,1894.49 1377.08,1892.84 1375.7,1879.74 1375.44,1878.12 1375.02,1876.52 1370.95,1864 1370.36,1862.46 1369.61,1860.99 1363.02,1849.59 1362.13,1848.2 1361.09,1846.92 1352.28,1837.14 1351.11,1835.97 1349.83,1834.93 1339.18,1827.19 1337.8,1826.3 1336.33,1825.55 1324.3,1820.19 1322.76,1819.6 1321.16,1819.17 1308.28,1816.44 1306.66,1816.18 1305.01,1816.09 1291.84,1816.09 1290.19,1816.18 1288.57,1816.44 1275.69,1819.17 1274.09,1819.6 1272.55,1820.19 1260.52,1825.55 1259.05,1826.3 1257.67,1827.19 1247.02,1834.93 1245.74,1835.97 1244.57,1837.14 1235.76,1846.92 1234.72,1848.2 1233.83,1849.59 1227.24,1860.99 1226.49,1862.46 1225.9,1864 1221.83,1876.52 1221.41,1878.12 1221.15,1879.74 1219.77,1892.84 1219.68,1894.49 1219.68,1911.03 1190.7,1940.01 1167.38,1963.33 1162.03,1970.31 1160.06,1972.61 1150.99,1982.17 1148.86,1984.19 1138.81,1992.77 1136.25,1994.74 1135.36,1995.35 875.593,2255.12 159.555,2255.12 154.911,2249.96 153.745,2248.79 152.465,2247.76 141.145,2239.53 139.763,2238.63 138.293,2237.89 125.511,2232.2 123.973,2231.6 122.381,2231.18 108.695,2228.27 107.067,2228.01 105.419,2227.92 91.4312,2227.92 89.7832,2228.01 88.1552,2228.27 74.4692,2231.18 72.8772,2231.6 71.3392,2232.2 58.5572,2237.89 57.0872,2238.63 55.7052,2239.53 44.3852,2247.76 43.1052,2248.79 41.9392,2249.96 32.5772,2260.36 31.5392,2261.64 30.6412,2263.02 23.6452,2275.14 22.8972,2276.61 22.3052,2278.15 17.9832,2291.45 17.5552,2293.05 17.2972,2294.67 15.8352,2308.59 15.7492,2310.24" style="stroke:rgb(49,88,163);stroke-width:31.496063;fill:none;stroke-opacity:0.5;stroke-linecap:round;stroke-linejoin:round;;fill:none"/>
<polyline points="15.7492,2310.24 15.8352,2311.88 17.2972,2325.8 17.5552,2327.42 17.9832,2329.02 22.3052,2342.32 22.8972,2343.86 23.6452,2345.33 30.6412,2357.45 31.5392,2358.83 32.5772,2360.11 41.9392,2370.51 43.1052,2371.68 44.3852,2372.71 55.7052,2380.94 57.0872,2381.84 58.5572,2382.58 71.3392,2388.27 72.8772,2388.87 74.4692,2389.29 88.1552,2392.2 89.7832,2392.46 91.4312,2392.55 105.419,2392.55 107.067,2392.46 108.695,2392.2 122.381,2389.29 123.973,2388.87 125.511,2388.27 138.293,2382.58 139.763,2381.84 141.145,2380.94 152.465,2372.71 153.745,2371.68 154.911,2370.51 159.555,2365.35 898.423,2365.35 899.967,2365.28 907.649,2364.52 909.177,2364.29 910.677,2363.92 918.061,2361.68 919.517,2361.16 920.913,2360.5 927.721,2356.86 930.287,2355.14 936.253,2350.25 937.399,2349.21 1283.65,2002.96 1288.47,2004.01 1290.15,2004.29 1291.84,2004.38 1305.01,2004.38 1306.66,2004.29 1308.28,2004.03 1321.16,2001.3 1322.76,2000.87 1324.3,2000.28 1336.33,1994.92 1337.8,1994.17 1339.18,1993.28 1349.83,1985.54 1351.11,1984.5 1352.28,1983.33 1361.09,1973.55 1362.13,1972.27 1363.02,1970.88 1369.61,1959.48 1370.36,1958.01 1370.95,1956.47 1375.02,1943.95 1375.44,1942.35 1375.7,1940.73 1377.08,1927.63 1377.17,1925.98 1377.17,1894.49 1377.08,1892.84 1375.7,1879.74 1375.44,1878.12 1375.02,1876.52 1370.95,1864 1370.36,1862.46 1369.61,1860.99 1363.02,1849.59 1362.13,1848.2 1361.09,1846.92 1352.28,1837.14 1351.11,1835.97 1349.83,1834.93 1339.18,1827.19 1337.8,1826.3 1336.33,1825.55 1324.3,1820.19 1322.76,1819.6 1321.16,1819.17 1308.28,1816.44 1306.66,1816.18 1305.01,1816.09 1291.84,1816.09 1290.19,1816.18 1288.57,1816.44 1275.69,1819.17 1274.09,1819.6 1272.55,1820.19 1260.52,1825.55 1259.05,1826.3 1257.67,1827.19 1247.02,1834.93 1245.74,1835.97 1244.57,1837.14 1235.76,1846.92 1234.72,1848.2 1233.83,1849.59 1227.24,1860.99 1226.49,1862.46 1225.9,1864 1221.83,1876.52 1221.41,1878.12 1221.15,1879.74 1219.77,1892.84 1219.68,1894.49 1219.68,1911.03 1190.7,1940.01 1167.38,1963.33 1162.03,1970.31 1160.06,1972.61 1150.99,1982.17 1148.86,1984.19 1138.81,1992.77 1136.25,1994.74 1135.36,1995.35 875.593,2255.12 159.555,2255.12 154.911,2249.96 153.745,2248.79 152.465,2247.76 141.145,2239.53 139.763,2238.63 138.293,2237.89 125.511,2232.2 123.973,2231.6 122.381,2231.18 108.695,2228.27 107.067,2228.01 105.419,2227.92 91.4312,2227.92 89.7832,2228.01 88.1552,2228.27 74.4692,2231.18 72.8772,2231.6 71.3392,2232.2 58.5572,2237.89 57.0872,2238.63 55.7052,2239.53 44.3852,2247.76 43.1052,2248.79 41.9392,2249.96 32.5772,2260.36 31.5392,2261.64 30.6412,2263.02 23.6452,2275.14 22.8972,2276.61 22.3052,2278.15 17.9832,2291.45 17.5552,2293.05 17.2972,2294.67 15.8352,2308.59 15.7492,2310.24" style="stroke:rgb(0,0,0);stroke-width:1px;fill:none;stroke-opacity:1;stroke-linecap:round;stroke-linejoin:round;;fill:none"/>
<polyline points="15.7492,2510.24 15.8352,2511.88 17.2972,2525.8 17.5552,2527.42 17.9832,2529.02 22.3052,2542.32 22.8972,2543.86 23.6452,2545.33 30.6412,2557.45 31.5392,2558.83 32.5772,2560.11 41.9392,2570.51 43.1052,2571.68 44.3852,2572.71 55.7052,2580.94 57.0872,2581.84 58.5572,2582.58 71.3392,2588.27 72.8772,2588.87 74.4692,2589.29 88.1552,2592.2 89.7832,2592.46 91.4312,2592.55 105.419,2592.55 107.067,2592.46 108.695,2592.2 122.381,2589.29 123.973,2588.87 125.511,2588.27 138.293,2582.58 139.763,2581.84 141.145,2580.94 152.465,2572.71 153.745,2571.68 154.911,2570.51 159.555,2565.35 1098.42,2565.35 1099.97,2565.28 1107.65,2564.52 1109.18,2564.29 1110.68,2563.92 1118.06,2561.68 1119.52,2561.16 1120.91,2560.5 1127.72,2556.86 1130.29,2555.14 1136.25,2550.25 1137.4,2549.21 1537.4,2149.21 1538.44,2148.06 1543.33,2142.1 1544.25,2140.86 1545.05,2139.53 1548.69,2132.72 1549.87,2129.87 1552.11,2122.49 1552.48,2120.99 1552.71,2119.46 1553.47,2111.78 1553.54,2110.24 1553.54,1981.93 1561.09,1973.55 1562.13,1972.27 1563.02,1970.88 1569.61,1959.48 1570.36,1958.01 1570.95,1956.47 1575.02,1943.95 1575.44,1942.35 1575.7,1940.73 1577.08,1927.63 1577.17,1925.98 1577.17,1894.49 1577.08,1892.84 1575.7,1879.74 1575.44,1878.12 1575.02,1876.52 1570.95,1864 1570.36,1862.46 1569.61,1860.99 1563.02,1849.59 1562.13,1848.2 1561.09,1846.92 1552.28,1837.14 1551.11,1835.97 1549.83,1834.93 1539.18,1827.19 1537.8,1826.3 1536.33,1825.55 1524.3,1820.19 1522.76,1819.6 1521.16,1819.17 1508.28,1816.44 1506.66,1816.18 1505.01,1816.09 1491.84,1816.09 1490.19,1816.18 1488.57,1816.44 1475.69,1819.17 1474.09,1819.6 1472.55,1820.19 1460.52,1825.55 1459.05,1826.3 1457.67,1827.19 1447.02,1834.93 1445.74,1835.97 1444.57,1837.14 1435.76,1846.92 1434.72,1848.2 1433.83,1849.59 1427.24,1860.99 1426.49,1862.46 1425.9,1864 1421.83,1876.52 1421.41,1878.12 1421.15,1879.74 1419.77,1892.84 1419.68,1894.49 1419.68,1925.98 1419.77,1927.63 1421.15,1940.73 1421.41,1942.35 1421.83,1943.95 1425.9,1956.47 1426.49,1958.01 1427.24,1959.48 1433.83,1970.88 1434.72,1972.27 1435.76,1973.55 1443.31,1981.93 1443.31,2087.4 1075.59,2455.12 159.555,2455.12 154.911,2449.96 153.745,2448.79 152.465,2447.76 141.145,2439.53 139.763,2438.63 138.293,2437.89 125.511,2432.2 123.973,2431.6 122.381,2431.18 108.695,2428.27 107.067,2428.01 105.419,2427.92 91.4312,2427.92 89.7832,2428.01 88.1552,2428.27 74.4692,2431.18 72.8772,2431.6 71.3392,2432.2 58.5572,2437.89 57.0872,2438.63 55.7052,2439.53 44.3852,2447.76 43.1052,2448.79 41.9392,2449.96 32.5772,2460.36 31.5392,2461.64 30.6412,2463.02 23.6452,2475.14 22.8972,2476.61 22.3052,2478.15 17.9832,2491.45 17.5552,2493.05 17.2972,2494.67 15.8352,2508.59 15.7492,2510.24" style="stroke:rgb(90,37,93);stroke-width:31.496063;fill:none;stroke-opacity:0.5;stroke-linecap:round;stroke-linejoin:round;;fill:none"/>
<polyline points="15.7492,2510.24 15.8352,2511.88 17.2972,2525.8 17.5552,2527.42 17.9832,2529.02 22.3052,2542.32 22.8972,2543.86 23.6452,2545.33 30.6412,2557.45 31.5392,2558.83 32.5772,2560.11 41.9392,2570.51 43.1052,2571.68 44.3852,2572.71 55.7052,2580.94 57.0872,2581.84 58.5572,2582.58 71.3392,2588.27 72.8772,2588.87 74.4692,2589.29 88.1552,2592.2 89.7832,2592.46 91.4312,2592.55 105.419,2592.55 107.067,2592.46 108.695,2592.2 122.381,2589.29 123.973,2588.87 125.511,2588.27 138.293,2582.58 139.763,2581.84 141.145,2580.94 152.465,2572.71 153.745,2571.68 154.911,2570.51 159.555,2565.35 1098.42,2565.35 1099.97,2565.28 1107.65,2564.52 1109.18,2564.29 1110.68,2563.92 1118.06,2561.68 1119.52,2561.16 1120.91,2560.5 1127.72,2556.86 1130.29,2555.14 1136.25,2550.25 1137.4,2549.21 1537.4,2149.21 1538.44,2148.06 1543.33,2142.1 1544.25,2140.86 1545.05,2139.53 1548.69,2132.72 1549.87,2129.87 1552.11,2122.49 1552.48,2120.99 1552.71,2119.46 1553.47,2111.78 1553.54,2110.24 1553.54,1981.93 1561.09,1973.55 1562.13,1972.27 1563.02,1970.88 1569.61,1959.48 1570.36,1958.01 1570.95,1956.47 1575.02,1943.95 1575.44,1942.35 1575.7,1940.73 1577.08,1927.63 1577.17,1925.98 1577.17,1894.49 1577.08,1892.84 1575.7,1879.74 1575.44,1878.12 1575.02,1876.52 1570.95,1864 1570.36,1862.46 1569.61,1860.99 1563.02,1849.59 1562.13,1848.2 1561.09,1846.92 1552.28,1837.14 1551.11,1835.97 1549.83,1834.93 1539.18,1827.19 1537.8,1826.3 1536.33,1825.55 1524.3,1820.19 1522.76,1819.6 1521.16,1819.17 1508.28,1816.44 1506.66,1816.18 1505.01,1816.09 1491.84,1816.09 1490.19,1816.18 1488.57,1816.44 1475.69,1819.17 1474.09,1819.6 1472.55,1820.19 1460.52,1825.55 1459.05,1826.3 1457.67,1827.19 1447.02,1834.93 1445.74,1835.97 1444.57,1837.14 1435.76,1846.92 1434.72,1848.2 1433.83,1849.59 1427.24,1860.99 1426.49,1862.46 1425.9,1864 1421.83,1876.52 1421.41,1878.12 1421.15,1879.74 1419.77,1892.84 1419.68,1894.49 1419.68,1925.98 1419.77,1927.63 1421.15,1940.73 1421.41,1942.35 1421.83,1943.95 1425.9,1956.47 1426.49,1958.01 1427.24,1959.48 1433.83,1970.88 1434.72,1972.27 1435.76,1973.55 1443.31,1981.93 1443.31,2087.4 1075.59,2455.12 159.555,2455.12 154.911,2449.96 153.745,2448.79 152.465,2447.76 141.145,2439.53 139.763,2438.63 138.293,2437.89 125.511,2432.2 123.973,2431.6 122.381,2431.18 108.695,2428.27 107.067,2428.01 105.419,2427.92 91.4312,2427.92 89.7832,2428.01 88.1552,2428.27 74.4692,2431.18 72.8772,2431.6 71.3392,2432.2 58.5572,2437.89 57.0872,2438.63 55.7052,2439.53 44.3852,2447.76 43.1052,2448.79 41.9392,2449.96 32.5772,2460.36 31.5392,2461.64 30.6412,2463.02 23.6452,2475.14 22.8972,2476.61 22.3052,2478.15 17.9832,2491.45 17.5552,2493.05 17.2972,2494.67 15.8352,2508.59 15.7492,2510.24" style="stroke:rgb(0,0,0);stroke-width:1px;fill:none;stroke-opacity:1;stroke-linecap:round;stroke-linejoin:round;;fill:none"/>
<polyline points="15.7492,2710.24 15.8352,2711.88 17.2972,2725.8 17.5552,2727.42 17.9832,2729.02 22.3052,2742.32 22.8972,2743.86 23.6452,2745.33 30.6412,2757.45 31.5392,2758.83 32.5772,2760.11 41.9392,2770.51 43.1052,2771.68 44.3852,2772.71 55.7052,2780.94 57.0872,2781.84 58.5572,2782.58 71.3392,2788.27 72.8772,2788.87 74.4692,2789.29 88.1552,2792.2 89.7832,2792.46 91.4312,2792.55 105.419,2792.55 107.067,2792.46 108.695,2792.2 122.381,2789.29 123.973,2788.87 125.511,2788.27 138.293,2782.58 139.763,2781.84 141.145,2780.94 152.465,2772.71 153.745,2771.68 154.911,2770.51 159.555,2765.35 1298.42,2765.35 1299.97,2765.28 1307.65,2764.52 1309.18,2764.29 1310.68,2763.92 1318.06,2761.68 1319.52,2761.16 1320.91,2760.5 1327.72,2756.86 1330.29,2755.14 1336.25,2750.25 1337.4,2749.21 1737.4,2349.21 1738.44,2348.06 1743.33,2342.1 1744.25,2340.86 1745.05,2339.53 1748.69,2332.72 1749.87,2329.87 1752.11,2322.49 1752.48,2320.99 1752.71,2319.46 1753.47,2311.78 1753.54,2310.23 1753.54,1981.93 1761.09,1973.55 1762.13,1972.27 1763.02,1970.88 1769.61,1959.48 1770.36,1958.01 1770.95,1956.47 1775.02,1943.95 1775.44,1942.35 1775.7,1940.73 1777.08,1927.63 1777.17,1925.98 1777.17,1894.49 1777.08,1892.84 1775.7,1879.74 1775.44,1878.12 1775.02,1876.52 1770.95,1864 1770.36,1862.46 1769.61,1860.99 1763.02,1849.59 1762.13,1848.2 1761.09,1846.92 1752.28,1837.14 1751.11,1835.97 1749.83,1834.93 1739.18,1827.19 1737.8,1826.3 1736.33,1825.55 1724.3,1820.19 1722.76,1819.6 1721.16,1819.17 1708.28,1816.44 1706.66,1816.18 1705.01,1816.09 1691.84,1816.09 1690.19,1816.18 1688.57,1816.44 1675.69,1819.17 1674.09,1819.6 1672.55,1820.19 1660.52,1825.55 1659.05,1826.3 1657.67,1827.19 1647.02,1834.93 1645.74,1835.97 1644.57,1837.14 1635.76,1846.92 1634.72,1848.2 1633.83,1849.59 1627.24,1860.99 1626.49,1862.46 1625.9,1864 1621.83,1876.52 1621.41,1878.12 1621.15,1879.74 1619.77,1892.84 1619.68,1894.49 1619.68,1925.98 1619.77,1927.63 1621.15,1940.73 1621.41,1942.35 1621.83,1943.95 1625.9,1956.47 1626.49,1958.01 1627.24,1959.48 1633.83,1970.88 1634.72,1972.27 1635.76,1973.55 1643.31,1981.93 1643.31,2287.4 1275.59,2655.12 159.555,2655.12 154.911,2649.96 153.745,2648.79 152.465,2647.76 141.145,2639.53 139.763,2638.63 138.293,2637.89 125.511,2632.2 123.973,2631.6 122.381,2631.18 108.695,2628.27 107.067,2628.01 105.419,2627.92 91.4312,2627.92 89.7832,2628.01 88.1552,2628.27 74.4692,2631.18 72.8772,2631.6 71.3392,2632.2 58.5572,2637.89 57.0872,2638.63 55.7052,2639.53 44.3852,2647.76 43.1052,2648.79 41.9392,2649.96 32.5772,2660.36 31.5392,2661.64 30.6412,2663.02 23.6452,2675.14 22.8972,2676.61 22.3052,2678.15 17.9832,2691.45 17.5552,2693.05 17.2972,2694.67 15.8352,2708.59 15.7492,2710.24" style="stroke:rgb(5,23,88);stroke-width:31.496063;fill:none;stroke-opacity:0.5;stroke-linecap:round;stroke-linejoin:round;;fill:none"/>
<polyline points="15.7492,2710.24 15.8352,2711.88 17.2972,2725.8 17.5552,2727.42 17.9832,2729.02 22.3052,2742.32 22.8972,2743.86 23.6452,2745.33 30.6412,2757.45 31.5392,2758.83 32.5772,2760.11 41.9392,2770.51 43.1052,2771.68 44.3852,2772.71 55.7052,2780.94 57.0872,2781.84 58.5572,2782.58 71.3392,2788.27 72.8772,2788.87 74.4692,2789.29 88.1552,2792.2 89.7832,2792.46 91.4312,2792.55 105.419,2792.55 107.067,2792.46 108.695,2792.2 122.381,2789.29 123.973,2788.87 125.511,2788.27 138.293,2782.58 139.763,2781.84 141.145,2780.94 152.465,2772.71 153.745,2771.68 154.911,2770.51 159.555,2765.35 1298.42,2765.35 1299.97,2765.28 1307.65,2764.52 1309.18,2764.29 1310.68,2763.92 1318.06,2761.68 1319.52,2761.16 1320.91,2760.5 1327.72,2756.86 1330.29,2755.14 1336.25,2750.25 1337.4,2749.21 1737.4,2349.21 1738.44,2348.06 1743.33,2342.1 1744.25,2340.86 1745.05,2339.53 1748.69,2332.72 1749.87,2329.87 1752.11,2322.49 1752.48,2320.99 1752.71,2319.46 1753.47,2311.78 1753.54,2310.23 1753.54,1981.93 1761.09,1973.55 1762.13,1972.27 1763.02,1970.88 1769.61,1959.48 1770.36,1958.01 1770.95,1956.47 1775.02,1943.95 1775.44,1942.35 1775.7,1940.73 1777.08,1927.63 1777.17,1925.98 1777.17,1894.49 1777.08,1892.84 1775.7,1879.74 1775.44,1878.12 1775.02,1876.52 1770.95,1864 1770.36,1862.46 1769.61,1860.99 1763.02,1849.59 1762.13,1848.2 1761.09,1846.92 1752.28,1837.14 1751.11,1835.97 1749.83,1834.93 1739.18,1827.19 1737.8,1826.3 1736.33,1825.55 1724.3,1820.19 1722.76,1819.6 1721.16,1819.17 1708.28,1816.44 1706.66,1816.18 1705.01,1816.09 1691.84,1816.09 1690.19,1816.18 1688.57,1816.44 1675.69,1819.17 1674.09,1819.6 1672.55,1820.19 1660.52,1825.55 1659.05,1826.3 1657.67,1827.19 1647.02,1834.93 1645.74,1835.97 1644.57,1837.14 1635.76,1846.92 1634.72,1848.2 1633.83,1849.59 1627.24,1860.99 1626.49,1862.46 1625.9,1864 1621.83,1876.52 1621.41,1878.12 1621.15,1879.74 1619.77,1892.84 1619.68,1894.49 1619.68,1925.98 1619.77,1927.63 1621.15,1940.73 1621.41,1942.35 1621.83,1943.95 1625.9,1956.47 1626.49,1958.01 1627.24,1959.48 1633.83,1970.88 1634.72,1972.27 1635.76,1973.55 1643.31,1981.93 1643.31,2287.4 1275.59,2655.12 159.555,2655.12 154.911,2649.96 153.745,2648.79 152.465,2647.76 141.145,2639.53 139.763,2638.63 138.293,2637.89 125.511,2632.2 123.973,2631.6 122.381,2631.18 108.695,2628.27 107.067,2628.01 105.419,2627.92 91.4312,2627.92 89.7832,2628.01 88.1552,2628.27 74.4692,2631.18 72.8772,2631.6 71.3392,2632.2 58.5572,2637.89 57.0872,2638.63 55.7052,2639.53 44.3852,2647.76 43.1052,2648.79 41.9392,2649.96 32.5772,2660.36 31.5392,2661.64 30.6412,2663.02 23.6452,2675.14 22.8972,2676.61 22.3052,2678.15 17.9832,2691.45 17.5552,2693.05 17.2972,2694.67 15.8352,2708.59 15.7492,2710.24" style="stroke:rgb(0,0,0);stroke-width:1px;fill:none;stroke-opacity:1;stroke-linecap:round;stroke-linejoin:round;;fill:none"/>
<polyline points="15.7492,2977.16 16.0512,2980.24 16.9472,2983.19 18.4032,2985.91 20.3612,2988.3 22.7472,2990.26 25.4712,2991.71 28.4252,2992.61 31.4972,2992.91 165.353,2992.91 168.425,2992.61 171.379,2991.71 174.103,2990.26 176.489,2988.3 178.447,2985.91 179.903,2983.19 180.799,2980.24 181.101,2977.16 181.101,2965.35 1498.43,2965.35 1499.97,2965.28 1507.65,2964.52 1509.18,2964.29 1510.68,2963.92 1518.06,2961.68 1519.52,2961.16 1520.91,2960.5 1527.72,2956.86 1530.29,2955.14 1536.25,2950.25 1537.4,2949.21 1937.4,2549.21 1938.44,2548.06 1943.33,2542.1 1944.25,2540.86 1945.05,2539.53 1948.69,2532.72 1949.87,2529.87 1952.11,2522.49 1952.48,2520.99 1952.71,2519.46 1953.47,2511.78 1953.54,2510.24 1953.54,1981.93 1961.09,1973.55 1962.13,1972.27 1963.02,1970.88 1969.61,1959.48 1970.36,1958.01 1970.95,1956.47 1975.02,1943.95 1975.44,1942.35 1975.7,1940.73 1977.08,1927.63 1977.17,1925.98 1977.17,1894.49 1977.08,1892.84 1975.7,1879.74 1975.44,1878.12 1975.02,1876.52 1970.95,1864 1970.36,1862.46 1969.61,1860.99 1963.02,1849.59 1962.13,1848.2 1961.09,1846.92 1952.28,1837.14 1951.11,1835.97 1949.83,1834.93 1939.18,1827.19 1937.8,1826.3 1936.33,1825.55 1924.3,1820.19 1922.76,1819.6 1921.16,1819.17 1908.28,1816.44 1906.66,1816.18 1905.01,1816.09 1891.84,1816.09 1890.19,1816.18 1888.57,1816.44 1875.69,1819.17 1874.09,1819.6 1872.55,1820.19 1860.52,1825.55 1859.05,1826.3 1857.67,1827.19 1847.02,1834.93 1845.74,1835.97 1844.57,1837.14 1835.76,1846.92 1834.72,1848.2 1833.83,1849.59 1827.24,1860.99 1826.49,1862.46 1825.9,1864 1821.83,1876.52 1821.41,1878.12 1821.15,1879.74 1819.77,1892.84 1819.68,1894.49 1819.68,1925.98 1819.77,1927.63 1821.15,1940.73 1821.41,1942.35 1821.83,1943.95 1825.9,1956.47 1826.49,1958.01 1827.24,1959.48 1833.83,1970.88 1834.72,1972.27 1835.76,1973.55 1843.31,1981.93 1843.31,2487.4 1475.59,2855.12 181.101,2855.12 181.101,2843.31 180.799,2840.23 179.903,2837.28 178.447,2834.56 176.489,2832.17 174.103,2830.21 171.379,2828.76 168.425,2827.86 165.353,2827.56 31.4972,2827.56 28.4252,2827.86 25.4712,2828.76 22.7472,2830.21 20.3612,2832.17 18.4032,2834.56 16.9472,2837.28 16.0512,2840.23 15.7492,2843.31 15.7492,2977.16" style="stroke:rgb(233,94,212);stroke-width:31.496063;fill:none;stroke-opacity:0.5;stroke-linecap:round;stroke-linejoin:round;;fill:none"/>
<polyline points="15.7492,2977.16 16.0512,2980.24 16.9472,2983.19 18.4032,2985.91 20.3612,2988.3 22.7472,2990.26 25.4712,2991.71 28.4252,2992.61 31.4972,2992.91 165.353,2992.91 168.425,2992.61 171.379,2991.71 174.103,2990.26 176.489,2988.3 178.447,2985.91 179.903,2983.19 180.799,2980.24 181.101,2977.16 181.101,2965.35 1498.43,2965.35 1499.97,2965.28 1507.65,2964.52 1509.18,2964.29 1510.68,2963.92 1518.06,2961.68 1519.52,2961.16 1520.91,2960.5 1527.72,2956.86 1530.29,2955.14 1536.25,2950.25 1537.4,2949.21 1937.4,2549.21 1938.44,2548.06 1943.33,2542.1 1944.25,2540.86 1945.05,2539.53 1948.69,2532.72 1949.87,2529.87 1952.11,2522.49 1952.48,2520.99 1952.71,2519.46 1953.47,2511.78 1953.54,2510.24 1953.54,1981.93 1961.09,1973.55 1962.13,1972.27 1963.02,1970.88 1969.61,1959.48 1970.36,1958.01 1970.95,1956.47 1975.02,1943.95 1975.44,1942.35 1975.7,1940.73 1977.08,1927.63 1977.17,1925.98 1977.17,1894.49 1977.08,1892.84 1975.7,1879.74 1975.44,1878.12 1975.02,1876.52 1970.95,1864 1970.36,1862.46 1969.61,1860.99 1963.02,1849.59 1962.13,1848.2 1961.09,1846.92 1952.28,1837.14 1951.11,1835.97 1949.83,1834.93 1939.18,1827.19 1937.8,1826.3 1936.33,1825.55 1924.3,1820.19 1922.76,1819.6 1921.16,1819.17 1908.28,1816.44 1906.66,1816.18 1905.01,1816.09 1891.84,1816.09 1890.19,1816.18 1888.57,1816.44 1875.69,1819.17 1874.09,1819.6 1872.55,1820.19 1860.52,1825.55 1859.05,1826.3 1857.67,1827.19 1847.02,1834.93 1845.74,1835.97 1844.57,1837.14 1835.76,1846.92 1834.72,1848.2 1833.83,1849.59 1827.24,1860.99 1826.49,1862.46 1825.9,1864 1821.83,1876.52 1821.41,1878.12 1821.15,1879.74 1819.77,1892.84 1819.68,1894.49 1819.68,1925.98 1819.77,1927.63 1821.15,1940.73 1821.41,1942.35 1821.83,1943.95 1825.9,1956.47 1826.49,1958.01 1827.24,1959.48 1833.83,1970.88 1834.72,1972.27 1835.76,1973.55 1843.31,1981.93 1843.31,2487.4 1475.59,2855.12 181.101,2855.12 181.101,2843.31 180.799,2840.23 179.903,2837.28 178.447,2834.56 176.489,2832.17 174.103,2830.21 171.379,2828.76 168.425,2827.86 165.353,2827.56 31.4972,2827.56 28.4252,2827.86 25.4712,2828.76 22.7472,2830.21 20.3612,2832.17 18.4032,2834.56 16.9472,2837.28 16.0512,2840.23 15.7492,2843.31 15.7492,2977.16" style="stroke:rgb(0,0,0);stroke-width:1px;fill:none;stroke-opacity:1;stroke-linecap:round;stroke-linejoin:round;;fill:none"/>
<polyline points="2203.94,1988.98 2204.24,1992.05 2205.14,1995 2206.59,1997.72 2208.55,2000.11 2210.94,2002.07 2213.66,2003.52 2216.61,2004.42 2219.68,2004.72 2243.31,2004.72 2243.31,2510.23 2243.38,2511.78 2244.14,2519.46 2244.37,2520.99 2244.74,2522.49 2246.98,2529.87 2248.16,2532.72 2251.8,2539.53 2253.52,2542.1 2258.41,2548.06 2259.45,2549.21 2659.45,2949.21 2660.6,2950.25 2666.56,2955.14 2669.13,2956.86 2675.94,2960.5 2678.79,2961.68 2686.17,2963.92 2687.67,2964.29 2689.2,2964.52 2696.88,2965.28 2698.42,2965.35 3215.75,2965.35 3215.75,2977.16 3216.05,2980.24 3216.95,2983.19 3218.4,2985.91 3220.36,2988.3 3222.75,2990.26 3225.47,2991.71 3228.42,2992.61 3231.5,2992.91 3365.35,2992.91 3368.43,2992.61 3371.38,2991.71 3374.1,2990.26 3376.49,2988.3 3378.45,2985.91 3379.9,2983.19 3380.8,2980.24 3381.1,2977.16 3381.1,2843.31 3380.8,2840.23 3379.9,2837.28 3378.45,2834.56 3376.49,2832.17 3374.1,2830.21 3371.38,2828.76 3368.43,2827.86 3365.35,2827.56 3231.5,2827.56 3228.42,2827.86 3225.47,2828.76 3222.75,2830.21 3220.36,2832.17 3218.4,2834.56 3216.95,2837.28 3216.05,2840.23 3215.75,2843.31 3215.75,2855.12 2721.26,2855.12 2353.54,2487.4 2353.54,2004.72 2377.17,2004.72 2380.24,2004.42 2383.19,2003.52 2385.91,2002.07 2388.3,2000.11 2390.26,1997.72 2391.71,1995 2392.61,1992.05 2392.91,1988.98 2392.91,1831.49 2392.61,1828.42 2391.71,1825.47 2390.26,1822.75 2388.3,1820.36 2385.91,1818.4 2383.19,1816.95 2380.24,1816.05 2377.17,1815.75 2219.68,1815.75 2216.61,1816.05 2213.66,1816.95 2210.94,1818.4 2208.55,1820.36 2206.59,1822.75 2205.14,1825.47 2204.24,1828.42 2203.94,1831.49 2203.94,1988.98" style="stroke:rgb(171,178,205);stroke-width:31.496063;fill:none;stroke-opacity:0.5;stroke-linecap:round;stroke-linejoin:round;;fill:none"/>
<polyline points="2203.94,1988.98 2204.24,1992.05 2205.14,1995 2206.59,1997.72 2208.55,2000.11 2210.94,2002.07 2213.66,2003.52 2216.61,2004.42 2219.68,2004.72 2243.31,2004.72 2243.31,2510.23 2243.38,2511.78 2244.14,2519.46 2244.37,2520.99 2244.74,2522.49 2246.98,2529.87 2248.16,2532.72 2251.8,2539.53 2253.52,2542.1 2258.41,2548.06 2259.45,2549.21 2659.45,2949.21 2660.6,2950.25 2666.56,2955.14 2669.13,2956.86 2675.94,2960.5 2678.79,2961.68 2686.17,2963.92 2687.67,2964.29 2689.2,2964.52 2696.88,2965.28 2698.42,2965.35 3215.75,2965.35 3215.75,2977.16 3216.05,2980.24 3216.95,2983.19 3218.4,2985.91 3220.36,2988.3 3222.75,2990.26 3225.47,2991.71 3228.42,2992.61 3231.5,2992.91 3365.35,2992.91 3368.43,2992.61 3371.38,2991.71 3374.1,2990.26 3376.49,2988.3 3378.45,2985.91 3379.9,2983.19 3380.8,2980.24 3381.1,2977.16 3381.1,2843.31 3380.8,2840.23 3379.9,2837.28 3378.45,2834.56 3376.49,2832.17 3374.1,2830.21 3371.38,2828.76 3368.43,2827.86 3365.35,2827.56 3231.5,2827.56 3228.42,2827.86 3225.47,2828.76 3222.75,2830.21 3220.36,2832.17 3218.4,2834.56 3216.95,2837.28 3216.05,2840.23 3215.75,2843.31 3215.75,2855.12 2721.26,2855.12 2353.54,2487.4 2353.54,2004.72 2377.17,2004.72 2380.24,2004.42 2383.19,2003.52 2385.91,2002.07 2388.3,2000.11 2390.26,1997.72 2391.71,1995 2392.61,1992.05 2392.91,1988.98 2392.91,1831.49 2392.61,1828.42 2391.71,1825.47 2390.26,1822.75 2388.3,1820.36 2385.91,1818.4 2383.19,1816.95 2380.24,1816.05 2377.17,1815.75 2219.68,1815.75 2216.61,1816.05 2213.66,1816.95 2210.94,1818.4 2208.55,1820.36 2206.59,1822.75 2205.14,1825.47 2204.24,1828.42 2203.94,1831.49 2203.94,1988.98" style="stroke:rgb(0,0,0);stroke-width:1px;fill:none;stroke-opacity:1;stroke-linecap:round;stroke-linejoin:round;;fill:none"/>
<polyline points="2019.68,1925.98 2019.77,1927.63 2021.15,1940.73 2021.41,1942.35 2021.83,1943.95 2025.9,1956.47 2026.49,1958.01 2027.24,1959.48 2033.83,1970.88 2034.72,1972.27 2035.76,1973.55 2044.57,1983.33 2045.74,1984.5 2047.02,1985.54 2057.67,1993.28 2059.05,1994.17 2060.52,1994.92 2072.55,2000.28 2074.09,2000.87 2075.69,2001.3 2088.57,2004.03 2090.19,2004.29 2091.84,2004.38 2105.01,2004.38 2106.66,2004.29 2108.28,2004.03 2121.16,2001.3 2122.76,2000.87 2124.3,2000.28 2136.33,1994.92 2137.8,1994.17 2139.18,1993.28 2149.83,1985.54 2151.11,1984.5 2152.28,1983.33 2161.09,1973.55 2162.13,1972.27 2163.02,1970.88 2169.61,1959.48 2170.36,1958.01 2170.95,1956.47 2175.02,1943.95 2175.44,1942.35 2175.7,1940.73 2177.08,1927.63 2177.17,1925.98 2177.17,1894.49 2177.08,1892.84 2175.7,1879.74 2175.44,1878.12 2175.02,1876.52 2170.95,1864 2170.36,1862.46 2169.61,1860.99 2163.02,1849.59 2162.13,1848.2 2161.09,1846.92 2153.54,1838.54 2153.54,1765.35 2675.59,1765.35 3216.12,2305.88 3215.83,2308.59 3215.75,2310.24 3215.83,2311.88 3217.3,2325.8 3217.55,2327.42 3217.98,2329.02 3222.3,2342.32 3222.9,2343.86 3223.64,2345.33 3230.64,2357.45 3231.54,2358.83 3232.58,2360.11 3241.94,2370.51 3243.1,2371.68 3244.38,2372.71 3255.7,2380.94 3257.09,2381.84 3258.56,2382.58 3271.34,2388.27 3272.88,2388.87 3274.47,2389.29 3288.15,2392.2 3289.78,2392.46 3291.43,2392.55 3305.42,2392.55 3307.07,2392.46 3308.7,2392.2 3322.38,2389.29 3323.97,2388.87 3325.51,2388.27 3338.29,2382.58 3339.76,2381.84 3341.15,2380.94 3352.47,2372.71 3353.75,2371.68 3354.91,2370.51 3364.27,2360.11 3365.31,2358.83 3366.21,2357.45 3373.21,2345.33 3373.95,2343.86 3374.55,2342.32 3378.87,2329.02 3379.3,2327.42 3379.55,2325.8 3381.02,2311.88 3381.1,2310.24 3381.02,2308.59 3379.55,2294.67 3379.3,2293.05 3378.87,2291.45 3374.55,2278.15 3373.95,2276.61 3373.21,2275.14 3366.21,2263.02 3365.31,2261.64 3364.27,2260.36 3354.91,2249.96 3353.75,2248.79 3352.47,2247.76 3341.15,2239.53 3339.76,2238.63 3338.29,2237.89 3325.51,2232.2 3323.97,2231.6 3322.38,2231.18 3308.7,2228.27 3307.07,2228.01 3305.42,2227.92 3294.06,2227.92 2737.4,1671.26 2736.25,1670.22 2730.29,1665.33 2729.05,1664.41 2727.72,1663.61 2720.91,1659.97 2718.06,1658.79 2710.68,1656.55 2709.18,1656.18 2707.65,1655.95 2699.97,1655.19 2698.43,1655.12 2098.43,1655.12 2096.88,1655.19 2089.2,1655.95 2087.67,1656.18 2086.17,1656.55 2078.79,1658.79 2077.33,1659.31 2075.94,1659.97 2069.13,1663.61 2066.56,1665.33 2060.6,1670.22 2059.45,1671.26 2058.41,1672.41 2053.52,1678.37 2052.6,1679.61 2051.8,1680.94 2048.16,1687.75 2046.98,1690.6 2044.74,1697.98 2044.14,1701.01 2043.38,1708.69 2043.31,1710.23 2043.31,1838.54 2035.76,1846.92 2034.72,1848.2 2033.83,1849.59 2027.24,1860.99 2026.49,1862.46 2025.9,1864 2021.83,1876.52 2021.41,1878.12 2021.15,1879.74 2019.77,1892.84 2019.68,1894.49 2019.68,1925.98" style="stroke:rgb(198,155,180);stroke-width:31.496063;fill:none;stroke-opacity:0.5;stroke-linecap:round;stroke-linejoin:round;;fill:none"/>
<polyline points="2019.68,1925.98 2019.77,1927.63 2021.15,1940.73 2021.41,1942.35 2021.83,1943.95 2025.9,1956.47 2026.49,1958.01 2027.24,1959.48 2033.83,1970.88 2034.72,1972.27 2035.76,1973.55 2044.57,1983.33 2045.74,1984.5 2047.02,1985.54 2057.67,1993.28 2059.05,1994.17 2060.52,1994.92 2072.55,2000.28 2074.09,2000.87 2075.69,2001.3 2088.57,2004.03 2090.19,2004.29 2091.84,2004.38 2105.01,2004.38 2106.66,2004.29 2108.28,2004.03 2121.16,2001.3 2122.76,2000.87 2124.3,2000.28 2136.33,1994.92 2137.8,1994.17 2139.18,1993.28 2149.83,1985.54 2151.11,1984.5 2152.28,1983.33 2161.09,1973.55 2162.13,1972.27 2163.02,1970.88 2169.61,1959.48 2170.36,1958.01 2170.95,1956.47 2175.02,1943.95 2175.44,1942.35 2175.7,1940.73 2177.08,1927.63 2177.17,1925.98 2177.17,1894.49 2177.08,1892.84 2175.7,1879.74 2175.44,1878.12 2175.02,1876.52 2170.95,1864 2170.36,1862.46 2169.61,1860.99 2163.02,1849.59 2162.13,1848.2 2161.09,1846.92 2153.54,1838.54 2153.54,1765.35 2675.59,1765.35 3216.12,2305.88 3215.83,2308.59 3215.75,2310.24 3215.83,2311.88 3217.3,2325.8 3217.55,2327.42 3217.98,2329.02 3222.3,2342.32 3222.9,2343.86 3223.64,2345.33 3230.64,2357.45 3231.54,2358.83 3232.58,2360.11 3241.94,2370.51 3243.1,2371.68 3244.38,2372.71 3255.7,2380.94 3257.09,2381.84 3258.56,2382.58 3271.34,2388.27 3272.88,2388.87 3274.47,2389.29 3288.15,2392.2 3289.78,2392.46 3291.43,2392.55 3305.42,2392.55 3307.07,2392.46 3308.7,2392.2 3322.38,2389.29 3323.97,2388.87 3325.51,2388.27 3338.29,2382.58 3339.76,2381.84 3341.15,2380.94 3352.47,2372.71 3353.75,2371.68 3354.91,2370.51 3364.27,2360.11 3365.31,2358.83 3366.21,2357.45 3373.21,2345.33 3373.95,2343.86 3374.55,2342.32 3378.87,2329.02 3379.3,2327.42 3379.55,2325.8 3381.02,2311.88 3381.1,2310.24 3381.02,2308.59 3379.55,2294.67 3379.3,2293.05 3378.87,2291.45 3374.55,2278.15 3373.95,2276.61 3373.21,2275.14 3366.21,2263.02 3365.31,2261.64 3364.27,2260.36 3354.91,2249.96 3353.75,2248.79 3352.47,2247.76 3341.15,2239.53 3339.76,2238.63 3338.29,2237.89 3325.51,2232.2 3323.97,2231.6 3322.38,2231.18 3308.7,2228.27 3307.07,2228.01 3305.42,2227.92 3294.06,2227.92 2737.4,1671.26 2736.25,1670.22 2730.29,1665.33 2729.05,1664.41 2727.72,1663.61 2720.91,1659.97 2718.06,1658.79 2710.68,1656.55 2709.18,1656.18 2707.65,1655.95 2699.97,1655.19 2698.43,1655.12 2098.43,1655.12 2096.88,1655.19 2089.2,1655.95 2087.67,1656.18 2086.17,1656.55 2078.79,1658.79 2077.33,1659.31 2075.94,1659.97 2069.13,1663.61 2066.56,1665.33 2060.6,1670.22 2059.45,1671.26 2058.41,1672.41 2053.52,1678.37 2052.6,1679.61 2051.8,1680.94 2048.16,1687.75 2046.98,1690.6 2044.74,1697.98 2044.14,1701.01 2043.38,1708.69 2043.31,1710.23 2043.31,1838.54 2035.76,1846.92 2034.72,1848.2 2033.83,1849.59 2027.24,1860.99 2026.49,1862.46 2025.9,1864 2021.83,1876.52 2021.41,1878.12 2021.15,1879.74 2019.77,1892.84 2019.68,1894.49 2019.68,1925.98" style="stroke:rgb(0,0,0);stroke-width:1px;fill:none;stroke-opacity:1;stroke-linecap:round;stroke-linejoin:round;;fill:none"/>
</svg>
